<svg xmlns="http://www.w3.org/2000/svg" xmlns:xlink="http://www.w3.org/1999/xlink" width="2000" zoomAndPan="magnify" viewBox="0 0 1500 1499.999933" height="2000" preserveAspectRatio="xMidYMid meet" version="1.0"><defs><clipPath id="eb6fbee8f1"><path d="M 301 322.5 L 1198 322.5 L 1198 1177.5 L 301 1177.5 Z M 301 322.5 " clip-rule="nonzero"/></clipPath></defs><g clip-path="url(#eb6fbee8f1)"><path fill="#339ca7" d="M 907.539062 1177.523438 C 836.050781 1177.523438 782.949219 1065.289062 749.867188 965.46875 C 716.773438 1065.316406 663.675781 1177.523438 592.195312 1177.523438 C 544.839844 1177.523438 498.714844 1135.824219 458.816406 1056.9375 C 427.300781 994.640625 401.796875 912.691406 390.585938 837.722656 C 385.527344 803.824219 376.964844 787.757812 361.429688 758.59375 C 359.605469 755.164062 357.695312 751.585938 355.703125 747.804688 L 350.28125 737.527344 C 350.019531 737.039062 349.78125 736.535156 349.570312 736.019531 C 349.359375 735.503906 349.171875 734.980469 349.011719 734.445312 C 348.851562 733.914062 348.71875 733.375 348.613281 732.828125 C 348.503906 732.28125 348.425781 731.730469 348.371094 731.175781 C 348.320312 730.621094 348.292969 730.066406 348.296875 729.511719 C 348.296875 728.953125 348.324219 728.398438 348.382812 727.84375 C 348.4375 727.289062 348.519531 726.742188 348.632812 726.195312 C 348.742188 725.648438 348.878906 725.109375 349.042969 724.578125 C 349.207031 724.046875 349.394531 723.523438 349.609375 723.007812 C 349.824219 722.496094 350.0625 721.992188 350.328125 721.503906 C 350.589844 721.011719 350.878906 720.539062 351.1875 720.074219 C 351.5 719.613281 351.832031 719.167969 352.1875 718.738281 C 352.542969 718.308594 352.917969 717.898438 353.3125 717.507812 C 353.707031 717.113281 354.121094 716.742188 354.550781 716.390625 C 354.984375 716.039062 355.429688 715.710938 355.894531 715.402344 C 356.359375 715.09375 356.835938 714.808594 357.328125 714.550781 C 357.820312 714.289062 358.324219 714.050781 358.839844 713.839844 C 359.355469 713.628906 359.878906 713.445312 360.410156 713.285156 C 360.945312 713.125 361.484375 712.992188 362.03125 712.886719 C 362.578125 712.777344 363.128906 712.699219 363.683594 712.648438 C 364.238281 712.59375 364.792969 712.570312 365.347656 712.570312 C 365.90625 712.574219 366.460938 712.601562 367.015625 712.660156 C 367.570312 712.714844 368.117188 712.800781 368.664062 712.910156 C 369.210938 713.019531 369.75 713.160156 370.28125 713.324219 C 370.8125 713.484375 371.335938 713.675781 371.847656 713.890625 C 372.363281 714.105469 372.863281 714.34375 373.355469 714.609375 C 373.84375 714.875 374.320312 715.164062 374.78125 715.472656 C 375.242188 715.785156 375.6875 716.117188 376.117188 716.472656 C 376.546875 716.828125 376.957031 717.203125 377.347656 717.597656 C 377.738281 717.992188 378.113281 718.40625 378.464844 718.839844 C 378.816406 719.269531 379.144531 719.71875 379.449219 720.183594 C 379.757812 720.648438 380.042969 721.125 380.300781 721.617188 L 385.738281 731.9375 C 387.71875 735.703125 389.605469 739.238281 391.40625 742.613281 C 407.574219 772.964844 418.257812 793.015625 424.183594 832.699219 C 434.882812 904.273438 459.164062 982.367188 489.125 1041.597656 C 522.375 1107.332031 558.976562 1143.53125 592.1875 1143.53125 C 632.636719 1143.53125 682.332031 1066.164062 721.871094 941.617188 C 722.339844 940.140625 722.921875 938.707031 723.617188 937.324219 C 724.3125 935.9375 725.113281 934.613281 726.015625 933.355469 C 726.921875 932.097656 727.917969 930.914062 729.007812 929.816406 C 730.101562 928.714844 731.273438 927.707031 732.523438 926.789062 C 733.773438 925.875 735.089844 925.0625 736.46875 924.355469 C 737.847656 923.648438 739.273438 923.054688 740.746094 922.574219 C 742.222656 922.09375 743.722656 921.730469 745.253906 921.488281 C 746.785156 921.242188 748.328125 921.121094 749.875 921.125 C 751.425781 921.125 752.96875 921.246094 754.5 921.492188 C 756.027344 921.738281 757.53125 922.101562 759.003906 922.582031 C 760.476562 923.066406 761.902344 923.664062 763.28125 924.371094 C 764.660156 925.078125 765.976562 925.890625 767.226562 926.808594 C 768.476562 927.726562 769.644531 928.734375 770.734375 929.839844 C 771.824219 930.941406 772.820312 932.121094 773.722656 933.382812 C 774.628906 934.640625 775.425781 935.964844 776.117188 937.351562 C 776.8125 938.738281 777.390625 940.171875 777.859375 941.648438 C 817.386719 1066.164062 867.082031 1143.53125 907.53125 1143.53125 C 940.738281 1143.53125 977.34375 1107.332031 1010.601562 1041.59375 C 1040.5625 982.378906 1064.863281 904.269531 1075.605469 832.683594 C 1081.53125 793.011719 1092.210938 772.960938 1108.382812 742.609375 C 1110.183594 739.226562 1112.066406 735.691406 1114.039062 731.957031 C 1115.867188 728.5 1117.613281 725.140625 1119.292969 721.847656 C 1119.546875 721.351562 1119.820312 720.867188 1120.121094 720.398438 C 1120.421875 719.929688 1120.742188 719.476562 1121.089844 719.042969 C 1121.433594 718.605469 1121.796875 718.183594 1122.183594 717.785156 C 1122.570312 717.382812 1122.972656 717.003906 1123.398438 716.640625 C 1123.820312 716.28125 1124.257812 715.941406 1124.714844 715.621094 C 1125.171875 715.304688 1125.644531 715.007812 1126.128906 714.738281 C 1126.613281 714.464844 1127.113281 714.21875 1127.621094 713.996094 C 1128.132812 713.773438 1128.652344 713.574219 1129.179688 713.402344 C 1129.710938 713.230469 1130.246094 713.085938 1130.789062 712.964844 C 1131.332031 712.847656 1131.882812 712.753906 1132.433594 712.6875 C 1132.984375 712.625 1133.539062 712.585938 1134.097656 712.574219 C 1134.652344 712.5625 1135.207031 712.582031 1135.761719 712.625 C 1136.316406 712.667969 1136.867188 712.738281 1137.417969 712.835938 C 1137.964844 712.933594 1138.507812 713.058594 1139.042969 713.210938 C 1139.578125 713.359375 1140.105469 713.539062 1140.621094 713.742188 C 1141.140625 713.945312 1141.648438 714.171875 1142.144531 714.425781 C 1142.636719 714.675781 1143.121094 714.953125 1143.589844 715.253906 C 1144.058594 715.554688 1144.511719 715.875 1144.945312 716.21875 C 1145.382812 716.566406 1145.804688 716.929688 1146.203125 717.316406 C 1146.605469 717.699219 1146.988281 718.105469 1147.347656 718.527344 C 1147.710938 718.953125 1148.046875 719.390625 1148.367188 719.847656 C 1148.683594 720.304688 1148.980469 720.773438 1149.25 721.261719 C 1149.523438 721.746094 1149.769531 722.242188 1149.992188 722.753906 C 1150.214844 723.261719 1150.414062 723.78125 1150.585938 724.3125 C 1150.757812 724.839844 1150.902344 725.378906 1151.023438 725.921875 C 1151.140625 726.464844 1151.234375 727.011719 1151.300781 727.566406 C 1151.363281 728.117188 1151.402344 728.671875 1151.414062 729.226562 C 1151.425781 729.785156 1151.40625 730.339844 1151.363281 730.894531 C 1151.320312 731.449219 1151.25 732 1151.152344 732.546875 C 1151.054688 733.097656 1150.929688 733.636719 1150.777344 734.171875 C 1150.628906 734.707031 1150.449219 735.234375 1150.246094 735.753906 C 1150.042969 736.273438 1149.816406 736.777344 1149.5625 737.273438 C 1147.804688 740.722656 1145.976562 744.242188 1144.078125 747.828125 C 1142.101562 751.578125 1140.195312 755.164062 1138.367188 758.585938 C 1122.828125 787.75 1114.269531 803.816406 1109.207031 837.710938 C 1097.957031 912.710938 1072.429688 994.65625 1040.917969 1056.933594 C 1001.015625 1135.824219 954.894531 1177.523438 907.539062 1177.523438 Z M 1177.925781 629.089844 C 1176.988281 629.089844 1176.0625 629.015625 1175.140625 628.863281 C 1174.589844 628.773438 1174.046875 628.65625 1173.507812 628.511719 C 1172.972656 628.367188 1172.441406 628.199219 1171.921875 628.003906 C 1171.402344 627.808594 1170.890625 627.585938 1170.390625 627.339844 C 1169.894531 627.09375 1169.40625 626.824219 1168.933594 626.53125 C 1168.460938 626.238281 1168.003906 625.921875 1167.5625 625.582031 C 1167.121094 625.242188 1166.699219 624.882812 1166.292969 624.503906 C 1165.886719 624.125 1165.5 623.722656 1165.132812 623.304688 C 1164.765625 622.886719 1164.417969 622.453125 1164.09375 622 C 1163.769531 621.546875 1163.46875 621.082031 1163.191406 620.597656 C 1162.914062 620.117188 1162.660156 619.625 1162.429688 619.117188 C 1162.199219 618.609375 1161.996094 618.09375 1161.816406 617.566406 C 1161.636719 617.039062 1161.484375 616.503906 1161.359375 615.960938 C 1161.234375 615.421875 1161.132812 614.875 1161.058594 614.324219 C 1160.988281 613.769531 1160.941406 613.21875 1160.925781 612.660156 C 1160.90625 612.105469 1160.914062 611.550781 1160.953125 610.992188 C 1160.988281 610.4375 1161.050781 609.886719 1161.140625 609.335938 C 1163.074219 597.613281 1164.027344 585.8125 1164.007812 573.929688 C 1164.003906 570.371094 1163.910156 566.816406 1163.734375 563.261719 C 1163.554688 559.707031 1163.289062 556.160156 1162.9375 552.621094 C 1162.585938 549.082031 1162.144531 545.550781 1161.621094 542.03125 C 1161.09375 538.515625 1160.484375 535.011719 1159.785156 531.519531 C 1159.089844 528.03125 1158.308594 524.5625 1157.4375 521.113281 C 1156.570312 517.660156 1155.621094 514.234375 1154.585938 510.832031 C 1153.550781 507.425781 1152.433594 504.050781 1151.230469 500.699219 C 1150.03125 497.351562 1148.75 494.035156 1147.382812 490.746094 C 1146.019531 487.460938 1144.578125 484.210938 1143.054688 480.996094 C 1141.53125 477.78125 1139.929688 474.601562 1138.253906 471.464844 C 1136.574219 468.328125 1134.820312 465.234375 1132.988281 462.183594 C 1131.160156 459.132812 1129.253906 456.128906 1127.277344 453.171875 C 1125.300781 450.214844 1123.25 447.304688 1121.132812 444.449219 C 1119.011719 441.59375 1116.820312 438.789062 1114.566406 436.039062 C 1112.308594 433.289062 1109.984375 430.59375 1107.59375 427.960938 C 1105.203125 425.324219 1102.75 422.746094 1100.234375 420.230469 C 1097.71875 417.714844 1095.144531 415.261719 1092.507812 412.875 C 1089.871094 410.484375 1087.179688 408.160156 1084.429688 405.902344 C 1081.679688 403.644531 1078.875 401.457031 1076.019531 399.335938 C 1073.160156 397.21875 1070.253906 395.167969 1067.296875 393.191406 C 1064.335938 391.214844 1061.332031 389.308594 1058.28125 387.480469 C 1055.230469 385.648438 1052.136719 383.894531 1049 382.21875 C 1045.863281 380.539062 1042.6875 378.9375 1039.46875 377.414062 C 1036.253906 375.894531 1033.003906 374.449219 1029.71875 373.085938 C 1026.433594 371.722656 1023.113281 370.441406 1019.765625 369.238281 C 1016.414062 368.039062 1013.039062 366.921875 1009.636719 365.886719 C 1006.230469 364.851562 1002.804688 363.898438 999.351562 363.03125 C 995.902344 362.164062 992.433594 361.382812 988.945312 360.6875 C 985.457031 359.988281 981.953125 359.378906 978.433594 358.851562 C 974.914062 358.328125 971.382812 357.890625 967.84375 357.535156 C 964.304688 357.183594 960.757812 356.917969 957.203125 356.742188 C 953.648438 356.5625 950.09375 356.472656 946.535156 356.46875 C 922.808594 356.46875 893.480469 363.714844 861.726562 377.425781 C 787.484375 409.410156 712.242188 409.414062 638.082031 377.425781 C 606.320312 363.710938 576.992188 356.460938 553.265625 356.460938 C 549.707031 356.464844 546.152344 356.554688 542.597656 356.734375 C 539.042969 356.910156 535.496094 357.175781 531.957031 357.527344 C 528.414062 357.878906 524.882812 358.316406 521.363281 358.84375 C 517.84375 359.367188 514.339844 359.976562 510.851562 360.675781 C 507.359375 361.371094 503.890625 362.152344 500.4375 363.019531 C 496.988281 363.886719 493.558594 364.835938 490.15625 365.871094 C 486.75 366.90625 483.371094 368.023438 480.023438 369.226562 C 476.671875 370.425781 473.355469 371.707031 470.066406 373.070312 C 466.78125 374.433594 463.527344 375.875 460.3125 377.398438 C 457.09375 378.921875 453.917969 380.519531 450.78125 382.199219 C 447.640625 383.878906 444.546875 385.632812 441.496094 387.460938 C 438.445312 389.292969 435.4375 391.195312 432.480469 393.171875 C 429.519531 395.148438 426.613281 397.199219 423.753906 399.320312 C 420.894531 401.4375 418.089844 403.628906 415.339844 405.882812 C 412.589844 408.140625 409.894531 410.464844 407.257812 412.855469 C 404.621094 415.246094 402.046875 417.695312 399.527344 420.214844 C 397.011719 422.730469 394.558594 425.304688 392.167969 427.941406 C 389.777344 430.578125 387.453125 433.269531 385.195312 436.019531 C 382.9375 438.769531 380.746094 441.574219 378.625 444.429688 C 376.503906 447.289062 374.453125 450.195312 372.476562 453.15625 C 370.5 456.113281 368.59375 459.117188 366.761719 462.167969 C 364.929688 465.21875 363.175781 468.3125 361.496094 471.449219 C 359.816406 474.589844 358.214844 477.765625 356.691406 480.980469 C 355.167969 484.195312 353.726562 487.449219 352.359375 490.734375 C 350.996094 494.019531 349.714844 497.339844 348.511719 500.6875 C 347.308594 504.039062 346.191406 507.414062 345.15625 510.820312 C 344.121094 514.222656 343.167969 517.652344 342.300781 521.101562 C 341.429688 524.554688 340.648438 528.023438 339.949219 531.515625 C 339.253906 535.003906 338.640625 538.507812 338.113281 542.027344 C 337.589844 545.546875 337.148438 549.078125 336.796875 552.617188 C 336.445312 556.160156 336.175781 559.707031 336 563.261719 C 335.820312 566.8125 335.726562 570.371094 335.722656 573.929688 C 335.738281 585.839844 336.695312 597.671875 338.601562 609.425781 C 338.691406 609.976562 338.75 610.527344 338.785156 611.085938 C 338.816406 611.640625 338.824219 612.195312 338.800781 612.75 C 338.78125 613.308594 338.730469 613.859375 338.65625 614.410156 C 338.578125 614.960938 338.476562 615.507812 338.347656 616.050781 C 338.21875 616.589844 338.0625 617.125 337.878906 617.648438 C 337.699219 618.175781 337.492188 618.691406 337.257812 619.195312 C 337.027344 619.703125 336.769531 620.195312 336.488281 620.675781 C 336.207031 621.15625 335.902344 621.621094 335.578125 622.070312 C 335.25 622.519531 334.902344 622.953125 334.53125 623.371094 C 334.164062 623.785156 333.773438 624.183594 333.367188 624.5625 C 332.957031 624.9375 332.53125 625.296875 332.089844 625.632812 C 331.644531 625.96875 331.1875 626.28125 330.714844 626.574219 C 330.238281 626.863281 329.75 627.128906 329.25 627.375 C 328.75 627.617188 328.238281 627.835938 327.71875 628.027344 C 327.195312 628.222656 326.667969 628.386719 326.128906 628.527344 C 325.589844 628.667969 325.046875 628.785156 324.496094 628.871094 C 323.949219 628.957031 323.394531 629.019531 322.839844 629.050781 C 322.285156 629.085938 321.730469 629.089844 321.171875 629.070312 C 320.617188 629.046875 320.0625 629 319.511719 628.921875 C 318.960938 628.847656 318.414062 628.746094 317.875 628.613281 C 317.332031 628.484375 316.800781 628.328125 316.273438 628.148438 C 315.75 627.964844 315.234375 627.757812 314.726562 627.527344 C 314.222656 627.292969 313.730469 627.039062 313.25 626.757812 C 312.769531 626.476562 312.304688 626.171875 311.851562 625.84375 C 311.402344 625.519531 310.96875 625.171875 310.554688 624.800781 C 310.136719 624.433594 309.742188 624.042969 309.363281 623.632812 C 308.984375 623.226562 308.628906 622.800781 308.292969 622.355469 C 307.957031 621.914062 307.640625 621.457031 307.351562 620.980469 C 307.058594 620.507812 306.792969 620.019531 306.550781 619.519531 C 306.308594 619.019531 306.089844 618.507812 305.894531 617.984375 C 305.703125 617.464844 305.535156 616.933594 305.394531 616.394531 C 305.253906 615.859375 305.140625 615.3125 305.054688 614.765625 C 302.863281 601.242188 301.765625 587.628906 301.753906 573.929688 C 301.761719 569.816406 301.867188 565.703125 302.074219 561.59375 C 302.28125 557.484375 302.589844 553.382812 302.996094 549.289062 C 303.402344 545.195312 303.910156 541.113281 304.519531 537.042969 C 305.128906 532.972656 305.835938 528.921875 306.640625 524.886719 C 307.449219 520.855469 308.351562 516.839844 309.355469 512.851562 C 310.359375 508.859375 311.460938 504.898438 312.660156 500.960938 C 313.855469 497.023438 315.148438 493.121094 316.539062 489.25 C 317.925781 485.375 319.410156 481.539062 320.988281 477.738281 C 322.566406 473.9375 324.234375 470.179688 325.996094 466.460938 C 327.757812 462.742188 329.609375 459.070312 331.550781 455.441406 C 333.492188 451.816406 335.519531 448.238281 337.636719 444.710938 C 339.753906 441.179688 341.957031 437.707031 344.242188 434.289062 C 346.53125 430.867188 348.902344 427.503906 351.351562 424.203125 C 353.804688 420.898438 356.335938 417.65625 358.949219 414.476562 C 361.558594 411.296875 364.246094 408.183594 367.007812 405.132812 C 369.773438 402.085938 372.609375 399.109375 375.519531 396.199219 C 378.429688 393.289062 381.40625 390.453125 384.457031 387.691406 C 387.503906 384.929688 390.621094 382.242188 393.800781 379.632812 C 396.980469 377.019531 400.222656 374.488281 403.527344 372.039062 C 406.832031 369.585938 410.195312 367.21875 413.617188 364.933594 C 417.035156 362.644531 420.511719 360.445312 424.039062 358.328125 C 427.566406 356.210938 431.144531 354.183594 434.773438 352.242188 C 438.402344 350.304688 442.074219 348.453125 445.792969 346.691406 C 449.511719 344.929688 453.273438 343.261719 457.074219 341.6875 C 460.871094 340.109375 464.710938 338.628906 468.582031 337.238281 C 472.457031 335.851562 476.359375 334.558594 480.296875 333.363281 C 484.234375 332.167969 488.199219 331.066406 492.1875 330.0625 C 496.179688 329.0625 500.191406 328.15625 504.226562 327.351562 C 508.261719 326.546875 512.3125 325.839844 516.382812 325.234375 C 520.449219 324.625 524.53125 324.121094 528.625 323.710938 C 532.722656 323.304688 536.824219 323 540.933594 322.792969 C 545.042969 322.585938 549.152344 322.480469 553.265625 322.476562 C 581.992188 322.476562 615.058594 330.46875 651.546875 346.222656 C 716.769531 374.351562 782.964844 374.367188 848.269531 346.222656 C 884.742188 330.472656 917.808594 322.484375 946.53125 322.484375 C 950.644531 322.488281 954.757812 322.59375 958.863281 322.800781 C 962.972656 323.003906 967.074219 323.3125 971.167969 323.71875 C 975.261719 324.125 979.34375 324.632812 983.414062 325.242188 C 987.480469 325.847656 991.53125 326.554688 995.566406 327.359375 C 999.601562 328.167969 1003.613281 329.070312 1007.601562 330.074219 C 1011.59375 331.074219 1015.554688 332.175781 1019.492188 333.371094 C 1023.429688 334.570312 1027.332031 335.863281 1031.203125 337.25 C 1035.078125 338.640625 1038.914062 340.121094 1042.714844 341.699219 C 1046.511719 343.273438 1050.273438 344.941406 1053.992188 346.703125 C 1057.707031 348.464844 1061.382812 350.316406 1065.007812 352.253906 C 1068.636719 354.195312 1072.214844 356.222656 1075.742188 358.339844 C 1079.269531 360.457031 1082.742188 362.65625 1086.164062 364.945312 C 1089.582031 367.230469 1092.945312 369.601562 1096.25 372.050781 C 1099.554688 374.503906 1102.796875 377.035156 1105.976562 379.644531 C 1109.15625 382.253906 1112.269531 384.941406 1115.316406 387.703125 C 1118.363281 390.464844 1121.34375 393.300781 1124.253906 396.210938 C 1127.160156 399.121094 1129.996094 402.097656 1132.761719 405.144531 C 1135.523438 408.195312 1138.210938 411.308594 1140.820312 414.488281 C 1143.429688 417.667969 1145.960938 420.910156 1148.414062 424.210938 C 1150.863281 427.515625 1153.234375 430.878906 1155.519531 434.296875 C 1157.804688 437.71875 1160.007812 441.191406 1162.125 444.71875 C 1164.242188 448.246094 1166.269531 451.824219 1168.210938 455.453125 C 1170.152344 459.078125 1172 462.753906 1173.761719 466.46875 C 1175.523438 470.1875 1177.191406 473.949219 1178.769531 477.746094 C 1180.34375 481.546875 1181.828125 485.382812 1183.214844 489.257812 C 1184.605469 493.128906 1185.898438 497.03125 1187.09375 500.96875 C 1188.292969 504.90625 1189.390625 508.867188 1190.394531 512.855469 C 1191.398438 516.847656 1192.300781 520.859375 1193.109375 524.894531 C 1193.914062 528.925781 1194.621094 532.980469 1195.226562 537.046875 C 1195.835938 541.117188 1196.34375 545.199219 1196.75 549.292969 C 1197.15625 553.386719 1197.464844 557.488281 1197.671875 561.59375 C 1197.875 565.703125 1197.980469 569.816406 1197.988281 573.929688 C 1198.007812 587.664062 1196.902344 601.3125 1194.664062 614.863281 C 1194.503906 615.847656 1194.257812 616.8125 1193.925781 617.753906 C 1193.59375 618.695312 1193.183594 619.601562 1192.691406 620.46875 C 1192.199219 621.335938 1191.636719 622.15625 1191 622.925781 C 1190.363281 623.695312 1189.667969 624.402344 1188.90625 625.050781 C 1188.144531 625.695312 1187.332031 626.269531 1186.472656 626.773438 C 1185.609375 627.277344 1184.710938 627.703125 1183.773438 628.046875 C 1182.835938 628.390625 1181.878906 628.652344 1180.894531 628.828125 C 1179.914062 629.003906 1178.921875 629.089844 1177.925781 629.089844 Z M 1177.925781 629.089844 " fill-opacity="1" fill-rule="nonzero"/></g><path fill="#339ca7" d="M 749.902344 493.941406 C 688.792969 493.941406 630.699219 480.304688 586.324219 455.542969 C 585.835938 455.269531 585.363281 454.976562 584.90625 454.660156 C 584.453125 454.339844 584.011719 454.003906 583.585938 453.640625 C 583.164062 453.28125 582.757812 452.898438 582.371094 452.5 C 581.984375 452.097656 581.621094 451.679688 581.277344 451.242188 C 580.929688 450.808594 580.609375 450.355469 580.308594 449.886719 C 580.007812 449.417969 579.730469 448.9375 579.476562 448.441406 C 579.222656 447.945312 578.992188 447.441406 578.789062 446.921875 C 578.585938 446.402344 578.410156 445.878906 578.257812 445.34375 C 578.105469 444.808594 577.980469 444.265625 577.882812 443.71875 C 577.78125 443.171875 577.710938 442.617188 577.667969 442.0625 C 577.621094 441.511719 577.605469 440.953125 577.617188 440.398438 C 577.625 439.839844 577.664062 439.289062 577.726562 438.734375 C 577.792969 438.183594 577.882812 437.632812 578.003906 437.089844 C 578.121094 436.546875 578.265625 436.011719 578.4375 435.480469 C 578.609375 434.949219 578.804688 434.429688 579.027344 433.921875 C 579.25 433.410156 579.496094 432.914062 579.765625 432.425781 C 580.039062 431.941406 580.332031 431.46875 580.648438 431.011719 C 580.96875 430.554688 581.304688 430.117188 581.667969 429.691406 C 582.027344 429.269531 582.410156 428.863281 582.808594 428.476562 C 583.210938 428.089844 583.628906 427.726562 584.0625 427.378906 C 584.5 427.035156 584.953125 426.710938 585.421875 426.410156 C 585.890625 426.109375 586.371094 425.832031 586.867188 425.582031 C 587.363281 425.328125 587.867188 425.097656 588.386719 424.894531 C 588.90625 424.691406 589.429688 424.515625 589.964844 424.363281 C 590.5 424.210938 591.042969 424.085938 591.589844 423.988281 C 592.136719 423.886719 592.6875 423.816406 593.242188 423.773438 C 593.796875 423.726562 594.355469 423.710938 594.910156 423.71875 C 595.464844 423.730469 596.019531 423.769531 596.574219 423.832031 C 597.125 423.898438 597.675781 423.988281 598.21875 424.105469 C 598.761719 424.226562 599.296875 424.371094 599.828125 424.542969 C 600.359375 424.710938 600.878906 424.910156 601.386719 425.132812 C 601.898438 425.355469 602.394531 425.601562 602.882812 425.871094 C 642.277344 447.859375 694.492188 459.964844 749.910156 459.964844 C 805.253906 459.964844 857.46875 447.855469 896.9375 425.867188 C 897.425781 425.597656 897.921875 425.351562 898.433594 425.128906 C 898.945312 424.910156 899.464844 424.714844 899.992188 424.542969 C 900.523438 424.375 901.058594 424.230469 901.601562 424.113281 C 902.144531 423.996094 902.691406 423.90625 903.246094 423.839844 C 903.796875 423.777344 904.351562 423.742188 904.90625 423.734375 C 905.464844 423.722656 906.019531 423.742188 906.570312 423.785156 C 907.125 423.832031 907.675781 423.90625 908.222656 424.003906 C 908.769531 424.101562 909.3125 424.230469 909.847656 424.382812 C 910.378906 424.535156 910.90625 424.710938 911.421875 424.917969 C 911.941406 425.121094 912.445312 425.351562 912.941406 425.601562 C 913.4375 425.855469 913.917969 426.132812 914.382812 426.433594 C 914.851562 426.738281 915.304688 427.058594 915.738281 427.40625 C 916.175781 427.75 916.59375 428.117188 916.992188 428.503906 C 917.390625 428.886719 917.773438 429.292969 918.132812 429.71875 C 918.492188 430.140625 918.828125 430.582031 919.148438 431.039062 C 919.464844 431.496094 919.757812 431.964844 920.027344 432.453125 C 920.296875 432.9375 920.542969 433.433594 920.765625 433.945312 C 920.988281 434.453125 921.183594 434.972656 921.355469 435.503906 C 921.523438 436.03125 921.667969 436.566406 921.789062 437.113281 C 921.90625 437.65625 921.996094 438.203125 922.0625 438.753906 C 922.125 439.308594 922.164062 439.859375 922.171875 440.417969 C 922.183594 440.972656 922.164062 441.527344 922.121094 442.082031 C 922.074219 442.636719 922.003906 443.1875 921.90625 443.734375 C 921.808594 444.28125 921.683594 444.820312 921.53125 445.355469 C 921.378906 445.890625 921.199219 446.417969 920.996094 446.933594 C 920.792969 447.453125 920.566406 447.957031 920.3125 448.453125 C 920.058594 448.949219 919.78125 449.429688 919.480469 449.898438 C 919.183594 450.363281 918.859375 450.816406 918.515625 451.253906 C 918.171875 451.6875 917.804688 452.109375 917.417969 452.507812 C 917.035156 452.90625 916.628906 453.289062 916.207031 453.648438 C 915.78125 454.007812 915.34375 454.347656 914.886719 454.667969 C 914.429688 454.984375 913.960938 455.277344 913.472656 455.550781 C 869.023438 480.304688 810.9375 493.941406 749.902344 493.941406 Z M 749.902344 493.941406 " fill-opacity="1" fill-rule="nonzero"/><path fill="#9fc865" d="M 1343.816406 601.03125 C 1343.382812 600.015625 1342.925781 599.011719 1342.441406 598.015625 C 1341.957031 597.023438 1341.453125 596.042969 1340.917969 595.074219 C 1340.386719 594.105469 1339.835938 593.152344 1339.257812 592.210938 C 1338.679688 591.269531 1338.078125 590.34375 1337.453125 589.433594 C 1336.828125 588.519531 1336.183594 587.625 1335.515625 586.746094 C 1334.851562 585.863281 1334.160156 585 1333.453125 584.15625 C 1332.742188 583.308594 1332.011719 582.480469 1331.261719 581.671875 C 1330.511719 580.859375 1329.742188 580.070312 1328.953125 579.296875 C 1328.164062 578.523438 1327.355469 577.769531 1326.53125 577.035156 C 1325.703125 576.304688 1324.859375 575.589844 1324 574.898438 C 1323.140625 574.207031 1322.261719 573.539062 1321.367188 572.890625 C 1320.472656 572.238281 1319.566406 571.613281 1318.640625 571.007812 C 1317.714844 570.40625 1316.777344 569.824219 1315.824219 569.265625 C 1314.871094 568.707031 1313.90625 568.171875 1312.925781 567.660156 C 1311.945312 567.152344 1310.957031 566.664062 1309.953125 566.203125 C 1308.949219 565.738281 1307.9375 565.300781 1306.910156 564.890625 C 1305.886719 564.476562 1304.851562 564.089844 1303.808594 563.726562 C 1302.765625 563.367188 1301.714844 563.03125 1300.65625 562.71875 C 1299.59375 562.410156 1298.527344 562.125 1297.453125 561.867188 C 1296.378906 561.609375 1295.300781 561.378906 1294.214844 561.171875 C 1293.128906 560.96875 1292.042969 560.789062 1290.945312 560.636719 C 1289.851562 560.484375 1288.757812 560.359375 1287.65625 560.261719 C 1286.554688 560.164062 1285.453125 560.09375 1284.351562 560.050781 C 1283.246094 560.003906 1282.144531 559.988281 1281.039062 560 C 1279.933594 560.007812 1278.832031 560.046875 1277.730469 560.109375 C 1276.625 560.175781 1275.527344 560.265625 1274.425781 560.382812 C 1273.328125 560.503906 1272.234375 560.648438 1271.144531 560.820312 C 1270.054688 560.992188 1268.96875 561.1875 1267.886719 561.414062 C 1266.804688 561.640625 1265.730469 561.890625 1264.660156 562.167969 C 1263.589844 562.445312 1262.53125 562.75 1261.476562 563.078125 C 1260.421875 563.410156 1259.375 563.765625 1258.339844 564.144531 C 1257.304688 564.527344 1256.277344 564.933594 1255.261719 565.363281 C 1185.628906 594.921875 1106.777344 617.886719 1020.925781 633.621094 C 988.898438 639.507812 955.769531 644.335938 922.207031 648.042969 L 922.207031 644.402344 C 922.203125 642.828125 922.125 641.253906 921.96875 639.6875 C 921.8125 638.117188 921.582031 636.558594 921.273438 635.015625 C 920.964844 633.46875 920.578125 631.941406 920.121094 630.433594 C 919.664062 628.925781 919.132812 627.445312 918.527344 625.988281 C 917.921875 624.53125 917.25 623.109375 916.503906 621.71875 C 915.761719 620.328125 914.953125 618.980469 914.074219 617.667969 C 913.199219 616.359375 912.261719 615.09375 911.261719 613.875 C 910.261719 612.65625 909.203125 611.492188 908.089844 610.375 C 906.976562 609.261719 905.808594 608.203125 904.589844 607.203125 C 903.371094 606.203125 902.109375 605.265625 900.796875 604.390625 C 899.488281 603.511719 898.136719 602.703125 896.746094 601.960938 C 895.355469 601.214844 893.933594 600.542969 892.476562 599.9375 C 891.023438 599.332031 889.539062 598.800781 888.03125 598.34375 C 886.523438 597.882812 884.996094 597.5 883.449219 597.191406 C 881.90625 596.882812 880.347656 596.652344 878.78125 596.496094 C 877.210938 596.339844 875.636719 596.257812 874.0625 596.257812 L 625.757812 596.257812 C 624.179688 596.257812 622.609375 596.339844 621.039062 596.496094 C 619.46875 596.652344 617.914062 596.882812 616.367188 597.191406 C 614.820312 597.503906 613.292969 597.886719 611.785156 598.34375 C 610.277344 598.804688 608.792969 599.335938 607.335938 599.941406 C 605.882812 600.546875 604.457031 601.21875 603.066406 601.964844 C 601.679688 602.707031 600.328125 603.519531 599.015625 604.394531 C 597.707031 605.273438 596.441406 606.210938 595.222656 607.210938 C 594.003906 608.210938 592.839844 609.269531 591.722656 610.386719 C 590.609375 611.5 589.550781 612.667969 588.550781 613.886719 C 587.550781 615.105469 586.613281 616.371094 585.738281 617.683594 C 584.863281 618.992188 584.050781 620.34375 583.308594 621.734375 C 582.566406 623.125 581.890625 624.546875 581.289062 626.003906 C 580.683594 627.460938 580.15625 628.945312 579.695312 630.453125 C 579.238281 631.960938 578.855469 633.488281 578.546875 635.035156 C 578.238281 636.582031 578.007812 638.140625 577.851562 639.710938 C 577.695312 641.277344 577.617188 642.851562 577.617188 644.429688 L 577.617188 648.066406 C 544.035156 644.363281 510.882812 639.53125 478.820312 633.636719 C 393.09375 617.929688 314.253906 594.964844 244.515625 565.394531 C 243.5 564.964844 242.472656 564.5625 241.4375 564.183594 C 240.402344 563.808594 239.359375 563.453125 238.304688 563.128906 C 237.253906 562.800781 236.191406 562.5 235.125 562.226562 C 234.054688 561.949219 232.980469 561.703125 231.902344 561.480469 C 230.824219 561.257812 229.738281 561.0625 228.648438 560.894531 C 227.558594 560.726562 226.464844 560.582031 225.367188 560.46875 C 224.273438 560.351562 223.175781 560.265625 222.074219 560.203125 C 220.972656 560.140625 219.871094 560.105469 218.769531 560.097656 C 217.664062 560.089844 216.5625 560.109375 215.460938 560.15625 C 214.359375 560.203125 213.261719 560.277344 212.164062 560.375 C 211.0625 560.476562 209.96875 560.605469 208.878906 560.757812 C 207.785156 560.910156 206.699219 561.09375 205.617188 561.300781 C 204.53125 561.507812 203.457031 561.742188 202.382812 562 C 201.3125 562.261719 200.25 562.546875 199.191406 562.859375 C 198.132812 563.171875 197.085938 563.507812 196.042969 563.871094 C 195.003906 564.234375 193.972656 564.625 192.949219 565.039062 C 191.925781 565.453125 190.914062 565.890625 189.914062 566.355469 C 188.914062 566.820312 187.925781 567.304688 186.949219 567.820312 C 185.972656 568.332031 185.011719 568.867188 184.058594 569.425781 C 183.109375 569.984375 182.175781 570.566406 181.253906 571.171875 C 180.332031 571.777344 179.425781 572.40625 178.535156 573.054688 C 177.640625 573.703125 176.769531 574.375 175.910156 575.066406 C 175.050781 575.757812 174.210938 576.472656 173.386719 577.207031 C 172.566406 577.9375 171.761719 578.691406 170.972656 579.464844 C 170.1875 580.238281 169.421875 581.03125 168.671875 581.839844 C 167.925781 582.652344 167.199219 583.480469 166.492188 584.324219 C 165.785156 585.171875 165.097656 586.035156 164.433594 586.914062 C 163.769531 587.792969 163.128906 588.691406 162.507812 589.601562 C 161.886719 590.511719 161.289062 591.4375 160.710938 592.378906 C 160.136719 593.320312 159.585938 594.273438 159.054688 595.242188 C 158.527344 596.207031 158.023438 597.1875 157.542969 598.179688 C 157.0625 599.171875 156.605469 600.175781 156.175781 601.191406 C 155.742188 602.207031 155.335938 603.230469 154.957031 604.265625 C 154.574219 605.300781 154.21875 606.34375 153.886719 607.394531 C 153.558594 608.445312 153.253906 609.503906 152.976562 610.574219 C 152.699219 611.640625 152.445312 612.710938 152.21875 613.792969 C 151.996094 614.871094 151.796875 615.957031 151.621094 617.042969 C 151.449219 618.132812 151.304688 619.226562 151.1875 620.320312 C 151.066406 621.417969 150.972656 622.515625 150.910156 623.617188 C 150.84375 624.71875 150.804688 625.820312 150.792969 626.921875 C 150.785156 628.023438 150.800781 629.125 150.84375 630.226562 C 150.886719 631.328125 150.953125 632.429688 151.050781 633.527344 C 151.148438 634.625 151.269531 635.722656 151.421875 636.8125 C 151.570312 637.90625 151.75 638.996094 151.953125 640.078125 C 152.15625 641.160156 152.386719 642.238281 152.644531 643.3125 C 152.898438 644.382812 153.183594 645.449219 153.492188 646.507812 C 153.800781 647.566406 154.132812 648.617188 154.492188 649.660156 C 154.855469 650.699219 155.238281 651.734375 155.648438 652.757812 C 156.058594 653.78125 156.496094 654.792969 156.957031 655.792969 C 157.417969 656.796875 157.902344 657.785156 158.410156 658.765625 C 158.917969 659.742188 159.453125 660.707031 160.007812 661.660156 C 160.5625 662.613281 161.140625 663.550781 161.746094 664.472656 C 162.347656 665.398438 162.972656 666.304688 163.617188 667.199219 C 164.265625 668.089844 164.933594 668.96875 165.621094 669.828125 C 166.3125 670.6875 167.019531 671.53125 167.753906 672.359375 C 168.484375 673.183594 169.234375 673.992188 170.003906 674.777344 C 170.773438 675.566406 171.5625 676.335938 172.371094 677.085938 C 173.179688 677.835938 174.003906 678.566406 174.847656 679.277344 C 175.691406 679.988281 176.554688 680.675781 177.429688 681.34375 C 178.308594 682.011719 179.203125 682.65625 180.113281 683.28125 C 181.019531 683.902344 181.945312 684.503906 182.882812 685.082031 C 183.820312 685.660156 184.773438 686.214844 185.738281 686.75 C 186.707031 687.28125 187.683594 687.789062 188.675781 688.273438 C 189.664062 688.757812 190.667969 689.214844 191.679688 689.648438 C 270.238281 722.941406 358.652344 748.753906 454.472656 766.375 C 494.558594 773.71875 535.914062 779.59375 577.617188 783.898438 L 577.617188 787.214844 C 577.617188 788.792969 577.699219 790.363281 577.855469 791.933594 C 578.007812 793.5 578.242188 795.058594 578.550781 796.605469 C 578.859375 798.152344 579.242188 799.675781 579.703125 801.1875 C 580.160156 802.695312 580.691406 804.175781 581.296875 805.632812 C 581.898438 807.089844 582.574219 808.511719 583.316406 809.902344 C 584.0625 811.289062 584.871094 812.640625 585.746094 813.953125 C 586.625 815.261719 587.5625 816.527344 588.5625 817.746094 C 589.5625 818.964844 590.621094 820.128906 591.734375 821.246094 C 592.847656 822.359375 594.015625 823.417969 595.234375 824.417969 C 596.453125 825.417969 597.714844 826.355469 599.027344 827.230469 C 600.335938 828.105469 601.6875 828.917969 603.078125 829.660156 C 604.46875 830.40625 605.890625 831.078125 607.347656 831.683594 C 608.800781 832.285156 610.285156 832.816406 611.792969 833.277344 C 613.300781 833.734375 614.828125 834.117188 616.375 834.425781 C 617.917969 834.738281 619.476562 834.96875 621.046875 835.125 C 622.613281 835.28125 624.1875 835.359375 625.761719 835.363281 L 874.046875 835.363281 C 875.621094 835.359375 877.195312 835.28125 878.761719 835.125 C 880.332031 834.96875 881.886719 834.734375 883.433594 834.425781 C 884.980469 834.117188 886.507812 833.734375 888.015625 833.277344 C 889.523438 832.816406 891.003906 832.285156 892.460938 831.683594 C 893.917969 831.078125 895.339844 830.402344 896.730469 829.660156 C 898.121094 828.917969 899.46875 828.105469 900.78125 827.230469 C 902.089844 826.355469 903.355469 825.417969 904.574219 824.414062 C 905.792969 823.414062 906.957031 822.359375 908.074219 821.242188 C 909.1875 820.128906 910.246094 818.960938 911.246094 817.742188 C 912.246094 816.527344 913.183594 815.261719 914.058594 813.949219 C 914.933594 812.640625 915.746094 811.289062 916.488281 809.898438 C 917.230469 808.511719 917.90625 807.085938 918.511719 805.632812 C 919.113281 804.175781 919.644531 802.695312 920.105469 801.183594 C 920.5625 799.675781 920.945312 798.148438 921.253906 796.605469 C 921.5625 795.058594 921.796875 793.5 921.953125 791.933594 C 922.109375 790.363281 922.1875 788.792969 922.1875 787.214844 L 922.1875 783.894531 C 963.984375 779.582031 1005.320312 773.703125 1045.277344 766.371094 C 1141.210938 748.734375 1229.621094 722.917969 1308.074219 689.644531 C 1309.089844 689.207031 1310.09375 688.75 1311.089844 688.265625 C 1312.082031 687.78125 1313.0625 687.273438 1314.03125 686.742188 C 1315 686.210938 1315.953125 685.652344 1316.894531 685.074219 C 1317.835938 684.496094 1318.765625 683.894531 1319.675781 683.269531 C 1320.589844 682.648438 1321.484375 682 1322.363281 681.332031 C 1323.246094 680.664062 1324.109375 679.976562 1324.957031 679.265625 C 1325.800781 678.554688 1326.628906 677.824219 1327.441406 677.074219 C 1328.253906 676.324219 1329.042969 675.554688 1329.816406 674.765625 C 1330.589844 673.976562 1331.34375 673.167969 1332.078125 672.339844 C 1332.8125 671.515625 1333.523438 670.671875 1334.214844 669.808594 C 1334.910156 668.949219 1335.578125 668.070312 1336.230469 667.175781 C 1336.878906 666.28125 1337.503906 665.371094 1338.109375 664.449219 C 1338.714844 663.523438 1339.296875 662.582031 1339.855469 661.628906 C 1340.414062 660.675781 1340.949219 659.710938 1341.460938 658.730469 C 1341.972656 657.75 1342.460938 656.761719 1342.921875 655.757812 C 1343.386719 654.753906 1343.824219 653.738281 1344.238281 652.714844 C 1344.652344 651.691406 1345.039062 650.65625 1345.402344 649.613281 C 1345.765625 648.566406 1346.101562 647.515625 1346.414062 646.457031 C 1346.722656 645.394531 1347.007812 644.328125 1347.269531 643.253906 C 1347.527344 642.179688 1347.757812 641.097656 1347.964844 640.015625 C 1348.171875 638.929688 1348.351562 637.839844 1348.503906 636.742188 C 1348.65625 635.648438 1348.78125 634.550781 1348.882812 633.453125 C 1348.980469 632.351562 1349.054688 631.25 1349.097656 630.144531 C 1349.144531 629.039062 1349.160156 627.9375 1349.152344 626.832031 C 1349.144531 625.726562 1349.105469 624.621094 1349.042969 623.519531 C 1348.980469 622.414062 1348.890625 621.3125 1348.773438 620.214844 C 1348.65625 619.117188 1348.511719 618.019531 1348.34375 616.929688 C 1348.171875 615.835938 1347.976562 614.75 1347.75 613.667969 C 1347.527344 612.585938 1347.277344 611.511719 1347 610.441406 C 1346.726562 609.371094 1346.421875 608.308594 1346.09375 607.253906 C 1345.765625 606.199219 1345.410156 605.152344 1345.03125 604.113281 C 1344.652344 603.074219 1344.246094 602.046875 1343.816406 601.03125 Z M 460.601562 732.949219 C 367.230469 715.789062 281.210938 690.6875 204.96875 658.375 C 203.976562 657.933594 203.003906 657.445312 202.058594 656.910156 C 201.109375 656.375 200.191406 655.792969 199.300781 655.167969 C 198.414062 654.542969 197.554688 653.878906 196.730469 653.167969 C 195.902344 652.460938 195.113281 651.714844 194.363281 650.929688 C 193.609375 650.144531 192.894531 649.324219 192.222656 648.46875 C 191.550781 647.617188 190.921875 646.730469 190.332031 645.816406 C 189.746094 644.898438 189.207031 643.957031 188.710938 642.988281 C 188.214844 642.019531 187.769531 641.03125 187.367188 640.019531 C 186.96875 639.007812 186.621094 637.976562 186.324219 636.933594 C 186.023438 635.886719 185.777344 634.828125 185.582031 633.757812 C 185.382812 632.691406 185.242188 631.613281 185.148438 630.527344 C 185.058594 629.445312 185.019531 628.359375 185.035156 627.273438 C 185.050781 626.183594 185.117188 625.101562 185.238281 624.019531 C 185.355469 622.9375 185.527344 621.867188 185.753906 620.800781 C 185.976562 619.738281 186.253906 618.6875 186.578125 617.648438 C 186.90625 616.613281 187.28125 615.59375 187.707031 614.589844 C 188.132812 613.589844 188.605469 612.613281 189.128906 611.660156 C 189.648438 610.703125 190.214844 609.777344 190.824219 608.875 C 191.4375 607.976562 192.089844 607.109375 192.785156 606.273438 C 193.480469 605.4375 194.214844 604.636719 194.988281 603.871094 C 195.761719 603.105469 196.570312 602.382812 197.414062 601.695312 C 198.257812 601.011719 199.132812 600.367188 200.042969 599.765625 C 200.949219 599.164062 201.882812 598.609375 202.84375 598.097656 C 203.800781 597.589844 204.785156 597.128906 205.792969 596.714844 C 206.796875 596.296875 207.820312 595.933594 208.863281 595.621094 C 209.902344 595.304688 210.957031 595.039062 212.023438 594.828125 C 213.089844 594.617188 214.164062 594.457031 215.246094 594.347656 C 216.328125 594.242188 217.414062 594.1875 218.5 594.183594 C 219.589844 594.183594 220.675781 594.234375 221.757812 594.335938 C 222.839844 594.4375 223.914062 594.59375 224.980469 594.804688 C 226.050781 595.011719 227.105469 595.269531 228.148438 595.582031 C 229.1875 595.890625 230.214844 596.253906 231.222656 596.664062 C 303.28125 627.21875 384.515625 650.902344 472.683594 667.058594 C 506.71875 673.3125 541.945312 678.417969 577.613281 682.261719 L 577.613281 749.734375 C 537.976562 745.558594 498.691406 739.929688 460.601562 732.949219 Z M 874.046875 801.367188 L 625.757812 801.367188 C 624.832031 801.355469 623.914062 801.253906 623.007812 801.066406 C 622.101562 800.878906 621.21875 800.601562 620.363281 800.242188 C 619.511719 799.882812 618.699219 799.445312 617.929688 798.925781 C 617.160156 798.410156 616.449219 797.824219 615.792969 797.167969 C 615.136719 796.515625 614.550781 795.800781 614.03125 795.035156 C 613.515625 794.265625 613.074219 793.453125 612.714844 792.601562 C 612.355469 791.746094 612.078125 790.867188 611.886719 789.960938 C 611.699219 789.050781 611.597656 788.136719 611.585938 787.207031 L 611.585938 644.429688 C 611.597656 643.5 611.695312 642.582031 611.886719 641.675781 C 612.074219 640.769531 612.351562 639.886719 612.710938 639.035156 C 613.070312 638.179688 613.511719 637.367188 614.027344 636.601562 C 614.546875 635.832031 615.132812 635.117188 615.785156 634.464844 C 616.441406 633.808594 617.15625 633.222656 617.921875 632.703125 C 618.691406 632.1875 619.503906 631.746094 620.359375 631.386719 C 621.210938 631.027344 622.09375 630.75 623 630.5625 C 623.90625 630.371094 624.824219 630.269531 625.75 630.257812 L 874.046875 630.257812 C 874.972656 630.269531 875.890625 630.371094 876.796875 630.5625 C 877.703125 630.75 878.585938 631.027344 879.4375 631.386719 C 880.292969 631.746094 881.105469 632.1875 881.871094 632.703125 C 882.640625 633.222656 883.355469 633.808594 884.007812 634.464844 C 884.664062 635.117188 885.25 635.832031 885.769531 636.601562 C 886.285156 637.367188 886.726562 638.179688 887.085938 639.035156 C 887.445312 639.886719 887.71875 640.769531 887.910156 641.675781 C 888.097656 642.582031 888.199219 643.5 888.210938 644.429688 L 888.210938 787.207031 C 888.199219 788.136719 888.097656 789.050781 887.910156 789.960938 C 887.71875 790.867188 887.445312 791.746094 887.085938 792.601562 C 886.722656 793.453125 886.285156 794.265625 885.769531 795.035156 C 885.25 795.804688 884.664062 796.515625 884.007812 797.171875 C 883.351562 797.828125 882.640625 798.414062 881.871094 798.929688 C 881.101562 799.449219 880.292969 799.886719 879.4375 800.246094 C 878.582031 800.609375 877.703125 800.882812 876.796875 801.070312 C 875.890625 801.261719 874.972656 801.363281 874.046875 801.375 Z M 1294.792969 658.363281 C 1218.640625 690.664062 1132.625 715.757812 1039.140625 732.945312 C 1001.167969 739.917969 961.910156 745.546875 922.195312 749.730469 L 922.195312 682.25 C 957.839844 678.402344 993.042969 673.300781 1027.046875 667.050781 C 1115.347656 650.871094 1196.59375 627.183594 1268.546875 596.640625 C 1269.558594 596.210938 1270.589844 595.832031 1271.636719 595.5 C 1272.683594 595.171875 1273.746094 594.894531 1274.820312 594.671875 C 1275.898438 594.445312 1276.980469 594.273438 1278.074219 594.15625 C 1279.164062 594.039062 1280.261719 593.972656 1281.359375 593.960938 C 1282.457031 593.953125 1283.554688 593.996094 1284.648438 594.09375 C 1285.742188 594.1875 1286.828125 594.339844 1287.910156 594.542969 C 1288.988281 594.746094 1290.054688 595.003906 1291.109375 595.3125 C 1292.164062 595.621094 1293.199219 595.980469 1294.21875 596.390625 C 1295.238281 596.800781 1296.234375 597.261719 1297.207031 597.769531 C 1298.183594 598.277344 1299.128906 598.835938 1300.046875 599.4375 C 1300.96875 600.039062 1301.855469 600.683594 1302.710938 601.371094 C 1303.566406 602.058594 1304.386719 602.789062 1305.171875 603.558594 C 1305.957031 604.328125 1306.699219 605.132812 1307.40625 605.976562 C 1308.109375 606.820312 1308.773438 607.695312 1309.390625 608.601562 C 1310.011719 609.507812 1310.582031 610.445312 1311.109375 611.410156 C 1311.636719 612.371094 1312.117188 613.359375 1312.546875 614.371094 C 1312.976562 615.382812 1313.355469 616.410156 1313.683594 617.460938 C 1314.011719 618.507812 1314.289062 619.570312 1314.511719 620.644531 C 1314.738281 621.71875 1314.910156 622.804688 1315.027344 623.894531 C 1315.144531 624.988281 1315.210938 626.085938 1315.21875 627.183594 C 1315.230469 628.28125 1315.1875 629.378906 1315.089844 630.472656 C 1314.992188 631.566406 1314.839844 632.652344 1314.636719 633.730469 C 1314.433594 634.8125 1314.175781 635.878906 1313.867188 636.933594 C 1313.558594 637.988281 1313.195312 639.023438 1312.785156 640.042969 C 1312.375 641.0625 1311.914062 642.058594 1311.40625 643.03125 C 1310.898438 644.003906 1310.339844 644.949219 1309.738281 645.871094 C 1309.136719 646.789062 1308.492188 647.675781 1307.804688 648.53125 C 1307.113281 649.386719 1306.386719 650.207031 1305.617188 650.992188 C 1304.847656 651.773438 1304.039062 652.519531 1303.195312 653.222656 C 1302.355469 653.929688 1301.480469 654.589844 1300.570312 655.210938 C 1299.664062 655.828125 1298.726562 656.402344 1297.761719 656.925781 C 1296.800781 657.453125 1295.8125 657.933594 1294.800781 658.363281 Z M 1294.792969 658.363281 " fill-opacity="1" fill-rule="nonzero"/><path fill="#9fc865" d="M 705.058594 762.792969 C 704.503906 762.792969 703.949219 762.765625 703.394531 762.710938 C 702.839844 762.65625 702.292969 762.574219 701.746094 762.46875 C 701.199219 762.359375 700.660156 762.222656 700.128906 762.0625 C 699.597656 761.902344 699.074219 761.714844 698.558594 761.5 C 698.046875 761.289062 697.542969 761.050781 697.054688 760.789062 C 696.5625 760.527344 696.085938 760.238281 695.625 759.929688 C 695.160156 759.621094 694.714844 759.292969 694.285156 758.9375 C 693.855469 758.585938 693.441406 758.210938 693.050781 757.820312 C 692.65625 757.425781 692.285156 757.015625 691.929688 756.585938 C 691.578125 756.152344 691.246094 755.707031 690.9375 755.246094 C 690.628906 754.78125 690.34375 754.304688 690.082031 753.816406 C 689.820312 753.324219 689.582031 752.824219 689.367188 752.308594 C 689.15625 751.796875 688.96875 751.273438 688.808594 750.738281 C 688.644531 750.207031 688.511719 749.667969 688.402344 749.125 C 688.292969 748.578125 688.210938 748.027344 688.15625 747.472656 C 688.101562 746.921875 688.074219 746.367188 688.074219 745.808594 L 688.074219 685.832031 C 688.074219 685.273438 688.101562 684.71875 688.15625 684.167969 C 688.210938 683.613281 688.292969 683.0625 688.402344 682.519531 C 688.511719 681.972656 688.644531 681.433594 688.808594 680.902344 C 688.96875 680.367188 689.15625 679.847656 689.367188 679.332031 C 689.582031 678.816406 689.820312 678.316406 690.082031 677.824219 C 690.34375 677.335938 690.628906 676.859375 690.9375 676.394531 C 691.246094 675.933594 691.578125 675.488281 691.929688 675.058594 C 692.285156 674.628906 692.65625 674.214844 693.050781 673.820312 C 693.441406 673.429688 693.855469 673.054688 694.285156 672.703125 C 694.714844 672.351562 695.160156 672.019531 695.625 671.710938 C 696.085938 671.402344 696.5625 671.117188 697.054688 670.851562 C 697.542969 670.589844 698.046875 670.351562 698.558594 670.140625 C 699.074219 669.925781 699.597656 669.742188 700.128906 669.578125 C 700.660156 669.417969 701.199219 669.28125 701.746094 669.175781 C 702.292969 669.066406 702.839844 668.984375 703.394531 668.929688 C 703.949219 668.875 704.503906 668.847656 705.058594 668.847656 C 705.617188 668.847656 706.171875 668.875 706.722656 668.929688 C 707.277344 668.984375 707.828125 669.066406 708.371094 669.175781 C 708.917969 669.28125 709.457031 669.417969 709.988281 669.578125 C 710.519531 669.742188 711.042969 669.925781 711.558594 670.140625 C 712.070312 670.351562 712.574219 670.589844 713.066406 670.851562 C 713.554688 671.117188 714.03125 671.402344 714.496094 671.710938 C 714.957031 672.019531 715.402344 672.351562 715.832031 672.703125 C 716.261719 673.054688 716.675781 673.429688 717.066406 673.820312 C 717.460938 674.214844 717.835938 674.628906 718.1875 675.058594 C 718.539062 675.488281 718.871094 675.933594 719.179688 676.394531 C 719.488281 676.859375 719.773438 677.335938 720.039062 677.824219 C 720.300781 678.316406 720.535156 678.816406 720.75 679.332031 C 720.960938 679.847656 721.148438 680.367188 721.3125 680.902344 C 721.472656 681.433594 721.609375 681.972656 721.714844 682.519531 C 721.824219 683.0625 721.90625 683.613281 721.960938 684.167969 C 722.015625 684.71875 722.042969 685.273438 722.042969 685.832031 L 722.042969 745.804688 C 722.042969 746.359375 722.015625 746.917969 721.960938 747.46875 C 721.90625 748.023438 721.824219 748.574219 721.71875 749.117188 C 721.609375 749.664062 721.472656 750.203125 721.3125 750.734375 C 721.152344 751.269531 720.964844 751.792969 720.75 752.304688 C 720.539062 752.820312 720.300781 753.320312 720.039062 753.8125 C 719.777344 754.304688 719.492188 754.78125 719.183594 755.242188 C 718.875 755.707031 718.542969 756.152344 718.1875 756.582031 C 717.835938 757.011719 717.464844 757.425781 717.070312 757.816406 C 716.675781 758.210938 716.265625 758.585938 715.835938 758.9375 C 715.40625 759.289062 714.957031 759.621094 714.496094 759.929688 C 714.035156 760.238281 713.558594 760.523438 713.066406 760.789062 C 712.574219 761.050781 712.074219 761.289062 711.558594 761.5 C 711.046875 761.714844 710.523438 761.898438 709.988281 762.0625 C 709.457031 762.222656 708.917969 762.359375 708.371094 762.46875 C 707.828125 762.574219 707.277344 762.65625 706.722656 762.710938 C 706.171875 762.765625 705.617188 762.792969 705.058594 762.792969 Z M 705.058594 762.792969 " fill-opacity="1" fill-rule="nonzero"/><path fill="#9fc865" d="M 794.675781 762.792969 C 794.121094 762.792969 793.566406 762.765625 793.011719 762.710938 C 792.457031 762.65625 791.910156 762.574219 791.363281 762.46875 C 790.816406 762.359375 790.277344 762.222656 789.746094 762.0625 C 789.214844 761.902344 788.691406 761.714844 788.175781 761.5 C 787.664062 761.289062 787.160156 761.050781 786.671875 760.789062 C 786.179688 760.527344 785.703125 760.238281 785.242188 759.929688 C 784.777344 759.621094 784.332031 759.292969 783.902344 758.9375 C 783.472656 758.585938 783.058594 758.210938 782.667969 757.820312 C 782.273438 757.425781 781.902344 757.015625 781.546875 756.585938 C 781.195312 756.152344 780.863281 755.707031 780.554688 755.246094 C 780.246094 754.78125 779.960938 754.304688 779.699219 753.816406 C 779.4375 753.324219 779.199219 752.824219 778.984375 752.308594 C 778.773438 751.796875 778.585938 751.273438 778.425781 750.738281 C 778.261719 750.207031 778.128906 749.667969 778.019531 749.125 C 777.910156 748.578125 777.828125 748.027344 777.773438 747.472656 C 777.71875 746.921875 777.691406 746.367188 777.691406 745.808594 L 777.691406 685.832031 C 777.691406 685.273438 777.71875 684.71875 777.773438 684.167969 C 777.828125 683.613281 777.910156 683.0625 778.019531 682.519531 C 778.128906 681.972656 778.261719 681.433594 778.425781 680.902344 C 778.585938 680.367188 778.773438 679.847656 778.984375 679.332031 C 779.199219 678.816406 779.4375 678.316406 779.699219 677.824219 C 779.960938 677.335938 780.246094 676.859375 780.554688 676.394531 C 780.863281 675.933594 781.195312 675.488281 781.546875 675.058594 C 781.902344 674.628906 782.273438 674.214844 782.667969 673.820312 C 783.058594 673.429688 783.472656 673.054688 783.902344 672.703125 C 784.332031 672.351562 784.777344 672.019531 785.242188 671.710938 C 785.703125 671.402344 786.179688 671.117188 786.671875 670.851562 C 787.160156 670.589844 787.664062 670.351562 788.175781 670.140625 C 788.691406 669.925781 789.214844 669.742188 789.746094 669.578125 C 790.277344 669.417969 790.816406 669.28125 791.363281 669.175781 C 791.910156 669.066406 792.457031 668.984375 793.011719 668.929688 C 793.566406 668.875 794.121094 668.847656 794.675781 668.847656 C 795.234375 668.847656 795.789062 668.875 796.339844 668.929688 C 796.894531 668.984375 797.445312 669.066406 797.988281 669.175781 C 798.535156 669.28125 799.074219 669.417969 799.605469 669.578125 C 800.140625 669.742188 800.660156 669.925781 801.175781 670.140625 C 801.691406 670.351562 802.191406 670.589844 802.683594 670.851562 C 803.171875 671.117188 803.648438 671.402344 804.113281 671.710938 C 804.574219 672.019531 805.019531 672.351562 805.449219 672.703125 C 805.878906 673.054688 806.292969 673.429688 806.6875 673.820312 C 807.078125 674.214844 807.453125 674.628906 807.804688 675.058594 C 808.15625 675.488281 808.488281 675.933594 808.796875 676.394531 C 809.105469 676.859375 809.390625 677.335938 809.65625 677.824219 C 809.917969 678.316406 810.152344 678.816406 810.367188 679.332031 C 810.578125 679.847656 810.765625 680.367188 810.929688 680.902344 C 811.089844 681.433594 811.226562 681.972656 811.332031 682.519531 C 811.441406 683.0625 811.523438 683.613281 811.578125 684.167969 C 811.632812 684.71875 811.660156 685.273438 811.660156 685.832031 L 811.660156 745.804688 C 811.660156 746.359375 811.632812 746.917969 811.578125 747.46875 C 811.523438 748.023438 811.441406 748.574219 811.335938 749.117188 C 811.226562 749.664062 811.089844 750.203125 810.929688 750.734375 C 810.769531 751.269531 810.582031 751.792969 810.367188 752.304688 C 810.15625 752.820312 809.917969 753.320312 809.65625 753.8125 C 809.394531 754.304688 809.109375 754.78125 808.800781 755.242188 C 808.492188 755.707031 808.160156 756.152344 807.808594 756.582031 C 807.453125 757.011719 807.082031 757.425781 806.6875 757.816406 C 806.292969 758.210938 805.882812 758.585938 805.453125 758.9375 C 805.023438 759.289062 804.574219 759.621094 804.113281 759.929688 C 803.652344 760.238281 803.175781 760.523438 802.683594 760.789062 C 802.191406 761.050781 801.691406 761.289062 801.175781 761.5 C 800.664062 761.714844 800.140625 761.898438 799.605469 762.0625 C 799.074219 762.222656 798.535156 762.359375 797.992188 762.46875 C 797.445312 762.574219 796.894531 762.65625 796.339844 762.710938 C 795.789062 762.765625 795.234375 762.792969 794.675781 762.792969 Z M 794.675781 762.792969 " fill-opacity="1" fill-rule="nonzero"/></svg>