<svg xmlns="http://www.w3.org/2000/svg" xmlns:xlink="http://www.w3.org/1999/xlink" width="2000" zoomAndPan="magnify" viewBox="0 0 1500 1499.999933" height="2000" preserveAspectRatio="xMidYMid meet" version="1.0"><defs><clipPath id="fe16afa549"><path d="M 255.425781 196 L 1244.675781 196 L 1244.675781 1304.351562 L 255.425781 1304.351562 Z M 255.425781 196 " clip-rule="nonzero"/></clipPath></defs><g clip-path="url(#fe16afa549)"><path fill="#339ca7" d="M 1038.367188 769.832031 C 1023.515625 794.574219 1006.085938 813.570312 1001.582031 844.257812 C 995.285156 887.0625 1003.152344 914.738281 1011.273438 942.867188 C 1018.078125 966.75 1024.957031 990.78125 1024.757812 1024.25 C 1024.324219 1082.765625 1007.90625 1136.269531 974.136719 1183.527344 C 940.996094 1229.769531 868.214844 1210.695312 862.117188 1154.128906 C 854.300781 1081.777344 830.644531 1015.523438 778.429688 969.328125 C 762.011719 954.785156 737.421875 954.785156 720.929688 969.328125 C 668.789062 1015.523438 645.0625 1081.777344 637.320312 1154.128906 C 631.222656 1210.722656 558.367188 1229.796875 525.300781 1183.527344 C 491.527344 1136.269531 475.109375 1082.765625 474.679688 1024.25 C 474.402344 990.757812 481.359375 966.75 488.164062 942.867188 C 496.183594 914.761719 504.152344 887.085938 497.851562 844.257812 C 493.324219 813.570312 475.921875 794.574219 461.070312 769.882812 C 410.652344 781.921875 365.117188 813.773438 345.054688 860.800781 C 342.625 866.546875 337.035156 869.984375 331.140625 869.984375 L 331.140625 870.0625 L 255.347656 870.0625 L 255.347656 1304.121094 L 1244.441406 1304.121094 L 1244.441406 870.085938 L 1168.726562 870.085938 C 1162.125 870.085938 1156.457031 865.785156 1154.382812 859.890625 C 1144.492188 837.148438 1128.199219 817.214844 1107.328125 801.582031 C 1087.847656 786.90625 1064.320312 775.929688 1038.367188 769.832031 Z M 651.488281 612.074219 C 658.644531 616.375 661.023438 625.710938 656.648438 632.871094 C 652.347656 640.027344 643.011719 642.332031 635.851562 638.03125 C 614.351562 625.050781 594.617188 607.976562 578.703125 588.546875 C 573.390625 582.097656 574.328125 572.484375 580.855469 567.171875 C 587.304688 561.859375 596.84375 562.871094 602.15625 569.320312 C 616.195312 586.472656 632.539062 600.664062 651.488281 612.074219 Z M 808.738281 629.933594 C 816.707031 627.355469 825.230469 631.730469 827.8125 639.625 C 830.46875 647.59375 826.09375 656.195312 818.125 658.773438 C 778.101562 671.75 735.449219 673.042969 694.722656 662.644531 C 686.625 660.570312 681.742188 652.324219 683.816406 644.277344 C 685.890625 636.183594 694.0625 631.300781 702.183594 633.300781 C 737.09375 642.28125 774.535156 641.039062 808.738281 629.933594 Z M 897.152344 569.347656 C 902.464844 562.894531 912.003906 561.882812 918.53125 567.195312 C 924.980469 572.507812 925.992188 582.121094 920.679688 588.574219 C 906.488281 605.851562 889.414062 621.28125 870.617188 633.527344 C 863.660156 638.105469 854.273438 636.183594 849.667969 629.152344 C 845.089844 622.117188 847.011719 612.730469 854.046875 608.128906 C 870.339844 597.527344 884.832031 584.398438 897.152344 569.347656 Z M 963.054688 505.875 C 959.691406 518.648438 955.085938 530.96875 949.496094 542.960938 C 945.902344 550.5 936.871094 553.710938 929.332031 550.195312 C 921.742188 546.605469 918.503906 537.574219 922.097656 529.984375 C 928.828125 515.714844 933.785156 500.511719 936.796875 484.878906 C 908.691406 466.308594 872.816406 455.125 843.34375 472.175781 C 824.070312 483.285156 805.90625 489.53125 783.820312 492.542969 C 740.359375 498.488281 694.695312 494.539062 655.890625 472.175781 C 626.417969 455.101562 590.570312 466.308594 562.4375 484.878906 C 565.449219 500.511719 570.457031 515.714844 577.210938 529.984375 C 580.804688 537.574219 577.492188 546.628906 569.976562 550.195312 C 562.386719 553.710938 553.40625 550.472656 549.816406 542.960938 C 544.148438 530.996094 539.644531 518.648438 536.179688 505.875 C 486.925781 552.496094 455.582031 625.632812 465.828125 695.40625 C 475.945312 764.242188 518.597656 778.304688 527.703125 839.90625 C 535.015625 889.109375 526.136719 920 517.230469 951.191406 C 510.933594 973.125 504.609375 995.285156 504.835938 1024.125 C 505.191406 1076.464844 519.609375 1123.722656 549.867188 1165.96875 C 566.789062 1189.625 603.925781 1179.808594 607.089844 1150.917969 C 615.691406 1070.953125 642.808594 998.042969 700.816406 946.765625 C 728.847656 921.871094 770.3125 921.871094 798.417969 946.765625 C 856.425781 998.042969 883.542969 1070.976562 892.144531 1150.917969 C 895.230469 1179.808594 932.445312 1189.648438 949.367188 1165.96875 C 979.625 1123.722656 994.042969 1076.464844 994.398438 1024.125 C 994.601562 995.285156 988.300781 973.148438 982.003906 951.191406 C 973.046875 920 964.21875 889.085938 971.453125 839.90625 C 980.5625 778.304688 1023.238281 764.242188 1033.332031 695.40625 C 1043.679688 625.632812 1012.410156 552.496094 963.054688 505.875 Z M 764.847656 345.183594 L 764.847656 484.726562 C 754.726562 485.382812 744.558594 485.433594 734.515625 484.800781 L 734.515625 345.183594 Z M 795.609375 234.882812 C 796.039062 229.066406 800.0625 210.21875 800.0625 205.613281 C 800.0625 200.097656 795.609375 196.078125 790.320312 196.078125 L 707.570312 196.152344 C 702.132812 197.011719 698.464844 201.894531 699.402344 207.410156 L 720.195312 337.566406 L 779.214844 337.566406 Z M 925.765625 288.238281 L 925.765625 251.226562 L 823.636719 251.226562 L 817.695312 288.238281 Z M 1187.875 234.101562 L 956.097656 234.101562 L 956.097656 305.3125 L 1187.875 305.3125 C 1218.992188 305.3125 1235.636719 267.238281 1212.972656 244.574219 C 1206.519531 238.097656 1197.617188 234.101562 1187.875 234.101562 Z M 1187.875 234.101562 " fill-opacity="1" fill-rule="nonzero"/></g><path fill="#9fc865" d="M 538.683594 505.164062 C 542.046875 517.789062 546.578125 530.058594 552.167969 541.871094 C 555.101562 548.121094 562.640625 550.828125 568.941406 547.894531 C 575.238281 544.882812 577.894531 537.34375 574.960938 531.121094 C 568.078125 516.574219 563.046875 501.144531 560.035156 485.382812 L 559.679688 483.664062 L 561.125 482.726562 C 575.238281 473.390625 591.53125 465.800781 608.226562 462.714844 C 625.226562 459.554688 642.074219 461.199219 657.203125 469.953125 C 695.277344 491.960938 740.535156 495.90625 783.492188 490.039062 C 805.070312 487.101562 823.285156 480.855469 842.15625 469.953125 C 857.207031 461.199219 874.132812 459.554688 891.058594 462.714844 C 907.828125 465.800781 924.046875 473.390625 938.238281 482.726562 L 939.605469 483.664062 L 939.324219 485.382812 C 936.238281 501.167969 931.230469 516.574219 924.398438 531.121094 C 921.390625 537.371094 924.121094 544.882812 930.421875 547.894531 C 936.667969 550.828125 944.183594 548.121094 947.191406 541.871094 C 952.785156 530.035156 957.234375 517.789062 960.601562 505.164062 L 961.738281 501.066406 L 964.824219 504.003906 C 990.199219 528.035156 1010.285156 558.417969 1022.910156 591.050781 C 1035.734375 624.191406 1041.046875 660.46875 1035.886719 695.757812 C 1033.660156 711.039062 1029.589844 725.460938 1023.0625 739.421875 C 1017.75 750.832031 1011.144531 761.230469 1004.1875 771.753906 C 997.664062 781.644531 991.136719 791.488281 985.898438 802.164062 C 979.878906 814.355469 976.007812 826.75 973.984375 840.234375 C 970.972656 860.878906 970.316406 881.242188 973.199219 901.910156 C 975.425781 918.609375 979.800781 934.394531 984.457031 950.457031 C 987.695312 961.792969 990.832031 973.050781 993.132812 984.585938 C 995.714844 997.636719 997.082031 1010.769531 996.929688 1024.175781 C 996.574219 1076.667969 982.078125 1124.582031 951.46875 1167.386719 C 933.179688 1192.988281 893.03125 1182.363281 889.664062 1151.171875 C 881.417969 1074.59375 855.664062 1000.722656 796.722656 948.585938 C 769.601562 924.628906 729.605469 924.628906 702.488281 948.585938 C 643.542969 1000.722656 617.867188 1074.570312 609.621094 1151.171875 C 606.253906 1182.363281 566.082031 1192.988281 547.816406 1167.386719 C 517.128906 1124.582031 502.710938 1076.667969 502.28125 1024.175781 C 502.203125 1010.769531 503.496094 997.714844 506.152344 984.585938 C 508.378906 973.050781 511.589844 961.792969 514.828125 950.457031 C 519.40625 934.394531 523.785156 918.609375 526.085938 901.910156 C 528.894531 881.269531 528.3125 860.902344 525.226562 840.234375 C 523.277344 826.75 519.40625 814.355469 513.386719 802.164062 C 508.148438 791.488281 501.621094 781.644531 495.097656 771.753906 C 488.140625 761.203125 481.535156 750.808594 476.222656 739.421875 C 469.695312 725.433594 465.597656 711.015625 463.320312 695.757812 C 458.160156 660.46875 463.523438 624.191406 476.375 591.050781 C 488.921875 558.417969 509.085938 528.011719 534.460938 504.003906 L 537.546875 501.066406 Z M 650.195312 614.226562 C 631.046875 602.6875 614.351562 588.269531 600.207031 570.992188 C 595.832031 565.550781 587.8125 564.742188 582.421875 569.195312 C 577.035156 573.570312 576.25 581.539062 580.628906 586.980469 C 596.414062 606.207031 615.84375 623.054688 637.144531 635.878906 C 643.089844 639.472656 650.90625 637.523438 654.496094 631.578125 C 658.089844 625.632812 656.140625 617.816406 650.195312 614.226562 Z M 809.523438 632.3125 C 774.890625 643.644531 736.890625 644.785156 701.527344 635.828125 C 694.847656 634.109375 687.964844 638.207031 686.246094 644.859375 C 684.527344 651.589844 688.625 658.496094 695.351562 660.214844 C 735.449219 670.460938 777.976562 669.171875 817.339844 656.34375 C 823.941406 654.195312 827.585938 647.085938 825.433594 640.433594 C 823.308594 633.804688 816.199219 630.164062 809.523438 632.3125 Z M 899.101562 570.992188 C 886.628906 586.195312 871.933594 599.449219 855.4375 610.277344 C 849.621094 614.074219 847.976562 621.890625 851.769531 627.707031 C 855.5625 633.578125 863.457031 635.246094 869.277344 631.375 C 887.84375 619.257812 904.691406 604.128906 918.683594 586.980469 C 923.136719 581.539062 922.351562 573.570312 916.886719 569.195312 C 911.496094 564.742188 903.554688 565.550781 899.101562 570.992188 Z M 899.101562 570.992188 " fill-opacity="1" fill-rule="evenodd"/></svg>