<svg xmlns="http://www.w3.org/2000/svg" xmlns:xlink="http://www.w3.org/1999/xlink" width="2000" zoomAndPan="magnify" viewBox="0 0 1500 1499.999933" height="2000" preserveAspectRatio="xMidYMid meet" version="1.0"><defs><clipPath id="bc06fa7c8e"><path d="M 265.886719 150 L 1234.132812 150 L 1234.132812 678 L 265.886719 678 Z M 265.886719 150 " clip-rule="nonzero"/></clipPath></defs><path fill="#339ca7" d="M 750.035156 979.8125 C 679.839844 979.8125 622.707031 1036.875 622.707031 1107.003906 L 622.707031 1314.222656 C 584.207031 1317.453125 544.46875 1299.164062 511.808594 1262.65625 C 463.066406 1208.136719 446.632812 1133.472656 432.195312 1067.675781 C 421.195312 1017.761719 410.882812 970.667969 388.058594 936.015625 C 383.792969 929.417969 379.53125 923.023438 375.335938 916.695312 C 371.554688 910.921875 367.773438 905.285156 364.132812 899.785156 L 1135.804688 899.785156 C 1131.75 905.972656 1127.554688 912.226562 1123.289062 918.691406 C 1119.507812 924.328125 1115.726562 930.105469 1111.878906 935.949219 C 1089.121094 970.667969 1078.738281 1017.761719 1067.808594 1067.609375 C 1053.300781 1133.472656 1036.871094 1208.136719 988.125 1262.65625 C 955.535156 1299.164062 915.796875 1317.453125 877.226562 1314.222656 L 877.296875 1107.003906 C 877.296875 1036.875 820.164062 979.8125 750.035156 979.8125 Z M 549.28125 794.730469 C 554.917969 780.566406 567.363281 772.113281 582.625 772.113281 L 917.378906 772.113281 C 932.640625 772.113281 945.085938 780.566406 950.722656 794.730469 L 978.636719 865.820312 L 521.367188 865.820312 Z M 856.667969 1345.367188 C 911.535156 1357.328125 968.667969 1335.398438 1013.492188 1285.277344 C 1068.152344 1224.085938 1085.546875 1144.886719 1100.949219 1074.894531 C 1111.261719 1028.210938 1120.953125 984.074219 1140.273438 954.648438 C 1144.054688 948.804688 1147.835938 943.097656 1151.617188 937.460938 C 1162.066406 921.648438 1171.964844 906.796875 1181.25 891.671875 C 1184.480469 886.445312 1184.617188 879.847656 1181.59375 874.484375 C 1178.566406 869.121094 1172.929688 865.820312 1166.808594 865.820312 L 1015.144531 865.820312 L 982.28125 782.285156 C 971.554688 755.0625 946.664062 738.148438 917.378906 738.148438 L 582.625 738.148438 C 553.335938 738.148438 528.449219 755.0625 517.722656 782.355469 L 484.859375 865.820312 L 333.195312 865.820312 C 327.074219 865.820312 321.4375 869.121094 318.410156 874.484375 C 315.386719 879.847656 315.523438 886.445312 318.753906 891.671875 C 327.621094 906.109375 337.042969 920.339844 347.011719 935.464844 C 351.207031 941.722656 355.398438 948.046875 359.664062 954.648438 C 379.050781 984.074219 388.742188 1028.210938 398.988281 1074.964844 C 414.386719 1144.886719 431.785156 1224.15625 486.507812 1285.277344 C 523.292969 1326.457031 568.394531 1348.527344 613.703125 1348.527344 C 623.601562 1348.527344 633.5 1347.496094 643.332031 1345.367188 C 651.167969 1343.714844 656.671875 1336.773438 656.671875 1328.796875 L 656.671875 1107.003906 C 656.671875 1055.574219 698.542969 1013.773438 749.96875 1013.773438 C 801.460938 1013.773438 843.332031 1055.574219 843.332031 1107.003906 L 843.332031 1328.796875 C 843.332031 1336.773438 848.832031 1343.714844 856.667969 1345.367188 Z M 856.667969 1345.367188 " fill-opacity="1" fill-rule="evenodd"/><g clip-path="url(#bc06fa7c8e)"><path fill="#9fc865" d="M 1119.441406 643.75 L 380.5625 643.75 C 355.332031 643.75 333.8125 630.070312 323.085938 607.105469 C 306.722656 572.042969 299.367188 538.765625 299.917969 502.464844 C 301.359375 387.238281 337.523438 249.597656 415.144531 201.953125 C 434.191406 190.261719 455.226562 184.417969 478.257812 184.417969 C 504.453125 184.417969 533.191406 191.980469 564.0625 207.175781 L 564.128906 207.175781 C 571.96875 211.09375 580.011719 214.671875 588.125 217.96875 C 641.339844 246.089844 705.898438 292.015625 780.082031 354.71875 C 783.3125 357.398438 787.160156 358.707031 791.011719 358.707031 C 795.894531 358.707031 800.636719 356.644531 804.007812 352.65625 C 810.054688 345.503906 809.164062 334.78125 802.011719 328.730469 C 764.402344 297.035156 729.136719 269.464844 696.410156 246.089844 C 777.949219 256.128906 862.582031 243.203125 935.804688 207.175781 C 993.898438 178.714844 1044.019531 176.925781 1084.789062 201.953125 C 1162.339844 249.527344 1198.574219 387.167969 1200.15625 502.464844 C 1200.566406 538.765625 1193.210938 572.042969 1176.847656 607.105469 C 1166.125 630.070312 1144.671875 643.75 1119.441406 643.75 Z M 1207.582031 621.476562 C 1226.210938 581.601562 1234.601562 543.648438 1234.117188 501.984375 C 1232.539062 386.550781 1197.199219 231.101562 1102.527344 173.007812 C 1051.238281 141.449219 990.046875 142.757812 920.816406 176.71875 C 815.488281 228.421875 684.515625 228.421875 579.050781 176.71875 C 509.816406 142.6875 448.695312 141.449219 397.339844 173.007812 C 302.738281 231.171875 267.398438 386.621094 265.882812 501.984375 C 265.335938 543.578125 273.722656 581.601562 292.355469 621.542969 C 308.785156 656.675781 341.785156 677.714844 380.5625 677.714844 L 1119.441406 677.714844 C 1158.21875 677.714844 1191.21875 656.675781 1207.582031 621.476562 Z M 1207.582031 621.476562 " fill-opacity="1" fill-rule="evenodd"/></g></svg>