<svg xmlns="http://www.w3.org/2000/svg" xmlns:xlink="http://www.w3.org/1999/xlink" width="2000" zoomAndPan="magnify" viewBox="0 0 1500 1499.999933" height="2000" preserveAspectRatio="xMidYMid meet" version="1.0"><defs><clipPath id="e4e4f38f9b"><path d="M 142.375 306 L 1357.375 306 L 1357.375 1194 L 142.375 1194 Z M 142.375 306 " clip-rule="nonzero"/></clipPath></defs><path fill="#9fc865" d="M 249.292969 632.054688 C 247.214844 632.054688 245.160156 631.367188 243.5 630.117188 L 181.269531 583.34375 C 159.933594 567.304688 147.199219 541.796875 147.199219 515.105469 L 147.199219 466.890625 C 147.199219 436.328125 167.800781 409.40625 197.300781 401.417969 L 508.585938 317.128906 C 523.714844 313.03125 539.335938 310.957031 555.019531 310.957031 C 578.113281 310.957031 600.371094 315.351562 621.175781 324.019531 C 648.695312 337.210938 696.839844 345.082031 750.011719 345.082031 C 803.136719 345.078125 851.269531 337.207031 878.820312 324.019531 C 899.625 315.351562 921.882812 310.957031 944.976562 310.957031 C 960.660156 310.957031 976.28125 313.035156 991.414062 317.128906 L 1302.699219 401.417969 C 1332.195312 409.40625 1352.800781 436.328125 1352.800781 466.890625 L 1352.800781 515.105469 C 1352.800781 541.796875 1340.0625 567.304688 1318.726562 583.34375 L 1256.5 630.117188 C 1254.816406 631.382812 1252.8125 632.050781 1250.699219 632.050781 C 1249.417969 632.050781 1248.171875 631.804688 1246.992188 631.3125 C 1243.847656 630 1241.609375 627.089844 1241.148438 623.714844 C 1233.621094 568.597656 1185.898438 527.03125 1130.148438 527.03125 C 1129.929688 527.023438 1129.59375 527.023438 1129.257812 527.023438 C 1116.738281 527.023438 1104.535156 532.722656 1095.777344 542.664062 C 1087.070312 552.546875 1082.972656 565.292969 1084.539062 577.632812 L 1087.769531 609.917969 C 1088.0625 612.550781 1087.316406 615.085938 1085.683594 617.105469 C 1084.046875 619.128906 1081.726562 620.378906 1079.148438 620.636719 C 1078.808594 620.671875 1078.480469 620.6875 1078.152344 620.6875 C 1073.191406 620.6875 1069.082031 616.949219 1068.589844 611.996094 C 1062.304688 548.808594 1009.675781 501.160156 946.171875 501.160156 C 945.871094 501.152344 945.457031 501.148438 945.042969 501.148438 C 929.175781 501.148438 913.574219 508.257812 902.234375 520.652344 C 890.945312 532.992188 885.273438 549.09375 886.675781 564.824219 L 888.574219 593.351562 C 888.925781 598.597656 885.097656 603.09375 879.863281 603.59375 C 879.570312 603.621094 879.265625 603.636719 878.964844 603.636719 C 874.097656 603.636719 869.976562 600 869.378906 595.175781 C 858.402344 522.78125 801.726562 490.433594 750.414062 490.433594 C 697.347656 490.433594 637.105469 525.496094 630.222656 602.476562 C 629.527344 609.128906 624.859375 611.523438 620.726562 611.523438 C 617.863281 611.523438 615.191406 610.417969 613.398438 608.492188 C 611.578125 606.539062 610.777344 603.90625 611.007812 600.667969 L 613.332031 564.726562 C 614.71875 549.085938 609.042969 532.972656 597.746094 520.628906 C 586.417969 508.25 570.816406 501.148438 554.949219 501.148438 C 554.539062 501.148438 554.128906 501.152344 553.714844 501.160156 C 490.316406 501.160156 437.691406 548.8125 431.410156 612 C 430.914062 616.953125 426.808594 620.6875 421.859375 620.6875 C 421.53125 620.6875 421.199219 620.671875 420.867188 620.636719 C 418.277344 620.378906 415.957031 619.128906 414.320312 617.113281 C 412.683594 615.089844 411.9375 612.554688 412.222656 609.972656 L 415.46875 577.527344 C 416.796875 564.460938 412.683594 551.894531 403.882812 542.152344 C 395.074219 532.402344 382.988281 527.03125 369.847656 527.03125 C 314.097656 527.03125 266.378906 568.597656 258.847656 623.714844 C 258.390625 627.089844 256.152344 630 253.007812 631.3125 C 251.824219 631.804688 250.574219 632.054688 249.292969 632.054688 Z M 249.292969 632.054688 " fill-opacity="1" fill-rule="nonzero"/><path fill="#9fc865" d="M 555.023438 1189.039062 C 539.34375 1189.039062 523.71875 1186.960938 508.585938 1182.863281 L 197.300781 1098.574219 C 167.800781 1090.585938 147.199219 1063.664062 147.199219 1033.101562 L 147.199219 984.886719 C 147.199219 958.195312 159.933594 932.6875 181.269531 916.648438 L 243.5 869.875 C 245.492188 868.265625 247.550781 867.953125 248.953125 867.953125 C 253.324219 867.953125 258.339844 871.0625 258.828125 876.089844 C 266.378906 931.398438 314.097656 972.960938 369.847656 972.960938 C 370.070312 972.96875 370.40625 972.972656 370.742188 972.972656 C 383.261719 972.96875 395.464844 967.265625 404.226562 957.324219 C 412.929688 947.441406 417.023438 934.699219 415.460938 922.363281 L 412.230469 890.074219 C 411.9375 887.441406 412.679688 884.90625 414.316406 882.886719 C 415.953125 880.867188 418.273438 879.613281 420.851562 879.355469 C 421.210938 879.320312 421.542969 879.304688 421.875 879.304688 C 426.820312 879.304688 430.917969 883.042969 431.410156 887.996094 C 437.695312 951.183594 490.320312 998.832031 553.824219 998.832031 C 554.128906 998.839844 554.542969 998.847656 554.957031 998.847656 C 570.824219 998.847656 586.429688 991.734375 597.765625 979.339844 C 609.054688 967 614.726562 950.898438 613.320312 935.167969 L 610.96875 898.644531 C 610.886719 895.679688 611.75 893.175781 613.535156 891.339844 C 615.304688 889.519531 617.910156 888.476562 620.679688 888.476562 C 624.878906 888.476562 629.59375 890.859375 630.226562 897.542969 C 634.09375 960.628906 686.757812 1010.167969 750.109375 1010.164062 C 810.695312 1010.164062 861.953125 964.875 869.378906 904.820312 C 869.976562 899.996094 874.101562 896.359375 878.96875 896.359375 C 879.269531 896.359375 879.570312 896.375 879.875 896.402344 C 885.097656 896.898438 888.925781 901.398438 888.574219 906.640625 L 886.667969 935.289062 C 885.574219 951.921875 891.25 967.785156 902.648438 979.957031 C 914.046875 992.128906 929.503906 998.832031 946.171875 998.832031 C 1009.675781 998.832031 1062.304688 951.183594 1068.589844 888 C 1069.082031 883.042969 1073.195312 879.308594 1078.160156 879.308594 C 1078.484375 879.308594 1078.8125 879.324219 1079.144531 879.355469 C 1084.4375 879.886719 1088.3125 884.617188 1087.785156 889.90625 C 1087.785156 889.90625 1087.023438 897.550781 1086.355469 904.195312 C 1084.996094 917.71875 1084.632812 921.347656 1084.539062 922.480469 L 1084.542969 922.34375 C 1082.988281 934.722656 1087.09375 947.492188 1095.8125 957.371094 C 1104.558594 967.285156 1116.75 972.972656 1129.265625 972.972656 L 1130.265625 972.960938 C 1185.898438 972.960938 1233.621094 931.398438 1241.148438 876.277344 C 1241.609375 872.90625 1243.847656 869.996094 1246.992188 868.683594 C 1248.175781 868.191406 1249.425781 867.941406 1250.707031 867.941406 C 1252.78125 867.941406 1254.839844 868.628906 1256.5 869.875 L 1318.726562 916.648438 C 1340.0625 932.6875 1352.800781 958.195312 1352.800781 984.886719 L 1352.800781 1033.101562 C 1352.800781 1063.664062 1332.195312 1090.585938 1302.699219 1098.574219 L 991.414062 1182.863281 C 976.34375 1186.957031 960.734375 1189.035156 945.015625 1189.035156 C 922.179688 1189.035156 899.296875 1184.519531 878.820312 1175.972656 C 851.21875 1162.78125 803.058594 1154.902344 749.945312 1154.902344 C 696.910156 1154.902344 648.789062 1162.777344 621.179688 1175.972656 C 600.375 1184.644531 578.117188 1189.039062 555.023438 1189.039062 Z M 555.023438 1189.039062 " fill-opacity="1" fill-rule="nonzero"/><path fill="#e6f3ff" d="M 822.410156 749.996094 L 677.894531 749.996094 C 641.886719 749.996094 613.339844 719.632812 615.558594 683.695312 L 620.601562 601.980469 C 624.824219 533.527344 681.570312 480.175781 750.152344 480.175781 C 818.734375 480.175781 875.480469 533.527344 879.707031 601.980469 L 884.75 683.695312 C 886.964844 719.632812 858.417969 749.996094 822.410156 749.996094 Z M 822.410156 749.996094 " fill-opacity="1" fill-rule="nonzero"/><path fill="#e6f3ff" d="M 1023.054688 749.996094 L 947.695312 749.996094 C 914.792969 749.996094 887.535156 724.476562 885.371094 691.648438 L 877.054688 565.355469 C 874.417969 525.390625 906.125 491.527344 946.175781 491.527344 C 1014.347656 491.527344 1071.425781 543.195312 1078.191406 611.03125 L 1085.203125 681.34375 C 1088.867188 718.105469 1060 749.996094 1023.054688 749.996094 Z M 1023.054688 749.996094 " fill-opacity="1" fill-rule="nonzero"/><path fill="#e6f3ff" d="M 1183.167969 749.996094 L 1148.800781 749.996094 C 1116.753906 749.996094 1089.90625 725.742188 1086.667969 693.859375 L 1074.9375 578.496094 C 1071.613281 545.789062 1097.28125 517.375 1130.15625 517.375 C 1204.003906 517.375 1260.816406 582.636719 1250.640625 655.777344 L 1245.027344 696.144531 C 1240.734375 727.015625 1214.335938 749.996094 1183.167969 749.996094 Z M 1183.167969 749.996094 " fill-opacity="1" fill-rule="nonzero"/><path fill="#e6f3ff" d="M 476.945312 749.996094 L 552.304688 749.996094 C 585.203125 749.996094 612.464844 724.476562 614.625 691.648438 L 622.945312 565.355469 C 625.578125 525.390625 593.875 491.527344 553.824219 491.527344 C 485.648438 491.527344 428.574219 543.195312 421.808594 611.03125 L 414.796875 681.34375 C 411.128906 718.105469 440 749.996094 476.945312 749.996094 Z M 476.945312 749.996094 " fill-opacity="1" fill-rule="nonzero"/><path fill="#e6f3ff" d="M 316.832031 749.996094 L 351.195312 749.996094 C 383.246094 749.996094 410.089844 725.742188 413.332031 693.859375 L 425.0625 578.496094 C 428.386719 545.789062 402.714844 517.375 369.84375 517.375 L 369.839844 517.375 C 295.996094 517.375 239.183594 582.636719 249.355469 655.777344 L 254.972656 696.144531 C 259.265625 727.015625 285.664062 749.996094 316.832031 749.996094 Z M 316.832031 749.996094 " fill-opacity="1" fill-rule="nonzero"/><path fill="#e6f3ff" d="M 822.410156 749.996094 L 677.894531 749.996094 C 641.886719 749.996094 613.339844 780.363281 615.558594 816.300781 L 620.601562 898.015625 C 624.824219 966.464844 681.570312 1019.816406 750.152344 1019.816406 C 818.734375 1019.816406 875.480469 966.464844 879.707031 898.015625 L 884.75 816.300781 C 886.964844 780.363281 858.417969 749.996094 822.410156 749.996094 Z M 822.410156 749.996094 " fill-opacity="1" fill-rule="nonzero"/><path fill="#e6f3ff" d="M 1023.054688 749.996094 L 947.695312 749.996094 C 914.792969 749.996094 887.535156 775.519531 885.371094 808.347656 L 877.054688 934.640625 C 874.417969 974.601562 906.125 1008.464844 946.175781 1008.464844 C 1014.347656 1008.464844 1071.425781 956.796875 1078.191406 888.960938 L 1085.203125 818.648438 C 1088.867188 781.890625 1060 749.996094 1023.054688 749.996094 Z M 1023.054688 749.996094 " fill-opacity="1" fill-rule="nonzero"/><path fill="#e6f3ff" d="M 1183.167969 749.996094 L 1148.800781 749.996094 C 1116.753906 749.996094 1089.90625 774.253906 1086.667969 806.136719 L 1074.9375 921.496094 C 1071.613281 954.203125 1097.28125 982.617188 1130.15625 982.617188 C 1204.003906 982.617188 1260.816406 917.355469 1250.640625 844.214844 L 1245.027344 803.847656 C 1240.734375 772.976562 1214.335938 749.996094 1183.167969 749.996094 Z M 1183.167969 749.996094 " fill-opacity="1" fill-rule="nonzero"/><path fill="#e6f3ff" d="M 476.945312 749.996094 L 552.304688 749.996094 C 585.203125 749.996094 612.464844 775.519531 614.625 808.347656 L 622.945312 934.640625 C 625.578125 974.601562 593.875 1008.464844 553.824219 1008.464844 C 485.648438 1008.464844 428.574219 956.796875 421.808594 888.960938 L 414.796875 818.648438 C 411.128906 781.890625 440 749.996094 476.945312 749.996094 Z M 476.945312 749.996094 " fill-opacity="1" fill-rule="nonzero"/><path fill="#e6f3ff" d="M 316.832031 749.996094 L 351.195312 749.996094 C 383.246094 749.996094 410.089844 774.253906 413.332031 806.136719 L 425.0625 921.496094 C 428.386719 954.203125 402.714844 982.617188 369.84375 982.617188 L 369.839844 982.617188 C 295.996094 982.617188 239.183594 917.355469 249.355469 844.214844 L 254.972656 803.847656 C 259.265625 772.976562 285.664062 749.996094 316.832031 749.996094 Z M 316.832031 749.996094 " fill-opacity="1" fill-rule="nonzero"/><g clip-path="url(#e4e4f38f9b)"><path fill="#339ca7" d="M 1357.621094 515.105469 L 1357.621094 466.890625 C 1357.621094 434.15625 1335.554688 405.320312 1303.960938 396.761719 L 992.675781 312.476562 C 954.0625 302.023438 912.925781 304.554688 876.847656 319.617188 C 852.324219 329.855469 810.441406 341.65625 750.453125 339.792969 C 690.789062 341.8125 647.515625 329.921875 623.148438 319.617188 C 587.070312 304.554688 545.933594 302.019531 507.324219 312.476562 L 196.039062 396.761719 C 164.445312 405.320312 142.375 434.15625 142.375 466.890625 L 142.375 515.105469 C 142.375 543.304688 155.832031 570.253906 178.371094 587.199219 L 234.101562 629.089844 C 232.035156 647.113281 238.445312 679.910156 240.640625 698.136719 C 243.625 719.589844 255.464844 738.039062 272.113281 749.996094 C 255.464844 761.953125 243.625 780.40625 240.640625 801.855469 C 238.449219 820.210938 232.03125 852.726562 234.101562 870.902344 L 178.371094 912.796875 C 155.832031 929.738281 142.375 956.6875 142.375 984.886719 L 142.375 1033.101562 C 142.375 1065.835938 164.445312 1094.671875 196.039062 1103.230469 L 507.324219 1187.519531 C 545.945312 1197.972656 587.074219 1195.4375 623.148438 1180.375 C 680.511719 1152.808594 819.699219 1152.898438 876.847656 1180.378906 C 898.300781 1189.332031 921.542969 1193.859375 944.980469 1193.859375 C 960.953125 1193.859375 977.023438 1191.757812 992.675781 1187.519531 L 1303.960938 1103.230469 C 1335.554688 1094.671875 1357.621094 1065.835938 1357.621094 1033.101562 L 1357.621094 984.886719 C 1357.621094 956.6875 1344.164062 929.738281 1321.625 912.796875 L 1265.894531 870.902344 C 1267.960938 852.878906 1261.554688 820.082031 1259.355469 801.855469 C 1256.371094 780.40625 1244.535156 761.953125 1227.882812 749.996094 C 1244.535156 738.039062 1256.371094 719.589844 1259.355469 698.136719 C 1261.550781 679.78125 1267.96875 647.269531 1265.894531 629.089844 L 1321.625 587.199219 C 1344.164062 570.253906 1357.621094 543.304688 1357.621094 515.105469 Z M 269.300781 694.152344 C 263.613281 652.847656 255.007812 621.496094 278.371094 583.191406 C 293.203125 559.050781 317.3125 541.339844 345.332031 534.714844 C 353.355469 532.820312 361.601562 531.894531 369.847656 531.855469 C 393.46875 531.3125 413.597656 553.492188 410.667969 577.03125 C 410.667969 577.03125 398.941406 692.394531 398.941406 692.394531 C 396.4375 716.984375 375.914062 735.53125 351.199219 735.53125 L 316.832031 735.53125 C 293.015625 735.53125 272.582031 717.742188 269.300781 694.152344 Z M 638.25 582.144531 C 660.082031 494.964844 769.699219 464.652344 832.96875 529.804688 C 848.667969 545.90625 859.683594 567.101562 863.609375 589.417969 C 866.257812 609.667969 868.773438 664.769531 870.3125 684.585938 C 872.574219 711.398438 849.324219 736.148438 822.410156 735.527344 C 822.410156 735.53125 677.894531 735.53125 677.894531 735.53125 C 650.992188 736.132812 627.722656 711.410156 629.996094 684.585938 C 631.550781 668.371094 633.773438 596.441406 638.25 582.144531 Z M 828.75 974.3125 C 771.035156 1028.449219 676.964844 1008.621094 645.074219 937.457031 C 640.070312 926.535156 636.90625 914.800781 635.539062 902.871094 C 635.359375 900.957031 635.152344 899.054688 635.039062 897.121094 L 629.996094 815.410156 C 629.171875 802.054688 633.765625 789.328125 642.933594 779.582031 C 652.097656 769.832031 664.515625 764.464844 677.894531 764.464844 L 822.410156 764.464844 C 835.792969 764.464844 848.207031 769.832031 857.375 779.582031 C 866.539062 789.328125 871.132812 802.054688 870.308594 815.410156 L 868.84375 839.164062 L 864.535156 904.570312 C 861.300781 931.058594 848.25 956.304688 828.75 974.3125 Z M 414.125 731.894531 C 418.988281 738.863281 425.179688 745.078125 432.058594 749.996094 C 425.179688 754.914062 418.988281 761.132812 414.125 768.101562 C 409.195312 761.089844 403.121094 754.980469 396.195312 749.996094 C 403.121094 745.011719 409.195312 738.902344 414.125 731.894531 Z M 436.207031 887.523438 C 436.117188 887.425781 429.253906 817.324219 429.191406 817.214844 C 427.828125 803.554688 432.152344 790.425781 441.367188 780.246094 C 450.582031 770.070312 463.21875 764.464844 476.945312 764.464844 L 552.304688 764.464844 C 577.503906 764.464844 598.535156 784.15625 600.1875 809.296875 L 608.507812 935.589844 C 609.515625 950.882812 604.304688 965.464844 593.832031 976.652344 C 583.359375 987.835938 569.148438 994 553.824219 994 C 492.550781 994.332031 441.699219 946.863281 436.207031 887.523438 Z M 615.058594 731.910156 C 619.910156 738.800781 626.15625 745.097656 632.964844 749.996094 C 626.15625 754.894531 619.910156 761.191406 615.058594 768.085938 C 610.101562 761.101562 604.023438 754.984375 597.085938 749.996094 C 604.023438 745.007812 610.101562 738.890625 615.058594 731.910156 Z M 878.453125 740.230469 C 880.875 737.65625 883.078125 734.941406 885.09375 732.125 C 890.023438 739.015625 896.046875 745.058594 902.914062 749.996094 C 896.046875 754.933594 890.023438 760.976562 885.09375 767.867188 C 880.265625 761.058594 874.078125 754.84375 867.34375 749.996094 C 871.296875 747.132812 875.023438 743.882812 878.453125 740.230469 Z M 946.175781 994 C 915.359375 994.703125 888.753906 966.300781 891.492188 935.589844 C 893.101562 912.308594 896.355469 865.589844 897.675781 841.703125 C 897.675781 841.703125 899.808594 809.296875 899.808594 809.296875 C 901.464844 784.15625 922.496094 764.464844 947.695312 764.464844 L 1023.054688 764.464844 C 1050.753906 763.886719 1074.144531 789.699219 1070.808594 817.214844 C 1070.808594 817.214844 1063.808594 887.402344 1063.808594 887.402344 C 1058.355469 946.792969 1007.503906 994.335938 946.175781 994 Z M 1085.875 768.101562 C 1081.007812 761.132812 1074.820312 754.914062 1067.941406 749.996094 C 1074.820312 745.078125 1081.007812 738.863281 1085.875 731.894531 C 1090.804688 738.902344 1096.878906 745.011719 1103.804688 749.996094 C 1096.878906 754.980469 1090.804688 761.089844 1085.875 768.101562 Z M 1063.789062 612.472656 C 1063.871094 612.574219 1070.75 682.660156 1070.808594 682.777344 C 1074.132812 710.28125 1050.761719 736.117188 1023.054688 735.527344 C 1023.054688 735.53125 947.695312 735.53125 947.695312 735.53125 C 922.496094 735.53125 901.464844 715.835938 899.808594 690.695312 C 897.699219 659.789062 894.769531 608.796875 892.398438 578.183594 C 892.398438 578.183594 891.492188 564.402344 891.492188 564.402344 C 888.757812 533.703125 915.355469 505.28125 946.175781 505.996094 C 1007.449219 505.660156 1058.300781 553.128906 1063.789062 612.472656 Z M 553.824219 505.996094 C 584.636719 505.292969 611.246094 533.695312 608.507812 564.402344 C 608.507812 564.402344 600.1875 690.695312 600.1875 690.695312 C 598.535156 715.835938 577.503906 735.53125 552.304688 735.53125 L 476.945312 735.53125 C 463.21875 735.53125 450.582031 729.925781 441.367188 719.746094 C 432.152344 709.570312 427.828125 696.441406 429.191406 682.777344 C 431.457031 665.902344 435.171875 605.503906 440.554688 590.277344 C 455.179688 540.953125 500.515625 505.996094 553.824219 505.996094 Z M 263.683594 846.207031 L 269.300781 805.839844 C 272.582031 782.253906 293.015625 764.464844 316.832031 764.464844 L 351.199219 764.464844 C 375.914062 764.464844 396.4375 783.007812 398.941406 807.597656 L 410.667969 922.960938 C 413.589844 946.5 393.472656 968.683594 369.847656 968.136719 C 363.003906 968.09375 356.160156 967.480469 349.445312 966.15625 C 322.921875 961.046875 299.238281 945.734375 283.5 924.402344 C 267.042969 902.121094 259.816406 873.964844 263.683594 846.207031 Z M 1259.816406 902.535156 L 1304.238281 935.925781 C 1319.546875 947.429688 1328.6875 965.734375 1328.6875 984.886719 L 1328.6875 1033.101562 C 1328.6875 1052.800781 1315.410156 1070.152344 1296.394531 1075.300781 L 985.109375 1159.589844 C 952.660156 1168.375 918.171875 1166.273438 887.996094 1153.675781 C 824.746094 1123.203125 675.046875 1123.289062 612.003906 1153.679688 C 581.828125 1166.273438 547.335938 1168.375 514.886719 1159.589844 L 203.601562 1075.300781 C 184.589844 1070.152344 171.3125 1052.800781 171.3125 1033.101562 L 171.3125 984.886719 C 171.3125 965.734375 180.449219 947.429688 195.757812 935.925781 L 240.179688 902.535156 C 254.050781 946.648438 292.039062 982.234375 336.726562 992.949219 C 374.714844 1002.886719 412.570312 995.976562 432.1875 958.863281 C 449.929688 984.929688 476.191406 1004.984375 506.085938 1015.078125 C 555.644531 1031.984375 608.21875 1023.234375 631.101562 971.398438 C 688.453125 1054.921875 811.480469 1055.070312 869.023438 971.703125 C 892.058594 1023.335938 944.480469 1031.921875 993.90625 1015.078125 C 1023.800781 1004.988281 1050.066406 984.933594 1067.808594 958.859375 C 1087.453125 996 1125.269531 1002.878906 1163.273438 992.949219 C 1207.957031 982.234375 1245.953125 946.648438 1259.816406 902.535156 Z M 1230.699219 805.839844 C 1236.386719 847.144531 1244.988281 878.5 1221.625 916.800781 C 1206.796875 940.941406 1182.6875 958.652344 1154.667969 965.277344 C 1146.640625 967.171875 1138.398438 968.097656 1130.148438 968.136719 C 1106.53125 968.679688 1086.402344 946.5 1089.328125 922.960938 C 1089.328125 922.960938 1101.058594 807.597656 1101.058594 807.597656 C 1103.5625 783.007812 1124.085938 764.464844 1148.800781 764.464844 L 1183.167969 764.464844 C 1206.984375 764.464844 1227.417969 782.253906 1230.699219 805.839844 Z M 1236.3125 653.785156 L 1230.699219 694.152344 C 1227.417969 717.742188 1206.984375 735.53125 1183.167969 735.53125 L 1148.800781 735.53125 C 1124.085938 735.53125 1103.5625 716.984375 1101.058594 692.394531 L 1089.328125 577.03125 C 1086.40625 553.492188 1106.527344 531.308594 1130.152344 531.855469 C 1136.996094 531.898438 1143.839844 532.511719 1150.554688 533.839844 C 1177.074219 538.945312 1200.757812 554.257812 1216.5 575.589844 C 1232.953125 597.875 1240.183594 626.027344 1236.3125 653.785156 Z M 1304.238281 564.070312 L 1259.816406 597.460938 C 1245.949219 553.34375 1207.960938 517.757812 1163.273438 507.042969 C 1125.28125 497.105469 1087.425781 504.015625 1067.808594 541.128906 C 1050.066406 515.0625 1023.804688 495.007812 993.910156 484.914062 C 944.488281 468.058594 892.027344 476.683594 869.023438 528.289062 C 811.449219 444.894531 688.421875 445.097656 631.101562 528.59375 C 608.195312 476.734375 555.648438 468.023438 506.09375 484.914062 C 476.195312 495.007812 449.929688 515.058594 432.1875 541.132812 C 412.546875 503.996094 374.726562 497.113281 336.726562 507.042969 C 292.039062 517.757812 254.046875 553.34375 240.179688 597.460938 L 195.757812 564.070312 C 180.449219 552.5625 171.3125 534.257812 171.3125 515.105469 L 171.3125 466.890625 C 171.3125 447.195312 184.589844 429.839844 203.601562 424.691406 L 514.886719 340.402344 C 528.078125 336.832031 541.605469 335.058594 555.039062 335.058594 C 574.664062 335.058594 594.089844 338.839844 612.003906 346.316406 C 675.171875 376.773438 824.988281 376.707031 887.996094 346.316406 C 918.171875 333.71875 952.664062 331.617188 985.109375 340.402344 L 1296.394531 424.691406 C 1315.410156 429.839844 1328.6875 447.195312 1328.6875 466.890625 L 1328.6875 515.105469 C 1328.6875 534.257812 1319.550781 552.5625 1304.238281 564.070312 Z M 1304.238281 564.070312 " fill-opacity="1" fill-rule="nonzero"/></g></svg>