<svg xmlns="http://www.w3.org/2000/svg" xmlns:xlink="http://www.w3.org/1999/xlink" width="2000" zoomAndPan="magnify" viewBox="0 0 1500 1499.999933" height="2000" preserveAspectRatio="xMidYMid meet" version="1.0"><defs><filter x="0%" y="0%" width="100%" height="100%" id="ed8bb81d9b"><feColorMatrix values="0 0 0 0 1 0 0 0 0 1 0 0 0 0 1 0 0 0 1 0" color-interpolation-filters="sRGB"/></filter><clipPath id="3c53d0b9ba"><path d="M 194.015625 570.65625 L 1306 570.65625 L 1306 1153 L 194.015625 1153 Z M 194.015625 570.65625 " clip-rule="nonzero"/></clipPath><mask id="619956dd53"><g filter="url(#ed8bb81d9b)"><rect x="-150" width="1800" fill="#000000" y="-149.999993" height="1799.99992" fill-opacity="0.05"/></g></mask><clipPath id="a9aecb3183"><path d="M 1 0.121094 L 1.519531 0.121094 L 1.519531 1 L 1 1 Z M 1 0.121094 " clip-rule="nonzero"/></clipPath><clipPath id="e8b07a21bd"><rect x="0" width="2" y="0" height="2"/></clipPath><mask id="f23d9a5ebd"><g filter="url(#ed8bb81d9b)"><rect x="-150" width="1800" fill="#000000" y="-149.999993" height="1799.99992" fill-opacity="0.05"/></g></mask><clipPath id="f1800955d3"><path d="M 0.640625 0.238281 L 795.761719 0.238281 L 795.761719 104.640625 L 0.640625 104.640625 Z M 0.640625 0.238281 " clip-rule="nonzero"/></clipPath><clipPath id="e6f3d2ec81"><rect x="0" width="796" y="0" height="105"/></clipPath><mask id="ddc7b60582"><g filter="url(#ed8bb81d9b)"><rect x="-150" width="1800" fill="#000000" y="-149.999993" height="1799.99992" fill-opacity="0.05"/></g></mask><clipPath id="e58da815c3"><path d="M 0.398438 1 L 11 1 L 11 45.761719 L 0.398438 45.761719 Z M 0.398438 1 " clip-rule="nonzero"/></clipPath><clipPath id="c97b2aa8f9"><rect x="0" width="12" y="0" height="46"/></clipPath><mask id="9f3881b5d8"><g filter="url(#ed8bb81d9b)"><rect x="-150" width="1800" fill="#000000" y="-149.999993" height="1799.99992" fill-opacity="0.05"/></g></mask><clipPath id="09d0e9c162"><path d="M 0.199219 1 L 9 1 L 9 65.121094 L 0.199219 65.121094 Z M 0.199219 1 " clip-rule="nonzero"/></clipPath><clipPath id="5399fecf7d"><rect x="0" width="10" y="0" height="66"/></clipPath><mask id="53ca747b1c"><g filter="url(#ed8bb81d9b)"><rect x="-150" width="1800" fill="#000000" y="-149.999993" height="1799.99992" fill-opacity="0.05"/></g></mask><clipPath id="1335f63cd1"><path d="M 0.558594 0.601562 L 11 0.601562 L 11 74.761719 L 0.558594 74.761719 Z M 0.558594 0.601562 " clip-rule="nonzero"/></clipPath><clipPath id="c4bb9d9234"><rect x="0" width="12" y="0" height="75"/></clipPath><mask id="47769aa51f"><g filter="url(#ed8bb81d9b)"><rect x="-150" width="1800" fill="#000000" y="-149.999993" height="1799.99992" fill-opacity="0.05"/></g></mask><clipPath id="6d3fcdfd0c"><path d="M 0.441406 0.28125 L 10 0.28125 L 10 81.398438 L 0.441406 81.398438 Z M 0.441406 0.28125 " clip-rule="nonzero"/></clipPath><clipPath id="4de0414ce1"><rect x="0" width="11" y="0" height="82"/></clipPath><mask id="d179977a85"><g filter="url(#ed8bb81d9b)"><rect x="-150" width="1800" fill="#000000" y="-149.999993" height="1799.99992" fill-opacity="0.05"/></g></mask><clipPath id="ee735ca50f"><path d="M 1 0.558594 L 3.28125 0.558594 L 3.28125 2.960938 L 1 2.960938 Z M 1 0.558594 " clip-rule="nonzero"/></clipPath><clipPath id="a7e8804d6e"><rect x="0" width="4" y="0" height="3"/></clipPath><mask id="f13ef10945"><g filter="url(#ed8bb81d9b)"><rect x="-150" width="1800" fill="#000000" y="-149.999993" height="1799.99992" fill-opacity="0.05"/></g></mask><clipPath id="77d20286f7"><path d="M 1 0.238281 L 1.519531 0.238281 L 1.519531 0.960938 L 1 0.960938 Z M 1 0.238281 " clip-rule="nonzero"/></clipPath><clipPath id="10dd1fd618"><rect x="0" width="2" y="0" height="1"/></clipPath><mask id="4fcc0cce5c"><g filter="url(#ed8bb81d9b)"><rect x="-150" width="1800" fill="#000000" y="-149.999993" height="1799.99992" fill-opacity="0.05"/></g></mask><clipPath id="175e1cb14b"><path d="M 0.441406 0.199219 L 9.800781 0.199219 L 9.800781 85.398438 L 0.441406 85.398438 Z M 0.441406 0.199219 " clip-rule="nonzero"/></clipPath><clipPath id="64175d6716"><rect x="0" width="10" y="0" height="86"/></clipPath><mask id="36250b1d35"><g filter="url(#ed8bb81d9b)"><rect x="-150" width="1800" fill="#000000" y="-149.999993" height="1799.99992" fill-opacity="0.05"/></g></mask><clipPath id="cd8f8fc09e"><path d="M 1 0.238281 L 9.320312 0.238281 L 9.320312 77.761719 L 1 77.761719 Z M 1 0.238281 " clip-rule="nonzero"/></clipPath><clipPath id="72b90dbaed"><rect x="0" width="10" y="0" height="78"/></clipPath><mask id="7de18853e3"><g filter="url(#ed8bb81d9b)"><rect x="-150" width="1800" fill="#000000" y="-149.999993" height="1799.99992" fill-opacity="0.05"/></g></mask><clipPath id="af93bf89e8"><path d="M 0.558594 0.238281 L 15 0.238281 L 15 84.960938 L 0.558594 84.960938 Z M 0.558594 0.238281 " clip-rule="nonzero"/></clipPath><clipPath id="116068bb0e"><rect x="0" width="16" y="0" height="85"/></clipPath><mask id="54c7eda7b5"><g filter="url(#ed8bb81d9b)"><rect x="-150" width="1800" fill="#000000" y="-149.999993" height="1799.99992" fill-opacity="0.05"/></g></mask><clipPath id="27b7466b38"><path d="M 1 0.078125 L 2.480469 0.078125 L 2.480469 1.519531 L 1 1.519531 Z M 1 0.078125 " clip-rule="nonzero"/></clipPath><clipPath id="0f169bedaf"><rect x="0" width="3" y="0" height="2"/></clipPath><mask id="0b65575802"><g filter="url(#ed8bb81d9b)"><rect x="-150" width="1800" fill="#000000" y="-149.999993" height="1799.99992" fill-opacity="0.05"/></g></mask><clipPath id="1e39d83fb5"><path d="M 0.28125 0.558594 L 14.679688 0.558594 L 14.679688 58.398438 L 0.28125 58.398438 Z M 0.28125 0.558594 " clip-rule="nonzero"/></clipPath><clipPath id="6e63c4e863"><rect x="0" width="15" y="0" height="59"/></clipPath><mask id="450622bb99"><g filter="url(#ed8bb81d9b)"><rect x="-150" width="1800" fill="#000000" y="-149.999993" height="1799.99992" fill-opacity="0.05"/></g></mask><clipPath id="7dae584d71"><path d="M 1 0.320312 L 13.679688 0.320312 L 13.679688 48.558594 L 1 48.558594 Z M 1 0.320312 " clip-rule="nonzero"/></clipPath><clipPath id="2e8a1a0fe4"><rect x="0" width="14" y="0" height="49"/></clipPath><mask id="61c50ce133"><g filter="url(#ed8bb81d9b)"><rect x="-150" width="1800" fill="#000000" y="-149.999993" height="1799.99992" fill-opacity="0.5"/></g></mask><clipPath id="c0a0a930a8"><path d="M 1 0.199219 L 122.878906 0.199219 L 122.878906 146.601562 L 1 146.601562 Z M 1 0.199219 " clip-rule="nonzero"/></clipPath><clipPath id="74a66f2e64"><rect x="0" width="123" y="0" height="147"/></clipPath><mask id="fb8ee11cd1"><g filter="url(#ed8bb81d9b)"><rect x="-150" width="1800" fill="#000000" y="-149.999993" height="1799.99992" fill-opacity="0.5"/></g></mask><clipPath id="e3c408afd1"><path d="M 1 0.199219 L 122.839844 0.199219 L 122.839844 146.601562 L 1 146.601562 Z M 1 0.199219 " clip-rule="nonzero"/></clipPath><clipPath id="c3bafbbb7e"><rect x="0" width="123" y="0" height="147"/></clipPath><mask id="f677e94d99"><g filter="url(#ed8bb81d9b)"><rect x="-150" width="1800" fill="#000000" y="-149.999993" height="1799.99992" fill-opacity="0.5"/></g></mask><clipPath id="4b09f29dbd"><path d="M 0.441406 0.078125 L 94 0.078125 L 94 136.398438 L 0.441406 136.398438 Z M 0.441406 0.078125 " clip-rule="nonzero"/></clipPath><clipPath id="f4955d1b25"><rect x="0" width="95" y="0" height="137"/></clipPath><mask id="2529d48903"><g filter="url(#ed8bb81d9b)"><rect x="-150" width="1800" fill="#000000" y="-149.999993" height="1799.99992" fill-opacity="0.5"/></g></mask><clipPath id="621c5deda8"><path d="M 0.398438 0.398438 L 67.839844 0.398438 L 67.839844 116 L 0.398438 116 Z M 0.398438 0.398438 " clip-rule="nonzero"/></clipPath><clipPath id="67054a7039"><rect x="0" width="68" y="0" height="117"/></clipPath><mask id="9b82904b4a"><g filter="url(#ed8bb81d9b)"><rect x="-150" width="1800" fill="#000000" y="-149.999993" height="1799.99992" fill-opacity="0.5"/></g></mask><clipPath id="4137baacde"><path d="M 0.0390625 1 L 51.640625 1 L 51.640625 94.761719 L 0.0390625 94.761719 Z M 0.0390625 1 " clip-rule="nonzero"/></clipPath><clipPath id="1630c67383"><rect x="0" width="52" y="0" height="95"/></clipPath><mask id="0f341b022c"><g filter="url(#ed8bb81d9b)"><rect x="-150" width="1800" fill="#000000" y="-149.999993" height="1799.99992" fill-opacity="0.5"/></g></mask><clipPath id="66d90b92a2"><path d="M 1 0.078125 L 94.761719 0.078125 L 94.761719 136.398438 L 1 136.398438 Z M 1 0.078125 " clip-rule="nonzero"/></clipPath><clipPath id="763d9ec5a4"><rect x="0" width="95" y="0" height="137"/></clipPath><mask id="a98fb37673"><g filter="url(#ed8bb81d9b)"><rect x="-150" width="1800" fill="#000000" y="-149.999993" height="1799.99992" fill-opacity="0.5"/></g></mask><clipPath id="3b116dc23a"><path d="M 0.359375 0.398438 L 67.800781 0.398438 L 67.800781 116 L 0.359375 116 Z M 0.359375 0.398438 " clip-rule="nonzero"/></clipPath><clipPath id="732ea82748"><rect x="0" width="68" y="0" height="117"/></clipPath><mask id="6f0e0bf2a9"><g filter="url(#ed8bb81d9b)"><rect x="-150" width="1800" fill="#000000" y="-149.999993" height="1799.99992" fill-opacity="0.5"/></g></mask><clipPath id="a785d92bb1"><path d="M 0.320312 1 L 52 1 L 52 94.761719 L 0.320312 94.761719 Z M 0.320312 1 " clip-rule="nonzero"/></clipPath><clipPath id="fba4d84b81"><rect x="0" width="53" y="0" height="95"/></clipPath><clipPath id="c7bdbfc146"><path d="M 194.015625 570.65625 L 1306 570.65625 L 1306 1199 L 194.015625 1199 Z M 194.015625 570.65625 " clip-rule="nonzero"/></clipPath><mask id="6ee1a06ccb"><g filter="url(#ed8bb81d9b)"><rect x="-150" width="1800" fill="#000000" y="-149.999993" height="1799.99992" fill-opacity="0.15"/></g></mask><clipPath id="46f7a891a0"><path d="M 0.121094 0.398438 L 347.878906 0.398438 L 347.878906 84 L 0.121094 84 Z M 0.121094 0.398438 " clip-rule="nonzero"/></clipPath><clipPath id="20e31dcf9c"><rect x="0" width="348" y="0" height="85"/></clipPath><mask id="ec85f21582"><g filter="url(#ed8bb81d9b)"><rect x="-150" width="1800" fill="#000000" y="-149.999993" height="1799.99992" fill-opacity="0.15"/></g></mask><clipPath id="c293cb9397"><path d="M 1 1 L 262.878906 1 L 262.878906 68.558594 L 1 68.558594 Z M 1 1 " clip-rule="nonzero"/></clipPath><clipPath id="2c0505e33c"><rect x="0" width="263" y="0" height="69"/></clipPath><mask id="623c131d8f"><g filter="url(#ed8bb81d9b)"><rect x="-150" width="1800" fill="#000000" y="-149.999993" height="1799.99992" fill-opacity="0.15"/></g></mask><clipPath id="564fad62e5"><path d="M 0.519531 1 L 550.839844 1 L 550.839844 129.960938 L 0.519531 129.960938 Z M 0.519531 1 " clip-rule="nonzero"/></clipPath><clipPath id="63f3052c1b"><rect x="0" width="551" y="0" height="130"/></clipPath></defs><g clip-path="url(#3c53d0b9ba)"><path fill="#9fc865" d="M 749.996094 1152.230469 C 956.625 1144.386719 1090.410156 1070.707031 1191.949219 930.394531 C 1239.773438 864.308594 1286.796875 766.015625 1305.550781 689.1875 C 1192.710938 641.125 1076.339844 579.730469 952.296875 570.921875 C 825.292969 570.667969 825.585938 617.804688 749.996094 617.804688 C 674.410156 617.804688 674.699219 570.667969 547.695312 570.921875 C 423.65625 579.730469 307.285156 641.125 194.445312 689.1875 C 213.199219 766.015625 260.21875 864.308594 308.046875 930.394531 C 409.582031 1070.707031 543.371094 1144.386719 749.996094 1152.230469 Z M 749.996094 1152.230469 " fill-opacity="1" fill-rule="nonzero"/></g><path fill="#efe3e2" d="M 659.8125 878.410156 C 648.921875 861.292969 580.449219 872.1875 563.332031 892.414062 C 553.992188 875.296875 505.753906 865.960938 488.636719 889.304688 C 482.410156 864.40625 446.617188 853.511719 427.945312 864.40625 C 424.832031 845.730469 392.152344 834.839844 370.367188 842.617188 C 348.582031 850.398438 351.691406 892.414062 351.691406 892.414062 L 356.359375 915.757812 C 356.359375 915.757812 384.371094 943.769531 387.484375 954.664062 C 390.597656 965.554688 497.972656 979.5625 519.757812 998.234375 C 541.546875 1016.910156 715.835938 1041.808594 720.503906 1049.589844 C 725.171875 1057.371094 1055.078125 1001.347656 1062.859375 1001.347656 C 1070.640625 1001.347656 1165.566406 897.085938 1165.566406 897.085938 C 1165.566406 897.085938 1159.34375 839.507812 1128.21875 834.839844 C 1098.40625 830.367188 1097.152344 870.058594 1097.101562 873.414062 C 1097.101562 873.605469 1097.097656 873.742188 1097.097656 873.742188 C 1097.097656 873.742188 1097.097656 873.5625 1097.101562 873.414062 C 1097.097656 871.261719 1095.71875 858.179688 1062.859375 858.179688 C 1027.070312 858.179688 1033.292969 893.972656 1033.292969 893.972656 C 1033.292969 893.972656 1027.070312 881.523438 988.164062 875.296875 C 949.261719 869.074219 944.589844 893.972656 944.589844 893.972656 C 944.589844 893.972656 938.367188 875.296875 902.574219 873.742188 C 866.78125 872.1875 862.113281 900.199219 862.113281 900.199219 C 862.113281 900.199219 859.003906 879.96875 823.210938 873.742188 C 787.417969 867.519531 757.851562 895.527344 757.851562 895.527344 C 757.851562 895.527344 756.296875 876.855469 717.390625 873.742188 C 678.488281 870.628906 666.039062 906.421875 666.039062 906.421875 C 666.039062 906.421875 670.707031 895.527344 659.8125 878.410156 Z M 659.8125 878.410156 " fill-opacity="1" fill-rule="nonzero"/><path fill="#efe3e2" d="M 1097.101562 873.414062 C 1097.097656 873.5625 1097.097656 873.742188 1097.097656 873.742188 C 1097.097656 873.742188 1097.101562 873.605469 1097.101562 873.414062 Z M 1097.101562 873.414062 " fill-opacity="1" fill-rule="nonzero"/><g mask="url(#619956dd53)"><g transform="matrix(1, 0, 0, 1, 1096, 873)"><g clip-path="url(#e8b07a21bd)"><g clip-path="url(#a9aecb3183)"><path fill="#9fc865" d="M 1.097656 0.40625 C 1.097656 0.578125 1.09375 0.742188 1.09375 0.742188 C 1.09375 0.742188 1.101562 0.601562 1.097656 0.40625 Z M 1.097656 0.40625 " fill-opacity="1" fill-rule="nonzero"/></g></g></g></g><g mask="url(#f23d9a5ebd)"><g transform="matrix(1, 0, 0, 1, 356, 834)"><g clip-path="url(#e6f3d2ec81)"><g clip-path="url(#f1800955d3)"><path fill="#9fc865" d="M 303.8125 44.410156 C 292.921875 27.289062 224.449219 38.183594 207.332031 58.414062 C 197.992188 41.296875 149.753906 31.960938 132.636719 55.304688 C 126.414062 30.40625 90.621094 19.511719 71.945312 30.40625 C 68.832031 11.730469 36.152344 0.835938 14.367188 8.617188 C 8.003906 10.890625 3.804688 16.117188 0.992188 22.332031 C 13.652344 19.992188 27.671875 19.972656 36.199219 26.367188 C 40.085938 29.285156 54.84375 38.730469 56.429688 43.484375 C 57.125 45.570312 59.492188 54.355469 62.65625 55.933594 C 64.515625 56.863281 69.890625 51.792969 71.988281 51.265625 C 82.328125 48.683594 94.777344 53.324219 103.113281 57.492188 C 110.238281 61.054688 124.671875 77.71875 129.570312 77.71875 C 137.65625 77.71875 148.476562 70.542969 156.023438 68.382812 C 178.664062 61.917969 192.257812 79.5 207.375 87.058594 C 212.035156 89.390625 218.660156 80.703125 222.941406 79.277344 C 235.273438 75.167969 249.960938 71.132812 263.398438 73.050781 C 284.3125 76.039062 294.699219 91.902344 306.972656 104.175781 C 308.714844 105.921875 349.027344 79.289062 367.664062 85.5 C 377.089844 88.644531 384.609375 94.753906 394.117188 99.507812 C 399.550781 102.226562 409.175781 90.089844 414.347656 88.613281 C 427.351562 84.898438 441.09375 83.757812 454.808594 82.386719 C 472.300781 80.636719 482.875 86.558594 498.382812 91.726562 C 499.828125 92.210938 513.378906 103.746094 515.5 99.507812 C 535.695312 59.117188 591.101562 90.816406 591.75 90.171875 C 617.601562 64.316406 635.046875 74.609375 666.445312 74.609375 C 670.855469 74.609375 686.65625 80.851562 689.789062 77.71875 C 698.660156 68.851562 700.371094 52.121094 716.242188 48.152344 C 724.257812 46.148438 741.980469 58.207031 747.367188 52.820312 C 752.957031 47.230469 757.527344 39.367188 764.484375 34.152344 C 772.007812 28.507812 784.003906 24.011719 795.429688 18.644531 C 789.917969 9.628906 782.425781 2.371094 772.21875 0.839844 C 770.273438 0.546875 768.449219 0.441406 766.742188 0.503906 C 742.347656 1.398438 741.15625 36.027344 741.097656 39.40625 C 741.101562 39.601562 741.09375 39.742188 741.09375 39.742188 C 741.09375 39.742188 741.097656 39.578125 741.097656 39.40625 C 741.089844 37.238281 739.683594 24.179688 706.859375 24.179688 C 671.066406 24.179688 677.292969 59.972656 677.292969 59.972656 C 677.292969 59.972656 671.070312 47.523438 632.164062 41.296875 C 593.261719 35.074219 588.589844 59.972656 588.589844 59.972656 C 588.589844 59.972656 582.367188 41.296875 546.574219 39.742188 C 510.78125 38.183594 506.117188 66.199219 506.117188 66.199219 C 506.117188 66.199219 503 45.964844 467.210938 39.742188 C 431.417969 33.515625 401.851562 61.53125 401.851562 61.53125 C 401.851562 61.53125 400.296875 42.855469 361.390625 39.742188 C 322.488281 36.628906 310.039062 72.421875 310.039062 72.421875 C 310.039062 72.421875 314.707031 61.527344 303.8125 44.410156 Z M 303.8125 44.410156 " fill-opacity="1" fill-rule="nonzero"/></g></g></g></g><g mask="url(#ddc7b60582)"><g transform="matrix(1, 0, 0, 1, 416, 866)"><g clip-path="url(#c97b2aa8f9)"><g clip-path="url(#e58da815c3)"><path fill="#9fc865" d="M 8.726562 23.304688 C 9.863281 11.804688 11.746094 2.082031 10.121094 1.371094 C 7.921875 0.402344 2.359375 9.433594 0.96875 22.507812 C -0.386719 35.242188 1.917969 45.382812 4.070312 45.382812 C 6.21875 45.382812 7.550781 35.175781 8.726562 23.304688 Z M 8.726562 23.304688 " fill-opacity="1" fill-rule="nonzero"/></g></g></g></g><g mask="url(#9f3881b5d8)"><g transform="matrix(1, 0, 0, 1, 481, 892)"><g clip-path="url(#5399fecf7d)"><g clip-path="url(#09d0e9c162)"><path fill="#9fc865" d="M 3.195312 55.820312 C 4.175781 61.488281 5.117188 65.050781 6.191406 65.050781 C 7.265625 65.050781 8.269531 61.425781 8.691406 55.554688 C 9.148438 49.144531 8.867188 42.140625 8.433594 32.929688 L 8.433594 32.886719 C 7.957031 22.195312 7.839844 18.40625 7.8125 10.777344 C 7.792969 5.152344 7.8125 1.488281 6.742188 1.226562 C 5.730469 0.980469 3.789062 4.238281 2.355469 10.109375 C 0.859375 16.234375 0.1875 23.964844 0.648438 33.25 L 0.648438 33.296875 C 1.050781 41.753906 2.296875 50.636719 3.195312 55.820312 Z M 3.195312 55.820312 " fill-opacity="1" fill-rule="nonzero"/></g></g></g></g><g mask="url(#53ca747b1c)"><g transform="matrix(1, 0, 0, 1, 556, 897)"><g clip-path="url(#c4bb9d9234)"><g clip-path="url(#1335f63cd1)"><path fill="#9fc865" d="M 9.390625 37.753906 C 11.074219 17.527344 11.457031 0.878906 9.320312 0.628906 C 7.183594 0.382812 3.320312 16.636719 1.621094 37.109375 C -0.078125 57.582031 1.667969 74.355469 3.816406 74.355469 C 5.96875 74.355469 7.707031 57.980469 9.390625 37.753906 Z M 9.390625 37.753906 " fill-opacity="1" fill-rule="nonzero"/></g></g></g></g><g mask="url(#47769aa51f)"><g transform="matrix(1, 0, 0, 1, 661, 911)"><g clip-path="url(#4de0414ce1)"><g clip-path="url(#6d3fcdfd0c)"><path fill="#9fc865" d="M 8.304688 81.261719 C 10.445312 81.054688 9.753906 62.617188 8.613281 40.515625 C 7.964844 27.929688 7.863281 21.128906 7.8125 12.382812 C 7.773438 5.171875 7.710938 0.574219 6.65625 0.382812 C 5.628906 0.203125 3.734375 4.507812 2.355469 11.882812 C 0.925781 19.523438 0.25 29.257812 0.824219 40.910156 C 1.941406 63.59375 6.164062 81.46875 8.304688 81.261719 Z M 8.304688 81.261719 " fill-opacity="1" fill-rule="nonzero"/></g></g></g></g><g mask="url(#d179977a85)"><g transform="matrix(1, 0, 0, 1, 752, 982)"><g clip-path="url(#a7e8804d6e)"><g clip-path="url(#ee735ca50f)"><path fill="#9fc865" d="M 1.054688 2.0625 C 1.167969 1.984375 1.257812 1.9375 1.539062 1.71875 C 2.257812 2.144531 2.734375 2.402344 3.011719 2.5625 C 3.074219 1.582031 2.765625 0.96875 2.585938 0.910156 C 2.222656 0.789062 1.71875 1.582031 1.054688 2.0625 Z M 1.054688 2.0625 " fill-opacity="1" fill-rule="nonzero"/></g></g></g></g><g mask="url(#f13ef10945)"><g transform="matrix(1, 0, 0, 1, 754, 984)"><g clip-path="url(#10dd1fd618)"><g clip-path="url(#77d20286f7)"><path fill="#9fc865" d="M 1.011719 0.648438 C 1.265625 0.734375 1.300781 0.726562 1.03125 0.570312 C 1.027344 0.582031 1.015625 0.605469 1.011719 0.617188 C 1.011719 0.628906 1.015625 0.636719 1.011719 0.648438 Z M 1.011719 0.648438 " fill-opacity="1" fill-rule="nonzero"/></g></g></g></g><g mask="url(#4fcc0cce5c)"><g transform="matrix(1, 0, 0, 1, 751, 901)"><g clip-path="url(#64175d6716)"><g clip-path="url(#175e1cb14b)"><path fill="#9fc865" d="M 6 77.09375 C 7.390625 68.984375 8.414062 57.386719 8.960938 43.492188 C 9.890625 19.824219 9.578125 0.660156 7.433594 0.480469 C 5.292969 0.300781 2.105469 19.488281 1.171875 43.183594 C 0.648438 56.4375 0.734375 69.320312 1.167969 76.820312 C 1.308594 78.433594 1.160156 80.121094 1.199219 81.570312 C 1.222656 82.285156 1.222656 82.929688 1.371094 83.6875 C 0.628906 83.636719 1.300781 84.289062 2.996094 85.148438 C 4.140625 84.457031 4.289062 84.082031 4.019531 84.050781 C 4.058594 83.875 4 83.804688 4.015625 83.648438 C 3.980469 83.636719 4.042969 83.667969 4 83.65625 C 4.003906 83.644531 4.011719 83.625 4.015625 83.617188 C 4.015625 83.597656 4.011719 83.582031 4.011719 83.5625 C 3.734375 83.402344 3.257812 83.144531 2.539062 82.71875 C 2.257812 82.9375 2.167969 82.984375 2.054688 83.0625 C 2.050781 83.0625 2.050781 83.066406 2.046875 83.066406 C 1.785156 83.21875 1.832031 83.207031 2.054688 83.0625 C 2.71875 82.582031 3.222656 81.789062 3.585938 81.910156 C 3.765625 81.96875 4.074219 82.582031 4.011719 83.5625 C 4.015625 83.5625 4.027344 83.570312 4.03125 83.570312 C 4.15625 83.199219 4.367188 82.773438 4.585938 82.082031 C 4.972656 81 5.671875 79.109375 6 77.09375 Z M 6 77.09375 " fill-opacity="1" fill-rule="nonzero"/></g></g></g></g><g mask="url(#36250b1d35)"><g transform="matrix(1, 0, 0, 1, 859, 906)"><g clip-path="url(#72b90dbaed)"><g clip-path="url(#cd8f8fc09e)"><path fill="#9fc865" d="M 9.039062 38.910156 C 9.21875 17.488281 5.554688 0.171875 3.421875 0.433594 C 1.285156 0.695312 1.4375 17.683594 1.242188 38.839844 C 1.042969 60 2.371094 77.457031 4.519531 77.457031 C 6.671875 77.457031 8.855469 60.328125 9.039062 38.910156 Z M 9.039062 38.910156 " fill-opacity="1" fill-rule="nonzero"/></g></g></g></g><g mask="url(#7de18853e3)"><g transform="matrix(1, 0, 0, 1, 934, 900)"><g clip-path="url(#116068bb0e)"><g clip-path="url(#af93bf89e8)"><path fill="#9fc865" d="M 9.394531 10.839844 C 9.027344 14.949219 8.523438 18.648438 7.660156 24.25 C 6.550781 31.410156 5.730469 35.871094 4.3125 44.3125 C 3.703125 47.917969 3.148438 51.355469 2.652344 54.753906 C 1.929688 59.683594 1.382812 64.066406 1.09375 68.363281 C 0.820312 72.15625 0.742188 75.386719 1.246094 78.621094 C 1.402344 79.78125 1.71875 81.019531 2.328125 82.226562 C 2.734375 83.273438 3.804688 84.144531 5.199219 84.574219 C 6.984375 84.726562 8.070312 84.109375 8.636719 83.546875 C 11.046875 81.578125 11.355469 80.011719 10.949219 79.605469 C 10.542969 79.199219 9.125 80.15625 7.042969 80.742188 C 6.457031 80.828125 5.980469 80.984375 6.1875 80.726562 C 6.398438 80.84375 6.59375 80.679688 6.449219 80.457031 C 6.3125 79.917969 6.371094 79.265625 6.375 78.261719 C 6.46875 75.441406 6.960938 72.992188 7.625 69.160156 C 8.335938 65.195312 9.21875 60.785156 10.121094 56.007812 C 10.746094 52.71875 11.398438 49.179688 12 45.605469 C 13.253906 38.132812 14.132812 31.40625 14.550781 25.003906 C 14.917969 19.457031 14.882812 14.859375 14.414062 10.761719 C 13.652344 3.703125 11.402344 0.0117188 10.398438 0.378906 C 9.773438 0.609375 9.898438 4.617188 9.394531 10.839844 Z M 9.394531 10.839844 " fill-opacity="1" fill-rule="nonzero"/></g></g></g></g><g mask="url(#54c7eda7b5)"><g transform="matrix(1, 0, 0, 1, 1048, 952)"><g clip-path="url(#0f169bedaf)"><g clip-path="url(#27b7466b38)"><path fill="#9fc865" d="M 1.996094 0.949219 C 2.183594 1.152344 2.53125 1.109375 2.3125 0.492188 C 2.3125 0.441406 2.316406 0.394531 2.316406 0.34375 C 1.988281 0.523438 1.613281 0.671875 1.199219 0.851562 C 1.476562 0.824219 1.753906 0.792969 1.996094 0.949219 Z M 1.996094 0.949219 " fill-opacity="1" fill-rule="nonzero"/></g></g></g></g><g mask="url(#0b65575802)"><g transform="matrix(1, 0, 0, 1, 1037, 898)"><g clip-path="url(#6e63c4e863)"><g clip-path="url(#1e39d83fb5)"><path fill="#9fc865" d="M 13.917969 43.746094 C 14.082031 40.484375 14.199219 36.65625 14.160156 32.734375 C 14.148438 31.464844 14.128906 30.148438 14.085938 28.8125 C 13.863281 21.753906 13.070312 15.742188 11.3125 10.34375 C 10.378906 7.21875 8.972656 4.609375 7 2.734375 C 5.984375 1.753906 4.773438 1.191406 3.679688 0.988281 C 1.121094 0.59375 0.246094 1.824219 0.378906 2.378906 L 0.382812 2.378906 C 0.515625 2.9375 1.769531 3.136719 2.546875 4 C 2.933594 4.367188 3.214844 4.84375 3.574219 5.546875 C 4.445312 7.195312 4.59375 8.769531 5.128906 11.824219 C 5.910156 17.199219 6.039062 21.785156 6.28125 29.066406 C 6.324219 30.378906 6.371094 31.65625 6.429688 32.9375 C 6.597656 36.902344 6.777344 40.449219 7.074219 43.875 C 7.359375 47.195312 7.691406 49.933594 8.285156 52.527344 C 8.519531 53.566406 8.792969 54.546875 9.1875 55.5 C 9.246094 56.019531 9.8125 56.949219 10.777344 57.773438 C 11.34375 58.167969 12.007812 58.257812 12.683594 58.105469 C 13.398438 57.816406 13.753906 57.492188 13.886719 57.222656 C 15.039062 55.394531 14.417969 54.238281 14.136719 54.097656 C 13.9375 54 13.636719 54.167969 13.316406 54.34375 C 13.316406 54.394531 13.3125 54.441406 13.3125 54.492188 C 13.535156 55.109375 13.183594 55.152344 12.996094 54.949219 C 12.753906 54.792969 12.480469 54.824219 12.199219 54.851562 C 12.050781 54.917969 11.925781 55.019531 11.769531 55.058594 C 11.625 55.054688 11.648438 55.015625 11.945312 54.820312 C 12.039062 54.800781 12.113281 54.859375 12.199219 54.851562 C 12.613281 54.671875 12.992188 54.523438 13.316406 54.34375 C 13.316406 53.648438 13.367188 53.042969 13.414062 52.054688 C 13.542969 49.742188 13.765625 46.976562 13.921875 43.746094 Z M 13.917969 43.746094 " fill-opacity="1" fill-rule="nonzero"/></g></g></g></g><g mask="url(#450622bb99)"><g transform="matrix(1, 0, 0, 1, 1098, 880)"><g clip-path="url(#2e8a1a0fe4)"><g clip-path="url(#7dae584d71)"><path fill="#9fc865" d="M 4.492188 24.84375 C 6.683594 37.773438 9.324219 48.734375 11.453125 48.441406 C 13.585938 48.148438 14.480469 37.21875 12.175781 23.546875 C 12.0625 22.882812 11.941406 22.226562 11.816406 21.574219 C 10.554688 15.242188 8.222656 9.566406 6.480469 6.078125 C 4.652344 2.417969 3.070312 0.304688 2.101562 0.574219 C 1.101562 0.851562 0.890625 3.5 1.398438 7.609375 C 1.902344 11.699219 3.191406 17.121094 4.175781 22.980469 C 4.28125 23.597656 4.386719 24.214844 4.492188 24.847656 Z M 4.492188 24.84375 " fill-opacity="1" fill-rule="nonzero"/></g></g></g></g><path fill="#9fc865" d="M 687.871094 857.253906 C 865.273438 857.253906 1089.359375 813.683594 1145.382812 791.894531 C 1201.40625 770.109375 1226.304688 726.539062 1226.304688 726.539062 C 1226.304688 726.539062 1266.761719 667.402344 1254.3125 667.402344 C 1241.863281 667.402344 267.707031 682.964844 267.707031 682.964844 C 267.707031 682.964844 258.367188 726.539062 305.054688 751.4375 C 351.738281 776.335938 510.46875 857.253906 687.871094 857.253906 Z M 687.871094 857.253906 " fill-opacity="1" fill-rule="nonzero"/><path fill="#efe3e2" d="M 830.878906 896.015625 C 873.792969 893.816406 909.003906 893.816406 910.105469 853.101562 C 911.203125 812.386719 899.101562 722.15625 822.074219 725.457031 C 745.046875 728.757812 755.863281 842.40625 755.863281 878.332031 C 755.863281 892.121094 787.960938 898.21875 830.878906 896.015625 Z M 830.878906 896.015625 " fill-opacity="1" fill-rule="nonzero"/><g mask="url(#61c50ce133)"><g transform="matrix(1, 0, 0, 1, 774, 733)"><g clip-path="url(#74a66f2e64)"><g clip-path="url(#c0a0a930a8)"><path fill="#ffffff" d="M 108.714844 138.261719 C 129.722656 129.703125 121.945312 93.132812 116.496094 56.5625 C 111.050781 19.992188 80.707031 2.097656 52.695312 0.539062 C 33.242188 0.539062 13.789062 16.878906 5.230469 48.78125 C -3.328125 80.683594 1.339844 127.367188 22.347656 139.039062 C 43.355469 150.710938 87.707031 146.820312 108.714844 138.261719 Z M 108.714844 138.261719 " fill-opacity="1" fill-rule="nonzero"/></g></g></g></g><path fill="#ffffff" d="M 798.589844 760.625 L 798.636719 760.566406 C 805.367188 752.011719 812.691406 746.375 818.847656 742.511719 C 824.8125 738.773438 829.019531 736.953125 828.753906 735.914062 C 828.515625 734.984375 823.695312 734.785156 816.414062 737.589844 C 809.042969 740.429688 800.015625 746.144531 792.503906 755.757812 L 792.449219 755.828125 C 784.902344 765.445312 781.535156 775.621094 780.582031 783.480469 C 779.636719 791.25 781.03125 795.882812 781.988281 795.882812 C 783.0625 795.882812 783.785156 791.347656 785.953125 784.640625 C 788.195312 777.714844 791.890625 769.226562 798.589844 760.625 Z M 798.589844 760.625 " fill-opacity="1" fill-rule="nonzero"/><path fill="#ffffff" d="M 780.886719 861.90625 C 781.023438 861.632812 780.5625 859.582031 780.09375 857.777344 C 779.761719 856.160156 779.652344 854.882812 779.4375 852.476562 C 779.070312 848.019531 779.042969 844.523438 778.996094 838.570312 C 778.996094 838.535156 778.988281 837.769531 778.988281 837.734375 C 778.953125 832.679688 778.9375 826.273438 778.847656 822.820312 C 778.792969 820.753906 778.683594 818.652344 778.5625 817.363281 C 778.527344 815.613281 777.855469 814.203125 777.585938 814.039062 C 776.867188 813.605469 775.832031 814.625 774.863281 816.632812 C 774.15625 818.058594 773.527344 819.890625 772.96875 822.164062 C 771.929688 826.363281 771.222656 831.703125 771.199219 837.746094 C 771.195312 838.035156 771.195312 838.324219 771.199219 838.617188 C 771.222656 844.371094 771.890625 849.398438 773.265625 853.738281 C 774.019531 856.167969 774.992188 858.160156 776.175781 859.710938 C 778.285156 862.730469 780.601562 862.480469 780.886719 861.90625 Z M 780.886719 861.90625 " fill-opacity="1" fill-rule="nonzero"/><path fill="#efe3e2" d="M 344.734375 788.003906 C 355.628906 774 343.957031 728.871094 337.734375 714.085938 C 331.507812 699.304688 317.460938 694.652344 311.277344 696.96875 C 306.878906 698.621094 305.007812 701.246094 304.277344 709.417969 C 302.539062 728.855469 303.496094 790.339844 312.835938 795.007812 C 322.171875 799.675781 333.84375 802.011719 344.734375 788.003906 Z M 344.734375 788.003906 " fill-opacity="1" fill-rule="nonzero"/><path fill="#efe3e2" d="M 310.070312 781.851562 C 314.472656 776.625 313.921875 741.6875 308.421875 726.835938 C 302.917969 711.980469 278.984375 694.648438 271.007812 694.921875 C 265.503906 701.800781 268.53125 707.851562 269.90625 718.03125 C 271.28125 728.210938 290.8125 773.324219 297.417969 779.378906 C 304.019531 785.429688 305.667969 787.082031 310.070312 781.851562 Z M 310.070312 781.851562 " fill-opacity="1" fill-rule="nonzero"/><path fill="#efe3e2" d="M 679.796875 896.015625 C 722.710938 898.21875 754.8125 892.121094 754.8125 878.332031 C 754.8125 842.40625 765.625 728.757812 688.601562 725.457031 C 611.574219 722.15625 599.46875 812.386719 600.570312 853.101562 C 601.671875 893.816406 636.882812 893.816406 679.796875 896.015625 Z M 679.796875 896.015625 " fill-opacity="1" fill-rule="nonzero"/><g mask="url(#fb8ee11cd1)"><g transform="matrix(1, 0, 0, 1, 613, 733)"><g clip-path="url(#c3bafbbb7e)"><g clip-path="url(#e3c408afd1)"><path fill="#ffffff" d="M 101.324219 139.039062 C 122.332031 127.367188 127 80.683594 118.441406 48.78125 C 109.882812 16.878906 90.433594 0.539062 70.980469 0.539062 C 42.96875 2.097656 12.625 19.992188 7.175781 56.5625 C 1.730469 93.132812 -6.050781 129.703125 14.957031 138.261719 C 35.964844 146.820312 80.316406 150.710938 101.324219 139.039062 Z M 101.324219 139.039062 " fill-opacity="1" fill-rule="nonzero"/></g></g></g></g><path fill="#ffffff" d="M 640.828125 760.625 L 640.878906 760.566406 C 647.605469 752.011719 654.933594 746.375 661.089844 742.511719 C 667.054688 738.773438 671.257812 736.953125 670.992188 735.914062 C 670.757812 734.984375 665.9375 734.785156 658.652344 737.589844 C 651.285156 740.429688 642.253906 746.144531 634.746094 755.757812 L 634.691406 755.828125 C 627.140625 765.445312 623.777344 775.621094 622.820312 783.480469 C 621.878906 791.25 623.269531 795.882812 624.226562 795.882812 C 625.304688 795.882812 626.023438 791.347656 628.195312 784.640625 C 630.4375 777.714844 634.132812 769.226562 640.828125 760.625 Z M 640.828125 760.625 " fill-opacity="1" fill-rule="nonzero"/><path fill="#ffffff" d="M 623.128906 861.90625 C 623.265625 861.632812 622.804688 859.582031 622.332031 857.777344 C 622.003906 856.160156 621.894531 854.882812 621.675781 852.476562 C 621.308594 848.019531 621.285156 844.523438 621.234375 838.570312 C 621.234375 838.535156 621.226562 837.769531 621.226562 837.734375 C 621.195312 832.679688 621.175781 826.273438 621.085938 822.820312 C 621.035156 820.753906 620.925781 818.652344 620.804688 817.363281 C 620.769531 815.613281 620.097656 814.203125 619.828125 814.039062 C 619.105469 813.605469 618.074219 814.625 617.105469 816.632812 C 616.398438 818.058594 615.769531 819.890625 615.210938 822.164062 C 614.171875 826.363281 613.460938 831.703125 613.441406 837.746094 C 613.4375 838.035156 613.4375 838.324219 613.4375 838.617188 C 613.460938 844.371094 614.132812 849.398438 615.503906 853.738281 C 616.257812 856.167969 617.230469 858.160156 618.414062 859.710938 C 620.527344 862.730469 622.839844 862.480469 623.128906 861.90625 Z M 623.128906 861.90625 " fill-opacity="1" fill-rule="nonzero"/><path fill="#efe3e2" d="M 543.976562 875.816406 C 576.96875 877.867188 601.648438 872.1875 601.648438 859.339844 C 601.648438 825.863281 609.964844 719.96875 550.742188 716.894531 C 491.523438 713.820312 482.21875 797.894531 483.066406 835.832031 C 483.910156 873.765625 510.980469 873.765625 543.976562 875.816406 Z M 543.976562 875.816406 " fill-opacity="1" fill-rule="nonzero"/><g mask="url(#f677e94d99)"><g transform="matrix(1, 0, 0, 1, 493, 724)"><g clip-path="url(#f4955d1b25)"><g clip-path="url(#4b09f29dbd)"><path fill="#ffffff" d="M 5.140625 52.625 C 0.953125 86.699219 -5.03125 120.773438 11.121094 128.75 C 27.273438 136.722656 61.371094 140.347656 77.523438 129.472656 C 93.671875 118.597656 97.261719 75.097656 90.683594 45.375 C 84.101562 15.648438 69.148438 0.421875 54.191406 0.421875 C 32.65625 1.871094 9.328125 18.546875 5.140625 52.625 Z M 5.140625 52.625 " fill-opacity="1" fill-rule="nonzero"/></g></g></g></g><path fill="#ffffff" d="M 514.015625 749.664062 L 514.054688 749.605469 C 519.226562 741.632812 524.859375 736.382812 529.59375 732.785156 C 534.179688 729.296875 537.410156 727.605469 537.207031 726.632812 C 537.027344 725.769531 533.320312 725.582031 527.71875 728.195312 C 522.054688 730.839844 515.113281 736.167969 509.339844 745.125 L 509.296875 745.1875 C 503.492188 754.152344 500.90625 763.632812 500.171875 770.957031 C 499.445312 778.195312 500.515625 782.511719 501.253906 782.511719 C 502.082031 782.511719 502.632812 778.289062 504.304688 772.035156 C 506.027344 765.585938 508.867188 757.675781 514.015625 749.660156 Z M 514.015625 749.664062 " fill-opacity="1" fill-rule="nonzero"/><path fill="#ffffff" d="M 500.40625 844.03125 C 500.511719 843.777344 500.15625 841.867188 499.796875 840.183594 C 499.542969 838.679688 499.457031 837.488281 499.292969 835.246094 C 499.007812 831.09375 498.992188 827.835938 498.953125 822.289062 C 498.953125 822.253906 498.945312 821.542969 498.945312 821.511719 C 498.921875 816.800781 498.90625 810.832031 498.839844 807.613281 C 498.800781 805.6875 498.714844 803.730469 498.621094 802.53125 C 498.59375 800.898438 498.078125 799.582031 497.871094 799.429688 C 497.316406 799.027344 496.519531 799.976562 495.777344 801.847656 C 495.234375 803.175781 494.75 804.882812 494.320312 807 C 493.523438 810.914062 492.976562 815.890625 492.957031 821.519531 C 492.957031 821.789062 492.957031 822.0625 492.957031 822.335938 C 492.976562 827.695312 493.492188 832.375 494.546875 836.421875 C 495.125 838.683594 495.875 840.542969 496.785156 841.988281 C 498.40625 844.800781 500.1875 844.570312 500.40625 844.03125 Z M 500.40625 844.03125 " fill-opacity="1" fill-rule="nonzero"/><path fill="#efe3e2" d="M 446.699219 851.191406 C 470.417969 854.398438 488.160156 850.667969 488.160156 839.753906 C 488.160156 811.320312 494.140625 721.738281 451.566406 716.496094 C 408.992188 711.253906 402.300781 782.257812 402.90625 814.519531 C 403.515625 846.78125 422.980469 847.984375 446.699219 851.191406 Z M 446.699219 851.191406 " fill-opacity="1" fill-rule="nonzero"/><g mask="url(#2529d48903)"><g transform="matrix(1, 0, 0, 1, 410, 722)"><g clip-path="url(#67054a7039)"><g clip-path="url(#621c5deda8)"><path fill="#ffffff" d="M 55.785156 111.390625 C 67.394531 102.871094 69.976562 66.078125 65.246094 40.539062 C 60.515625 14.996094 49.761719 1.398438 39.011719 0.734375 C 23.527344 1.007812 6.753906 14.136719 3.746094 42.894531 C 0.734375 71.65625 -3.566406 100.332031 8.046875 107.824219 C 19.65625 115.316406 44.171875 119.910156 55.785156 111.390625 Z M 55.785156 111.390625 " fill-opacity="1" fill-rule="nonzero"/></g></g></g></g><path fill="#ffffff" d="M 425.160156 742.699219 L 425.1875 742.652344 C 428.90625 736.113281 432.957031 731.898438 436.359375 729.054688 C 439.65625 726.296875 441.980469 725 441.832031 724.167969 C 441.703125 723.425781 439.039062 723.105469 435.011719 725.074219 C 430.9375 727.070312 425.949219 731.289062 421.796875 738.636719 L 421.765625 738.691406 C 417.59375 746.046875 415.734375 753.984375 415.207031 760.171875 C 414.6875 766.289062 415.457031 770.007812 415.984375 770.039062 C 416.578125 770.074219 416.976562 766.511719 418.175781 761.273438 C 419.414062 755.871094 421.460938 749.277344 425.160156 742.699219 Z M 425.160156 742.699219 " fill-opacity="1" fill-rule="nonzero"/><path fill="#ffffff" d="M 415.375 822.253906 C 415.453125 822.042969 415.195312 820.40625 414.9375 818.960938 C 414.753906 817.671875 414.695312 816.65625 414.574219 814.742188 C 414.371094 811.203125 414.359375 808.433594 414.332031 803.722656 C 414.332031 803.695312 414.328125 803.089844 414.328125 803.058594 C 414.308594 799.058594 414.296875 793.988281 414.25 791.25 C 414.21875 789.613281 414.160156 787.949219 414.09375 786.921875 C 414.074219 785.539062 413.703125 784.398438 413.550781 784.257812 C 413.15625 783.890625 412.582031 784.660156 412.046875 786.214844 C 411.65625 787.324219 411.308594 788.75 411 790.53125 C 410.425781 793.816406 410.035156 798.023438 410.023438 802.800781 C 410.019531 803.03125 410.019531 803.261719 410.019531 803.496094 C 410.035156 808.046875 410.402344 812.046875 411.164062 815.53125 C 411.578125 817.480469 412.117188 819.089844 412.769531 820.359375 C 413.9375 822.820312 415.21875 822.703125 415.375 822.253906 Z M 415.375 822.253906 " fill-opacity="1" fill-rule="nonzero"/><path fill="#efe3e2" d="M 374.871094 834.28125 C 392.980469 836.882812 406.53125 819.851562 406.53125 811 C 406.53125 787.929688 411.09375 715.253906 378.585938 710.996094 C 346.074219 706.742188 340.964844 764.351562 341.429688 790.523438 C 341.894531 816.699219 356.757812 831.679688 374.871094 834.28125 Z M 374.871094 834.28125 " fill-opacity="1" fill-rule="nonzero"/><g mask="url(#9b82904b4a)"><g transform="matrix(1, 0, 0, 1, 347, 715)"><g clip-path="url(#1630c67383)"><g clip-path="url(#4137baacde)"><path fill="#ffffff" d="M 42.441406 90.835938 C 51.308594 83.921875 53.28125 54.074219 49.667969 33.351562 C 46.054688 12.628906 37.84375 1.597656 29.636719 1.058594 C 17.8125 1.28125 5.003906 11.933594 2.707031 35.265625 C 0.40625 58.597656 -2.875 81.863281 5.992188 87.941406 C 14.855469 94.019531 33.578125 97.75 42.441406 90.835938 Z M 42.441406 90.835938 " fill-opacity="1" fill-rule="nonzero"/></g></g></g></g><path fill="#ffffff" d="M 358.421875 732.257812 L 358.441406 732.21875 C 361.285156 726.914062 364.375 723.496094 366.972656 721.1875 C 369.492188 718.949219 371.265625 717.898438 371.152344 717.222656 C 371.054688 716.621094 369.019531 716.359375 365.945312 717.957031 C 362.835938 719.578125 359.023438 722.996094 355.855469 728.960938 L 355.832031 729.003906 C 352.644531 734.972656 351.226562 741.414062 350.820312 746.433594 C 350.425781 751.394531 351.011719 754.410156 351.414062 754.4375 C 351.871094 754.464844 352.171875 751.574219 353.089844 747.324219 C 354.035156 742.941406 355.597656 737.59375 358.421875 732.257812 Z M 358.421875 732.257812 " fill-opacity="1" fill-rule="nonzero"/><path fill="#ffffff" d="M 350.953125 796.800781 C 351.007812 796.628906 350.816406 795.300781 350.617188 794.128906 C 350.476562 793.082031 350.429688 792.257812 350.339844 790.707031 C 350.183594 787.835938 350.175781 785.589844 350.152344 781.765625 C 350.152344 781.742188 350.148438 781.25 350.148438 781.226562 C 350.136719 777.980469 350.128906 773.867188 350.089844 771.644531 C 350.070312 770.316406 350.023438 768.96875 349.972656 768.136719 C 349.957031 767.011719 349.671875 766.085938 349.558594 765.972656 C 349.253906 765.675781 348.816406 766.300781 348.410156 767.5625 C 348.109375 768.460938 347.847656 769.617188 347.609375 771.0625 C 347.171875 773.730469 346.871094 777.140625 346.863281 781.019531 C 346.863281 781.203125 346.863281 781.390625 346.863281 781.578125 C 346.871094 785.273438 347.15625 788.519531 347.734375 791.34375 C 348.050781 792.925781 348.460938 794.234375 348.960938 795.261719 C 349.855469 797.257812 350.828125 797.164062 350.953125 796.800781 Z M 350.953125 796.800781 " fill-opacity="1" fill-rule="nonzero"/><path fill="#efe3e2" d="M 1194.164062 795.007812 C 1203.5 790.339844 1204.460938 728.855469 1202.722656 709.417969 C 1201.992188 701.246094 1200.121094 698.621094 1195.71875 696.96875 C 1189.535156 694.652344 1175.488281 699.304688 1169.265625 714.085938 C 1163.039062 728.871094 1151.367188 774 1162.261719 788.003906 C 1173.152344 802.011719 1184.824219 799.675781 1194.164062 795.007812 Z M 1194.164062 795.007812 " fill-opacity="1" fill-rule="nonzero"/><path fill="#efe3e2" d="M 1209.582031 779.378906 C 1216.183594 773.324219 1235.714844 728.210938 1237.089844 718.03125 C 1238.464844 707.851562 1241.492188 701.800781 1235.988281 694.921875 C 1228.011719 694.648438 1204.078125 711.980469 1198.578125 726.835938 C 1193.074219 741.6875 1192.523438 776.625 1196.925781 781.851562 C 1201.328125 787.078125 1202.976562 785.429688 1209.582031 779.378906 Z M 1209.582031 779.378906 " fill-opacity="1" fill-rule="nonzero"/><path fill="#efe3e2" d="M 963.019531 875.816406 C 996.015625 873.765625 1023.085938 873.765625 1023.933594 835.828125 C 1024.777344 797.894531 1015.472656 713.820312 956.253906 716.894531 C 897.03125 719.96875 905.347656 825.863281 905.347656 859.339844 C 905.347656 872.1875 930.027344 877.867188 963.019531 875.816406 Z M 963.019531 875.816406 " fill-opacity="1" fill-rule="nonzero"/><g mask="url(#0f341b022c)"><g transform="matrix(1, 0, 0, 1, 919, 724)"><g clip-path="url(#763d9ec5a4)"><g clip-path="url(#66d90b92a2)"><path fill="#ffffff" d="M 83.875 128.75 C 100.027344 120.773438 94.046875 86.699219 89.859375 52.625 C 85.671875 18.546875 62.339844 1.875 40.804688 0.421875 C 25.851562 0.421875 10.894531 15.648438 4.3125 45.375 C -2.265625 75.097656 1.324219 118.597656 17.472656 129.472656 C 33.625 140.347656 67.722656 136.722656 83.875 128.75 Z M 83.875 128.75 " fill-opacity="1" fill-rule="nonzero"/></g></g></g></g><path fill="#ffffff" d="M 941.042969 748.882812 L 941.078125 748.828125 C 946.253906 740.855469 951.886719 735.605469 956.617188 732.007812 C 961.203125 728.519531 964.4375 726.824219 964.234375 725.855469 C 964.050781 724.992188 960.34375 724.804688 954.746094 727.417969 C 949.078125 730.0625 942.136719 735.390625 936.363281 744.347656 L 936.320312 744.410156 C 930.519531 753.375 927.929688 762.855469 927.199219 770.179688 C 926.472656 777.417969 927.542969 781.734375 928.277344 781.734375 C 929.105469 781.734375 929.660156 777.511719 931.328125 771.257812 C 933.050781 764.808594 935.894531 756.894531 941.042969 748.882812 Z M 941.042969 748.882812 " fill-opacity="1" fill-rule="nonzero"/><path fill="#ffffff" d="M 927.433594 843.253906 C 927.539062 843 927.183594 841.089844 926.820312 839.40625 C 926.566406 837.902344 926.484375 836.710938 926.316406 834.46875 C 926.035156 830.3125 926.015625 827.058594 925.976562 821.511719 C 925.976562 821.476562 925.972656 820.765625 925.972656 820.734375 C 925.945312 816.023438 925.933594 810.054688 925.863281 806.832031 C 925.824219 804.90625 925.738281 802.953125 925.648438 801.75 C 925.621094 800.121094 925.101562 798.804688 924.894531 798.652344 C 924.339844 798.246094 923.546875 799.199219 922.800781 801.066406 C 922.257812 802.398438 921.777344 804.105469 921.34375 806.222656 C 920.546875 810.136719 920 815.113281 919.984375 820.742188 C 919.984375 821.011719 919.980469 821.28125 919.984375 821.554688 C 920 826.917969 920.515625 831.597656 921.570312 835.640625 C 922.152344 837.90625 922.898438 839.765625 923.808594 841.210938 C 925.433594 844.023438 927.210938 843.789062 927.433594 843.253906 Z M 927.433594 843.253906 " fill-opacity="1" fill-rule="nonzero"/><path fill="#efe3e2" d="M 1060.296875 851.191406 C 1084.019531 847.984375 1103.480469 846.78125 1104.089844 814.519531 C 1104.695312 782.257812 1098.007812 711.253906 1055.433594 716.496094 C 1012.859375 721.742188 1018.835938 811.320312 1018.835938 839.753906 C 1018.835938 850.667969 1036.578125 854.398438 1060.296875 851.191406 Z M 1060.296875 851.191406 " fill-opacity="1" fill-rule="nonzero"/><g mask="url(#a98fb37673)"><g transform="matrix(1, 0, 0, 1, 1029, 722)"><g clip-path="url(#732ea82748)"><g clip-path="url(#3b116dc23a)"><path fill="#ffffff" d="M 59.949219 107.824219 C 71.5625 100.332031 67.261719 71.65625 64.25 42.898438 C 61.242188 14.136719 44.46875 1.011719 28.984375 0.734375 C 18.234375 1.398438 7.480469 14.996094 2.75 40.539062 C -1.980469 66.078125 0.601562 102.871094 12.210938 111.390625 C 23.824219 119.910156 48.339844 115.316406 59.949219 107.824219 Z M 59.949219 107.824219 " fill-opacity="1" fill-rule="nonzero"/></g></g></g></g><path fill="#ffffff" d="M 1045.285156 741.144531 L 1045.308594 741.097656 C 1049.03125 734.554688 1053.078125 730.34375 1056.480469 727.5 C 1059.777344 724.742188 1062.105469 723.445312 1061.957031 722.613281 C 1061.824219 721.871094 1059.160156 721.546875 1055.136719 723.519531 C 1051.0625 725.515625 1046.070312 729.730469 1041.921875 737.082031 L 1041.890625 737.132812 C 1037.71875 744.492188 1035.859375 752.429688 1035.332031 758.617188 C 1034.808594 764.734375 1035.578125 768.449219 1036.109375 768.480469 C 1036.703125 768.519531 1037.101562 764.953125 1038.300781 759.71875 C 1039.539062 754.316406 1041.582031 747.722656 1045.285156 741.144531 Z M 1045.285156 741.144531 " fill-opacity="1" fill-rule="nonzero"/><path fill="#ffffff" d="M 1035.5 820.699219 C 1035.574219 820.488281 1035.320312 818.851562 1035.058594 817.402344 C 1034.878906 816.113281 1034.816406 815.097656 1034.699219 813.1875 C 1034.496094 809.644531 1034.480469 806.878906 1034.453125 802.167969 C 1034.453125 802.136719 1034.449219 801.53125 1034.449219 801.503906 C 1034.429688 797.503906 1034.421875 792.429688 1034.371094 789.695312 C 1034.34375 788.054688 1034.28125 786.390625 1034.214844 785.367188 C 1034.195312 783.980469 1033.824219 782.839844 1033.675781 782.703125 C 1033.277344 782.332031 1032.707031 783.105469 1032.171875 784.660156 C 1031.777344 785.765625 1031.433594 787.195312 1031.121094 788.972656 C 1030.550781 792.261719 1030.15625 796.464844 1030.144531 801.246094 C 1030.144531 801.476562 1030.144531 801.707031 1030.144531 801.9375 C 1030.15625 806.492188 1030.527344 810.492188 1031.285156 813.972656 C 1031.703125 815.921875 1032.238281 817.535156 1032.894531 818.804688 C 1034.0625 821.265625 1035.339844 821.144531 1035.5 820.699219 Z M 1035.5 820.699219 " fill-opacity="1" fill-rule="nonzero"/><path fill="#efe3e2" d="M 1132.125 834.28125 C 1150.238281 831.679688 1165.101562 816.699219 1165.566406 790.523438 C 1166.03125 764.351562 1160.921875 706.742188 1128.410156 710.996094 C 1095.902344 715.25 1100.464844 787.929688 1100.464844 811 C 1100.464844 819.851562 1114.015625 836.882812 1132.128906 834.28125 Z M 1132.125 834.28125 " fill-opacity="1" fill-rule="nonzero"/><g mask="url(#6f0e0bf2a9)"><g transform="matrix(1, 0, 0, 1, 1108, 715)"><g clip-path="url(#fba4d84b81)"><g clip-path="url(#a785d92bb1)"><path fill="#ffffff" d="M 46.007812 87.941406 C 54.875 81.863281 51.589844 58.597656 49.289062 35.265625 C 46.992188 11.933594 34.183594 1.28125 22.363281 1.058594 C 14.152344 1.597656 5.941406 12.628906 2.328125 33.351562 C -1.285156 54.074219 0.6875 83.921875 9.554688 90.835938 C 18.421875 97.75 37.140625 94.019531 46.007812 87.941406 Z M 46.007812 87.941406 " fill-opacity="1" fill-rule="nonzero"/></g></g></g></g><path fill="#ffffff" d="M 1121.722656 731.480469 L 1121.742188 731.441406 C 1124.582031 726.132812 1127.675781 722.71875 1130.273438 720.410156 C 1132.792969 718.171875 1134.566406 717.121094 1134.453125 716.445312 C 1134.351562 715.84375 1132.320312 715.582031 1129.246094 717.179688 C 1126.132812 718.796875 1122.324219 722.21875 1119.152344 728.183594 L 1119.128906 728.226562 C 1115.945312 734.195312 1114.523438 740.632812 1114.121094 745.65625 C 1113.722656 750.617188 1114.3125 753.632812 1114.714844 753.660156 C 1115.167969 753.6875 1115.472656 750.796875 1116.390625 746.546875 C 1117.335938 742.164062 1118.894531 736.816406 1121.722656 731.480469 Z M 1121.722656 731.480469 " fill-opacity="1" fill-rule="nonzero"/><path fill="#ffffff" d="M 1114.25 796.023438 C 1114.308594 795.851562 1114.113281 794.523438 1113.914062 793.347656 C 1113.777344 792.304688 1113.730469 791.480469 1113.636719 789.925781 C 1113.484375 787.054688 1113.472656 784.8125 1113.453125 780.988281 C 1113.453125 780.964844 1113.449219 780.472656 1113.449219 780.449219 C 1113.433594 777.203125 1113.425781 773.089844 1113.390625 770.867188 C 1113.367188 769.539062 1113.320312 768.1875 1113.269531 767.355469 C 1113.253906 766.234375 1112.972656 765.308594 1112.855469 765.195312 C 1112.554688 764.894531 1112.117188 765.523438 1111.707031 766.785156 C 1111.410156 767.679688 1111.144531 768.839844 1110.910156 770.28125 C 1110.46875 772.949219 1110.171875 776.363281 1110.160156 780.242188 C 1110.160156 780.425781 1110.160156 780.613281 1110.160156 780.800781 C 1110.171875 784.496094 1110.453125 787.742188 1111.035156 790.566406 C 1111.351562 792.148438 1111.761719 793.457031 1112.261719 794.484375 C 1113.152344 796.480469 1114.128906 796.382812 1114.25 796.023438 Z M 1114.25 796.023438 " fill-opacity="1" fill-rule="nonzero"/><g clip-path="url(#c7bdbfc146)"><path fill="#339ca7" d="M 749.996094 1198.914062 C 956.621094 1191.066406 1090.410156 1108.054688 1191.949219 967.742188 C 1239.773438 901.652344 1286.796875 766.015625 1305.546875 689.1875 C 1192.710938 641.121094 1076.339844 579.730469 952.296875 570.917969 C 825.292969 570.664062 825.582031 617.800781 749.996094 617.800781 C 674.410156 617.800781 674.699219 570.664062 547.695312 570.917969 C 423.65625 579.730469 307.285156 641.121094 194.445312 689.1875 C 213.199219 766.015625 260.21875 901.652344 308.046875 967.742188 C 409.582031 1108.054688 543.371094 1191.066406 749.996094 1198.914062 Z M 223.582031 700.355469 C 232.460938 699.707031 241.660156 699.316406 251.140625 699.144531 C 393.394531 696.601562 599.753906 728.015625 749.996094 728.015625 C 906.453125 728.015625 1115.921875 699.417969 1276.414062 700.355469 C 1131.085938 944.585938 976.308594 974.835938 749.996094 974.835938 C 523.683594 974.835938 368.910156 944.585938 223.582031 700.355469 Z M 223.582031 700.355469 " fill-opacity="1" fill-rule="nonzero"/></g><g mask="url(#6ee1a06ccb)"><g transform="matrix(1, 0, 0, 1, 339, 590)"><g clip-path="url(#20e31dcf9c)"><g clip-path="url(#46f7a891a0)"><path fill="#ffffff" d="M 308.867188 82.070312 C 369.554688 77.402344 353.996094 30.71875 296.417969 12.042969 C 212.382812 -8.1875 161.03125 2.707031 122.125 13.601562 C 83.222656 24.492188 -19.484375 60.285156 3.859375 71.179688 C 27.199219 82.070312 248.175781 86.738281 308.867188 82.070312 Z M 308.867188 82.070312 " fill-opacity="1" fill-rule="nonzero"/></g></g></g></g><g mask="url(#ec85f21582)"><g transform="matrix(1, 0, 0, 1, 820, 590)"><g clip-path="url(#2c0505e33c)"><g clip-path="url(#c293cb9397)"><path fill="#ffffff" d="M 241.804688 61.839844 C 296.269531 54.058594 235.582031 4.261719 157.773438 2.707031 C 97.082031 -6.628906 -10.292969 27.605469 2.15625 50.949219 C 14.605469 74.289062 187.339844 69.621094 241.804688 61.839844 Z M 241.804688 61.839844 " fill-opacity="1" fill-rule="nonzero"/></g></g></g></g><g mask="url(#623c131d8f)"><g transform="matrix(1, 0, 0, 1, 467, 987)"><g clip-path="url(#63f3052c1b)"><g clip-path="url(#564fad62e5)"><path fill="#ffffff" d="M 309.8125 126.851562 C 474.867188 113.648438 560.699219 85.039062 549.695312 41.023438 C 538.691406 -2.992188 364.832031 14.617188 261.398438 23.417969 C 261.398438 23.417969 168.964844 23.417969 94.140625 10.214844 C 19.3125 -2.992188 -29.101562 -9.59375 21.515625 47.625 C 72.132812 104.847656 144.757812 140.058594 309.8125 126.851562 Z M 309.8125 126.851562 " fill-opacity="1" fill-rule="nonzero"/></g></g></g></g></svg>