<svg xmlns="http://www.w3.org/2000/svg" xmlns:xlink="http://www.w3.org/1999/xlink" width="2000" zoomAndPan="magnify" viewBox="0 0 1500 1499.999933" height="2000" preserveAspectRatio="xMidYMid meet" version="1.0"><defs><clipPath id="30073b70cd"><path d="M 192.921875 405 L 995 405 L 995 1350 L 192.921875 1350 Z M 192.921875 405 " clip-rule="nonzero"/></clipPath><clipPath id="b48cf07a0f"><path d="M 390 158.386719 L 1307.421875 158.386719 L 1307.421875 994 L 390 994 Z M 390 158.386719 " clip-rule="nonzero"/></clipPath></defs><g clip-path="url(#30073b70cd)"><path fill="#339ca7" d="M 909.863281 519.992188 C 904.144531 512.671875 905.445312 502.097656 912.765625 496.378906 C 920.085938 490.660156 930.660156 491.960938 936.378906 499.28125 C 954.976562 523.078125 969.816406 550.484375 979.894531 580.394531 C 989.609375 609.230469 994.914062 640.300781 994.914062 672.609375 C 994.914062 711.453125 987.261719 748.460938 973.511719 781.914062 C 959.214844 816.691406 938.324219 847.515625 912.582031 872.460938 C 907.140625 877.738281 903.1875 883.722656 900.804688 890.214844 C 898.414062 896.734375 897.550781 903.863281 898.285156 911.410156 C 905.097656 981.054688 902.328125 1058.449219 887.722656 1133.085938 C 874.574219 1200.292969 851.800781 1265.507812 817.75 1321.222656 C 810.902344 1332.433594 801.066406 1340.703125 789.71875 1345.425781 C 778.347656 1350.15625 765.558594 1351.316406 752.828125 1348.285156 C 740.09375 1345.253906 729.179688 1338.449219 721.136719 1329.070312 C 713.117188 1319.726562 708.050781 1307.910156 706.988281 1294.828125 C 701.144531 1223 687.992188 1135.230469 661.960938 1074.320312 C 644.757812 1034.074219 622.457031 1006.4375 593.910156 1006.4375 C 565.359375 1006.4375 543.058594 1034.074219 525.859375 1074.320312 C 499.828125 1135.230469 486.675781 1222.996094 480.828125 1294.832031 C 479.761719 1307.90625 474.703125 1319.726562 466.683594 1329.070312 C 458.636719 1338.445312 447.722656 1345.253906 434.988281 1348.285156 C 422.261719 1351.3125 409.472656 1350.152344 398.101562 1345.421875 C 386.75 1340.703125 376.914062 1332.429688 370.066406 1321.222656 C 336.019531 1265.503906 313.246094 1200.292969 300.09375 1133.082031 C 285.488281 1058.441406 282.722656 981.050781 289.53125 911.410156 C 290.273438 903.859375 289.40625 896.730469 287.015625 890.214844 C 284.632812 883.71875 280.679688 877.738281 275.238281 872.460938 C 249.5 847.515625 228.605469 816.691406 214.308594 781.910156 C 200.5625 748.457031 192.90625 711.449219 192.90625 672.609375 C 192.90625 599.152344 220.105469 532.546875 264.082031 484.246094 C 308.441406 435.519531 369.824219 405.378906 437.707031 405.378906 C 461.015625 405.378906 483.628906 408.96875 505.109375 415.671875 C 527.199219 422.5625 548.023438 432.769531 567.101562 445.757812 C 575.375 451.390625 584.65625 454.207031 593.914062 454.207031 C 603.175781 454.207031 612.453125 451.390625 620.726562 445.757812 C 639.082031 433.257812 659.117188 423.328125 680.40625 416.429688 C 700.96875 409.769531 722.699219 405.988281 745.21875 405.5 C 754.511719 405.320312 762.1875 412.703125 762.371094 421.988281 C 762.550781 431.277344 755.167969 438.957031 745.878906 439.136719 C 726.796875 439.550781 708.289062 442.785156 690.695312 448.484375 C 672.625 454.339844 655.507812 462.84375 639.722656 473.59375 C 625.636719 483.183594 609.785156 487.980469 593.914062 487.980469 C 578.042969 487.980469 562.191406 483.183594 548.105469 473.59375 C 531.785156 462.480469 513.976562 453.753906 495.082031 447.859375 C 476.910156 442.1875 457.667969 439.152344 437.710938 439.152344 C 379.71875 439.152344 327.140625 465.058594 289.015625 506.933594 C 250.5 549.238281 226.679688 607.804688 226.679688 672.609375 C 226.679688 707.121094 233.390625 739.785156 245.441406 769.113281 C 257.953125 799.554688 276.222656 826.515625 298.71875 848.316406 C 307.863281 857.183594 314.558594 867.390625 318.675781 878.601562 C 322.785156 889.792969 324.28125 901.898438 323.039062 914.574219 C 316.539062 981.054688 319.210938 1055.070312 333.207031 1126.617188 C 345.648438 1190.210938 367.019531 1251.628906 398.828125 1303.675781 C 401.851562 1308.625 406.132812 1312.253906 411.03125 1314.289062 C 415.910156 1316.320312 421.515625 1316.789062 427.207031 1315.4375 C 432.894531 1314.085938 437.671875 1311.15625 441.089844 1307.171875 C 444.535156 1303.160156 446.71875 1297.992188 447.191406 1292.195312 C 453.261719 1217.628906 467.117188 1126.042969 494.859375 1061.132812 C 517.277344 1008.679688 549.121094 972.667969 593.910156 972.667969 C 638.699219 972.667969 670.546875 1008.679688 692.964844 1061.132812 C 720.703125 1126.042969 734.5625 1217.628906 740.632812 1292.195312 C 741.105469 1297.992188 743.285156 1303.160156 746.730469 1307.171875 C 750.152344 1311.15625 754.929688 1314.085938 760.617188 1315.4375 C 766.308594 1316.789062 771.914062 1316.320312 776.796875 1314.289062 C 781.691406 1312.253906 785.972656 1308.625 789 1303.675781 C 820.804688 1251.628906 842.175781 1190.214844 854.621094 1126.621094 C 868.617188 1055.078125 871.285156 981.0625 864.785156 914.574219 C 863.546875 901.894531 865.039062 889.792969 869.148438 878.601562 C 873.265625 867.390625 879.960938 857.183594 889.109375 848.316406 C 911.601562 826.515625 929.871094 799.554688 942.382812 769.113281 C 954.4375 739.785156 961.148438 707.121094 961.148438 672.609375 C 961.148438 643.828125 956.492188 616.367188 947.972656 591.078125 C 939.125 564.820312 926.128906 540.800781 909.867188 519.992188 Z M 909.863281 519.992188 " fill-opacity="1" fill-rule="evenodd"/></g><path fill="#9fc865" d="M 346.367188 533.445312 C 353.363281 527.289062 364.023438 527.96875 370.179688 534.960938 C 376.335938 541.957031 375.65625 552.617188 368.660156 558.773438 C 353.402344 572.195312 341.316406 589.625 332.984375 608.90625 C 324.355469 628.867188 319.730469 650.882812 319.730469 672.609375 C 319.730469 680.140625 320.183594 687.386719 321.09375 694.277344 C 322.003906 701.214844 323.421875 708.273438 325.34375 715.378906 C 327.746094 724.375 322.398438 733.621094 313.402344 736.023438 C 304.40625 738.425781 295.164062 733.082031 292.757812 724.085938 C 290.558594 715.925781 288.875 707.410156 287.71875 698.628906 C 286.546875 689.730469 285.957031 681.03125 285.957031 672.609375 C 285.957031 646.535156 291.601562 619.910156 302.113281 595.582031 C 312.429688 571.707031 327.417969 550.109375 346.367188 533.441406 Z M 335.695312 801.25 C 329.285156 794.546875 329.519531 783.914062 336.222656 777.503906 C 342.925781 771.089844 353.554688 771.328125 359.96875 778.03125 C 360.472656 778.558594 360.085938 778.121094 361.707031 779.753906 C 362.246094 780.296875 362.835938 780.882812 363.476562 781.503906 C 370.144531 787.988281 370.292969 798.648438 363.808594 805.3125 C 357.324219 811.976562 346.664062 812.125 340 805.640625 C 339.3125 804.976562 338.589844 804.261719 337.828125 803.496094 C 337.511719 803.175781 337.476562 803.109375 335.695312 801.25 Z M 335.695312 801.25 " fill-opacity="1" fill-rule="evenodd"/><g clip-path="url(#b48cf07a0f)"><path fill="#9fc865" d="M 1065.519531 308.746094 L 1079.027344 337.335938 C 1083.710938 347.261719 1092.027344 354.363281 1101.648438 357.8125 C 1111.269531 361.261719 1122.207031 361.054688 1132.140625 356.363281 L 1262.96875 294.566406 C 1267.511719 292.417969 1270.765625 288.613281 1272.339844 284.21875 C 1273.917969 279.816406 1273.820312 274.808594 1271.667969 270.253906 L 1239.679688 202.539062 C 1237.535156 197.992188 1233.726562 194.738281 1229.332031 193.164062 C 1224.933594 191.585938 1219.921875 191.683594 1215.371094 193.835938 L 1084.542969 255.632812 C 1074.621094 260.320312 1067.515625 268.636719 1064.070312 278.257812 C 1060.621094 287.875 1060.828125 298.816406 1065.519531 308.75 Z M 1074 381.25 C 1001.011719 420.085938 934.570312 460.210938 874.679688 501.625 C 812.304688 544.761719 756.933594 589.355469 708.578125 635.410156 C 655.667969 685.796875 611.292969 737.8125 575.445312 791.453125 C 539.722656 844.90625 512.445312 899.96875 493.628906 956.632812 L 493.6875 956.652344 C 489.101562 970.523438 479.316406 981.230469 467.199219 987.324219 C 455.066406 993.429688 440.636719 994.917969 426.792969 990.339844 C 412.921875 985.753906 402.210938 975.96875 396.117188 963.851562 C 390.015625 951.71875 388.527344 937.289062 393.101562 923.445312 L 393.167969 923.445312 C 414.921875 857.933594 446.015625 794.777344 486.453125 733.972656 C 526.816406 673.273438 576.503906 614.816406 635.515625 558.617188 C 687.777344 508.839844 747.449219 460.765625 814.527344 414.390625 C 878.890625 369.886719 950.160156 326.929688 1028.328125 285.511719 C 1028.882812 279.148438 1030.265625 272.890625 1032.410156 266.90625 C 1038.773438 249.144531 1051.871094 233.796875 1070.164062 225.15625 L 1200.992188 163.359375 C 1213.894531 157.265625 1228.136719 157.007812 1240.675781 161.5 C 1253.222656 165.996094 1264.054688 175.242188 1270.152344 188.152344 L 1302.140625 255.871094 C 1308.234375 268.777344 1308.492188 283.015625 1304 295.558594 C 1299.503906 308.101562 1290.257812 318.933594 1277.34375 325.035156 L 1146.519531 386.832031 C 1128.238281 395.46875 1108.066406 395.835938 1090.304688 389.46875 C 1084.566406 387.414062 1079.082031 384.65625 1073.996094 381.25 Z M 1033.929688 320.636719 C 961.050781 359.683594 894.289062 400.171875 833.65625 442.09375 C 768.105469 487.414062 709.796875 534.394531 658.734375 583.023438 C 601.582031 637.457031 553.519531 693.972656 514.550781 752.574219 C 475.65625 811.0625 445.835938 871.535156 425.097656 933.980469 L 425.160156 934 C 423.480469 939.078125 424 944.320312 426.195312 948.6875 C 428.402344 953.070312 432.296875 956.621094 437.34375 958.289062 C 442.421875 959.96875 447.664062 959.445312 452.027344 957.25 C 456.414062 955.042969 459.964844 951.152344 461.632812 946.101562 L 461.699219 946.101562 C 481.511719 886.441406 510.105469 828.648438 547.480469 772.722656 C 584.734375 716.976562 630.695312 663.070312 685.359375 611.007812 C 734.914062 563.8125 791.648438 518.117188 855.554688 473.925781 C 914.515625 433.152344 979.507812 393.707031 1050.527344 355.59375 C 1049.835938 354.332031 1049.175781 353.039062 1048.554688 351.71875 L 1035.046875 323.128906 C 1034.65625 322.304688 1034.285156 321.472656 1033.929688 320.640625 Z M 1033.929688 320.636719 " fill-opacity="1" fill-rule="evenodd"/></g></svg>