<svg xmlns="http://www.w3.org/2000/svg" xmlns:xlink="http://www.w3.org/1999/xlink" width="2000" zoomAndPan="magnify" viewBox="0 0 1500 1499.999933" height="2000" preserveAspectRatio="xMidYMid meet" version="1.0"><defs><clipPath id="336a0fdcde"><path d="M 135.386719 169 L 1359 169 L 1359 1311 L 135.386719 1311 Z M 135.386719 169 " clip-rule="nonzero"/></clipPath></defs><path fill="#ffffff" d="M 546.371094 430.492188 L 542.929688 449.484375 C 536.214844 486.683594 503.914062 512.703125 467.480469 512.703125 C 419.140625 512.703125 382.816406 468.757812 391.359375 421.460938 L 394.777344 402.464844 L 480.539062 375.367188 Z M 546.371094 430.492188 " fill-opacity="1" fill-rule="nonzero"/><path fill="#ffffff" d="M 1295.183594 470.820312 C 1321.34375 475.644531 1338.714844 500.828125 1333.957031 527.035156 C 1329.183594 553.425781 1303.941406 570.585938 1278.027344 565.742188 L 1230.816406 557.070312 L 1214.8125 506.609375 L 1247.949219 462.171875 Z M 1295.183594 470.820312 " fill-opacity="1" fill-rule="nonzero"/><path fill="#ffffff" d="M 849.554688 486.46875 C 787.125 469.507812 728.710938 441.527344 675.886719 404.234375 L 565.246094 326.085938 L 546.371094 275.339844 L 584.09375 221.675781 L 757.90625 344.433594 C 790.566406 367.488281 827.621094 383.519531 866.710938 391.546875 L 891.796875 444.03125 Z M 849.554688 486.46875 " fill-opacity="1" fill-rule="nonzero"/><path fill="#9fc865" d="M 866.710938 391.546875 C 877.175781 393.699219 944.789062 406.027344 1247.949219 462.171875 L 1230.816406 557.070312 C 928.253906 501.066406 855.527344 487.6875 849.554688 486.46875 Z M 866.710938 391.546875 " fill-opacity="1" fill-rule="nonzero"/><path fill="#ffffff" d="M 830.96875 785.976562 C 831.0625 809.9375 826.046875 832.851562 816.203125 853.46875 C 707.613281 1081.253906 734.207031 1061.515625 715.976562 1170.871094 L 703.3125 1246.941406 C 699.445312 1269.902344 677.964844 1286.886719 652.617188 1286.886719 C 629.417969 1286.886719 609.898438 1272.71875 603.542969 1253.390625 L 545.628906 1076.832031 C 529.71875 1028.117188 460.671875 1027.972656 444.613281 1076.832031 L 386.726562 1253.390625 C 380.179688 1273.269531 360.253906 1286.886719 337.628906 1286.886719 C 311.777344 1286.886719 290.703125 1269.398438 286.953125 1246.941406 L 274.265625 1170.871094 C 256.039062 1061.519531 282.652344 1081.253906 174.066406 853.46875 C 164.199219 832.851562 159.179688 809.9375 159.277344 785.976562 C 159.636719 692.082031 243.375 615.316406 345.65625 615.195312 C 389.6875 615.117188 415.835938 628.320312 431.378906 633.234375 C 477.871094 648.023438 527.589844 645.945312 571.433594 628.792969 C 693.921875 581.019531 830.503906 664.082031 830.96875 785.976562 Z M 830.96875 785.976562 " fill-opacity="1" fill-rule="nonzero"/><path fill="#9fc865" d="M 584.09375 221.675781 C 584.039062 221.992188 546.421875 430.199219 546.371094 430.492188 L 394.777344 402.464844 L 432.527344 193.652344 Z M 584.09375 221.675781 " fill-opacity="1" fill-rule="nonzero"/><g clip-path="url(#336a0fdcde)"><path fill="#339ca7" d="M 1299.484375 447.316406 C 865.4375 367.160156 871.261719 368.089844 871.5 368.136719 C 835.382812 360.726562 801.796875 346.179688 771.679688 324.910156 C 587.125 194.660156 595.757812 199.511719 588.445312 198.183594 L 436.863281 170.164062 C 423.851562 167.761719 411.363281 176.394531 409.007812 189.410156 C 405.164062 210.683594 372.078125 393.757812 367.84375 417.210938 C 359.402344 463.921875 384.667969 509.164062 426.195312 527.757812 L 412.867188 601.417969 C 279.054688 559.453125 135.898438 651.605469 135.386719 785.886719 C 135.285156 813.601562 141.042969 839.804688 152.488281 863.738281 C 259.003906 1087.183594 232.394531 1064.921875 250.707031 1174.78125 L 263.386719 1250.894531 C 275.84375 1325.066406 385.945312 1332.207031 409.417969 1260.828125 L 467.3125 1084.28125 C 476.144531 1057.425781 514.160156 1057.40625 522.9375 1084.261719 L 580.84375 1260.847656 C 604.28125 1332.136719 714.417969 1325.175781 726.875 1250.863281 L 739.546875 1174.785156 C 757.875 1064.847656 731.273438 1087.132812 837.753906 863.765625 C 856.472656 824.613281 854.289062 791.386719 854.867188 785.882812 C 854.335938 646.449219 700.125 552.902344 562.726562 606.546875 C 529.410156 619.582031 493.464844 622.601562 458.84375 615.675781 L 473.191406 536.417969 C 518.980469 533.859375 558.078125 500.050781 566.449219 453.722656 C 566.011719 456.136719 582.070312 367.277344 582.082031 367.222656 L 662.117188 423.75 C 717.9375 463.171875 778.894531 492.027344 843.289062 509.511719 C 843.507812 509.570312 843.726562 509.597656 843.949219 509.652344 C 848.742188 510.816406 1177.984375 571.539062 1273.683594 589.21875 C 1312.730469 596.433594 1350.363281 570.671875 1357.484375 531.273438 C 1364.542969 492.199219 1338.542969 454.535156 1299.484375 447.316406 Z M 1211.5625 529.21875 C 1063.296875 501.773438 902.875 472.109375 877.277344 467.355469 C 882.390625 439.042969 880.804688 447.84375 885.925781 419.496094 C 913.230469 424.574219 1070.730469 453.652344 1220.21875 481.324219 Z M 451.765625 221.511719 L 556.359375 240.847656 C 541.285156 324.257812 542.210938 319.136719 541.722656 321.832031 C 541.722656 321.835938 541.722656 321.84375 541.71875 321.847656 L 527.121094 402.644531 L 422.527344 383.308594 Z M 580.121094 651.054688 C 687.207031 609.238281 806.679688 680.984375 807.082031 786.066406 C 807.160156 806.527344 802.976562 825.734375 794.632812 843.179688 C 683.894531 1075.480469 710.601562 1057.824219 692.414062 1166.933594 L 679.746094 1242.992188 C 675.582031 1267.816406 634.207031 1270.160156 626.242188 1245.945312 L 568.351562 1069.402344 C 545.300781 998.851562 445.230469 998.492188 421.914062 1069.378906 L 364.019531 1245.925781 C 356.027344 1270.234375 314.664062 1267.726562 310.511719 1243.015625 L 297.839844 1166.933594 C 279.65625 1057.839844 306.359375 1075.480469 195.609375 843.15625 C 187.277344 825.734375 183.09375 806.527344 183.167969 786.070312 C 183.570312 680.875 303.167969 609.296875 410.140625 651.0625 C 462.773438 671.585938 523.4375 673.238281 580.121094 651.054688 Z M 497.417969 479.4375 C 460.453125 504.972656 410.105469 475.28125 414.230469 430.367188 L 518.441406 449.628906 C 515.191406 461.769531 507.839844 472.238281 497.417969 479.4375 Z M 591.457031 315.351562 L 600.949219 262.824219 L 744.117188 363.941406 C 773.261719 384.523438 805.152344 399.765625 839.191406 409.410156 L 830.789062 455.921875 C 780.984375 439.644531 733.628906 415.757812 689.679688 384.722656 Z M 1310.457031 522.78125 C 1308.101562 535.847656 1295.65625 544.703125 1282.332031 542.234375 L 1258.558594 537.875 C 1260.730469 525.851562 1265.433594 499.839844 1267.214844 489.980469 L 1290.835938 494.308594 C 1304.050781 496.75 1312.855469 509.527344 1310.457031 522.78125 Z M 1310.457031 522.78125 " fill-opacity="1" fill-rule="nonzero"/></g></svg>