<svg xmlns="http://www.w3.org/2000/svg" xmlns:xlink="http://www.w3.org/1999/xlink" width="2000" zoomAndPan="magnify" viewBox="0 0 1500 1499.999933" height="2000" preserveAspectRatio="xMidYMid meet" version="1.0"><defs><clipPath id="2eaa3d9e35"><path d="M 264.75 150 L 1235.25 150 L 1235.25 1350 L 264.75 1350 Z M 264.75 150 " clip-rule="nonzero"/></clipPath></defs><path fill="#9fc865" d="M 387.734375 972.582031 L 390.730469 970.851562 C 397.34375 967.027344 403.613281 962.640625 409.492188 957.761719 L 410.03125 957.3125 L 410.589844 956.902344 L 411.085938 956.421875 L 411.613281 955.964844 C 414.914062 953.109375 418.082031 950.105469 421.113281 946.96875 L 451.148438 915.867188 L 461.621094 957.816406 C 464.652344 969.960938 469.183594 981.609375 475.335938 992.519531 L 475.671875 993.117188 L 475.996094 993.769531 C 482.136719 1004.40625 489.691406 1014.0625 498.453125 1022.671875 L 528.617188 1052.328125 L 487.679688 1062.972656 C 476.230469 1065.953125 465.257812 1070.328125 454.953125 1076.140625 L 454.355469 1076.476562 L 453.703125 1076.800781 C 442.46875 1083.285156 432.351562 1091.339844 423.351562 1100.667969 L 393.320312 1131.792969 L 382.835938 1089.835938 C 379.804688 1077.699219 375.277344 1066.066406 369.128906 1055.167969 L 368.792969 1054.570312 L 368.46875 1053.914062 C 362.332031 1043.285156 354.785156 1033.636719 346.03125 1025.03125 L 315.855469 995.363281 L 356.816406 984.730469 C 367.605469 981.929688 377.960938 977.890625 387.734375 972.582031 Z M 1031.324219 241.953125 C 1036.554688 255.414062 1043.542969 268 1052.441406 279.382812 C 1060.898438 290.195312 1070.824219 299.617188 1081.96875 307.632812 L 1117.488281 333.175781 L 1076.84375 349.367188 C 1069.574219 352.265625 1062.542969 355.710938 1055.828125 359.726562 L 1055.125 360.148438 L 1054.375 360.53125 L 1053.707031 361.019531 L 1053.007812 361.460938 C 1049.007812 363.980469 1045.140625 366.703125 1041.414062 369.617188 C 1030.019531 378.527344 1020.175781 389.0625 1011.835938 400.875 L 986.078125 437.332031 L 969.90625 395.726562 C 964.675781 382.265625 957.6875 369.679688 948.789062 358.296875 C 948.070312 357.382812 947.34375 356.476562 946.609375 355.578125 L 946.074219 354.929688 L 945.59375 354.257812 L 945.015625 353.675781 L 944.480469 353.054688 C 937.011719 344.394531 928.542969 336.722656 919.261719 330.046875 L 883.742188 304.503906 L 924.386719 288.308594 C 937.121094 283.234375 949.015625 276.503906 959.816406 268.0625 C 971.210938 259.148438 981.050781 248.613281 989.394531 236.804688 L 1015.152344 200.34375 Z M 1031.324219 241.953125 " fill-opacity="1" fill-rule="evenodd"/><g clip-path="url(#2eaa3d9e35)"><path fill="#339ca7" d="M 461.507812 1099.976562 C 475.097656 1163.351562 491.015625 1221.910156 509.957031 1261.007812 C 524.210938 1290.429688 538.664062 1306.359375 552.398438 1297.542969 C 570.015625 1286.230469 585.527344 1266.78125 597.429688 1244.753906 C 611.074219 1219.507812 619.625 1191.613281 621.113281 1168.738281 C 621.90625 1156.601562 621.679688 1142.546875 621.4375 1127.441406 C 620.472656 1067.609375 619.277344 993.460938 669.039062 952.75 C 696.878906 929.972656 735.460938 918.585938 773.671875 918.585938 C 811.878906 918.585938 850.460938 929.972656 878.300781 952.75 C 928.0625 993.460938 926.867188 1067.609375 925.902344 1127.441406 C 925.660156 1142.546875 925.433594 1156.601562 926.226562 1168.738281 C 927.714844 1191.613281 936.265625 1219.507812 949.910156 1244.753906 C 961.8125 1266.78125 977.324219 1286.230469 994.941406 1297.542969 C 1005.402344 1304.257812 1016.234375 1296.550781 1026.992188 1279.800781 C 1070.882812 1211.445312 1099.890625 1034.140625 1120.96875 905.308594 C 1132.601562 834.207031 1141.914062 777.292969 1151.371094 756.085938 C 1179.523438 692.957031 1196.789062 610.144531 1182.164062 536.585938 C 1171.238281 481.632812 1141.941406 431.875 1084.851562 400.378906 C 1077.785156 396.480469 1071.21875 393.183594 1065.109375 390.445312 C 1062.632812 389.335938 1060.113281 388.265625 1057.542969 387.238281 C 1057.042969 387.613281 1056.546875 387.996094 1056.054688 388.378906 C 1033.105469 406.324219 1016.394531 433.609375 1005.925781 470.234375 L 1005.871094 470.21875 C 1003.105469 479.960938 994.292969 487.226562 983.636719 487.5625 C 970.445312 487.972656 959.417969 477.617188 959.003906 464.429688 C 957.828125 430.703125 950.078125 402.878906 935.757812 380.953125 C 922.183594 384.289062 908.453125 388.433594 894.445312 392.65625 C 858.460938 403.515625 820.753906 414.890625 774.605469 416.761719 C 773.929688 416.789062 773.257812 416.785156 772.59375 416.753906 C 726.507812 414.867188 688.84375 403.503906 652.890625 392.65625 C 593.21875 374.65625 538.84375 358.25 462.488281 400.378906 C 405.398438 431.875 376.101562 481.632812 365.175781 536.585938 C 350.550781 610.144531 367.816406 692.957031 395.96875 756.085938 C 405.246094 776.886719 414.382812 832.046875 425.707031 901.246094 C 429.261719 895.148438 432.605469 888.613281 435.742188 881.640625 C 439.59375 871.953125 449.519531 865.585938 460.402344 866.699219 C 473.539062 868.042969 483.097656 879.785156 481.753906 892.921875 C 478.058594 927.9375 482.789062 957.1875 495.945312 980.675781 C 496.183594 981.035156 496.410156 981.40625 496.628906 981.785156 C 510.082031 1005.082031 532.464844 1023.507812 563.777344 1037.058594 C 573.996094 1040.765625 580.707031 1051.125 579.375 1062.386719 C 577.824219 1075.523438 565.917969 1084.914062 552.777344 1083.363281 C 518.769531 1079.230469 490.109375 1083.695312 466.796875 1096.75 C 466.433594 1096.988281 466.066406 1097.214844 465.6875 1097.433594 C 464.28125 1098.246094 462.886719 1099.097656 461.507812 1099.976562 Z M 1040.222656 341.179688 C 1035.535156 344.132812 1031.011719 347.316406 1026.648438 350.730469 C 1013.621094 360.914062 1002.15625 373.019531 992.253906 387.039062 C 986.03125 371.035156 977.839844 356.53125 967.675781 343.527344 C 966.835938 342.457031 965.988281 341.398438 965.125 340.351562 C 964.375 339.292969 963.539062 338.308594 962.636719 337.394531 C 954.027344 327.410156 944.234375 318.472656 933.257812 310.582031 C 948.335938 304.574219 962.113281 296.699219 974.582031 286.949219 C 987.605469 276.765625 999.070312 264.660156 1008.976562 250.636719 C 1015.195312 266.640625 1023.390625 281.148438 1033.554688 294.148438 C 1043.320312 306.640625 1054.792969 317.621094 1067.96875 327.097656 C 1059.398438 330.511719 1051.25 334.53125 1043.523438 339.152344 C 1042.371094 339.738281 1041.265625 340.414062 1040.222656 341.179688 Z M 1116.074219 363.128906 C 1181.980469 402.578125 1216.195312 462.085938 1229.179688 527.40625 C 1245.855469 611.28125 1226.597656 704.746094 1195.015625 775.566406 C 1188.132812 791.003906 1179.257812 845.238281 1168.171875 912.988281 C 1146.414062 1045.988281 1116.464844 1229.023438 1067.261719 1305.648438 C 1040.539062 1347.269531 1008.355469 1363.023438 969.09375 1337.8125 C 944.238281 1321.855469 923.230469 1296.039062 907.765625 1267.417969 C 890.960938 1236.324219 880.382812 1201.199219 878.460938 1171.734375 C 877.621094 1158.855469 877.871094 1143.351562 878.140625 1126.691406 C 878.933594 1077.257812 879.921875 1015.992188 847.957031 989.835938 C 828.972656 974.304688 801.507812 966.535156 773.671875 966.535156 C 745.832031 966.535156 718.371094 974.304688 699.382812 989.835938 C 667.417969 1015.992188 668.40625 1077.257812 669.199219 1126.691406 C 669.46875 1143.351562 669.71875 1158.855469 668.878906 1171.734375 C 666.957031 1201.199219 656.378906 1236.324219 639.574219 1267.417969 C 624.109375 1296.039062 603.101562 1321.855469 578.246094 1337.8125 C 531.488281 1367.839844 495.375 1340.625 466.875 1281.800781 C 449.429688 1245.785156 434.609375 1196.039062 421.816406 1141.410156 C 417.101562 1148.90625 412.738281 1157.117188 408.722656 1166.046875 C 404.871094 1175.734375 394.949219 1182.101562 384.066406 1180.988281 C 370.925781 1179.644531 361.367188 1167.902344 362.710938 1154.761719 C 366.40625 1119.75 361.675781 1090.496094 348.519531 1067.011719 C 348.285156 1066.648438 348.054688 1066.28125 347.835938 1065.902344 C 334.386719 1042.605469 312 1024.179688 280.6875 1010.628906 C 270.46875 1006.921875 263.757812 996.5625 265.089844 985.300781 C 266.640625 972.164062 278.550781 962.769531 291.6875 964.324219 C 326.226562 968.519531 355.257812 963.832031 378.777344 950.253906 L 378.800781 950.292969 L 378.871094 950.253906 C 380.839844 949.117188 382.777344 947.910156 384.683594 946.640625 C 383.007812 936.457031 381.0625 924.582031 379.171875 913.019531 C 368.085938 845.253906 359.210938 791.003906 352.324219 775.566406 C 320.742188 704.746094 301.488281 611.28125 318.160156 527.40625 C 331.671875 459.433594 368.164062 397.746094 439.449219 358.417969 C 533.390625 306.589844 596.886719 325.746094 666.566406 346.765625 C 699.683594 356.757812 734.367188 367.21875 773.667969 368.953125 C 812.972656 367.21875 847.65625 356.757812 880.773438 346.765625 C 885.457031 345.355469 890.109375 343.949219 894.75 342.574219 C 881.742188 334.953125 866.691406 328.839844 849.59375 324.242188 L 849.605469 324.191406 C 839.546875 321.507812 832.0625 312.410156 831.890625 301.484375 C 831.683594 288.296875 842.210938 277.433594 855.398438 277.226562 C 892.335938 276.523438 922.261719 267.210938 945.175781 249.296875 C 968.125 231.355469 984.835938 204.066406 995.304688 167.441406 L 995.355469 167.457031 C 998.125 157.71875 1006.933594 150.449219 1017.59375 150.117188 C 1030.785156 149.703125 1041.8125 160.058594 1042.226562 173.25 C 1043.550781 211.226562 1053.210938 241.726562 1071.207031 264.742188 C 1089.070312 287.589844 1115.882812 303.820312 1151.636719 313.433594 L 1151.621094 313.484375 C 1161.683594 316.167969 1169.167969 325.265625 1169.335938 336.191406 C 1169.542969 349.382812 1159.019531 360.242188 1145.828125 360.449219 C 1135.347656 360.648438 1125.429688 361.542969 1116.074219 363.128906 Z M 481.644531 1039.769531 C 468.019531 1043.3125 455.195312 1048.476562 443.171875 1055.257812 C 442.683594 1055.5 442.195312 1055.757812 441.710938 1056.039062 C 428.742188 1063.527344 416.871094 1072.855469 406.097656 1084.023438 C 402.472656 1069.519531 397.113281 1055.972656 390.011719 1043.386719 C 389.769531 1042.894531 389.511719 1042.410156 389.234375 1041.925781 C 382.070312 1029.523438 373.273438 1018.191406 362.839844 1007.9375 C 377.011719 1004.257812 390.316406 998.828125 402.753906 991.648438 L 402.730469 991.609375 C 410.484375 987.125 417.84375 981.992188 424.808594 976.207031 C 425.6875 975.558594 426.519531 974.855469 427.296875 974.097656 C 431.105469 970.804688 434.792969 967.316406 438.359375 963.621094 C 441.984375 978.140625 447.347656 991.699219 454.453125 1004.300781 C 454.695312 1004.789062 454.953125 1005.277344 455.234375 1005.761719 C 462.398438 1018.171875 471.203125 1029.507812 481.644531 1039.769531 Z M 508.160156 449.550781 C 520.160156 444.066406 534.335938 449.351562 539.816406 461.351562 C 545.300781 473.351562 540.015625 487.523438 528.015625 493.007812 C 527.328125 493.320312 525.535156 494.21875 522.691406 495.664062 C 520.355469 496.851562 518.398438 497.886719 516.777344 498.78125 C 492.242188 512.316406 479.554688 535.410156 474.574219 561.980469 C 467.382812 600.324219 475.421875 645.695312 488.007812 683.035156 C 492.199219 695.550781 485.445312 709.097656 472.929688 713.285156 C 460.410156 717.476562 446.867188 710.722656 442.679688 698.207031 C 427.941406 654.476562 418.683594 600.480469 427.558594 553.175781 C 435.027344 513.34375 454.847656 478.28125 493.738281 456.820312 C 496.609375 455.238281 499.03125 453.941406 500.964844 452.957031 C 502.390625 452.230469 504.765625 451.105469 508.160156 449.550781 Z M 469.609375 777.664062 C 466.765625 764.785156 474.898438 752.039062 487.777344 749.195312 C 500.660156 746.347656 513.40625 754.484375 516.25 767.363281 C 517.816406 774.394531 518.855469 779.296875 519.519531 782.648438 C 519.945312 784.808594 520.933594 790.230469 522.28125 797.707031 C 524.605469 810.691406 515.96875 823.105469 502.988281 825.429688 C 490.003906 827.757812 477.589844 819.121094 475.265625 806.136719 C 474.863281 803.898438 474.015625 799.496094 472.503906 791.824219 C 471.222656 785.34375 470.21875 780.398438 469.609375 777.664062 Z M 469.609375 777.664062 " fill-opacity="1" fill-rule="evenodd"/></g></svg>