<svg xmlns="http://www.w3.org/2000/svg" xmlns:xlink="http://www.w3.org/1999/xlink" width="2000" zoomAndPan="magnify" viewBox="0 0 1500 1499.999933" height="2000" preserveAspectRatio="xMidYMid meet" version="1.0"><defs><clipPath id="99ea4bd00a"><path d="M 194.25 1096 L 1305.75 1096 L 1305.75 1401.59375 L 194.25 1401.59375 Z M 194.25 1096 " clip-rule="nonzero"/></clipPath><clipPath id="95219c8263"><path d="M 369 98.09375 L 838 98.09375 L 838 657 L 369 657 Z M 369 98.09375 " clip-rule="nonzero"/></clipPath></defs><path fill="#9fc865" d="M 746.296875 298.699219 C 743.332031 298.699219 740.371094 297.808594 737.703125 295.734375 L 652.363281 231.136719 C 646.140625 226.398438 644.953125 217.507812 649.695312 211.285156 C 654.4375 205.0625 663.324219 203.875 669.550781 208.617188 L 754.890625 273.214844 C 761.113281 277.957031 762.296875 286.847656 757.554688 293.070312 C 754.890625 296.625 750.742188 298.699219 746.296875 298.699219 Z M 746.296875 298.699219 " fill-opacity="1" fill-rule="evenodd"/><path fill="#9fc865" d="M 1060.394531 559.460938 C 1056.246094 559.460938 1052.097656 557.683594 1049.136719 554.128906 L 980.390625 466.121094 C 975.648438 459.898438 976.539062 451.007812 982.761719 446.265625 C 988.984375 441.527344 997.871094 442.414062 1002.613281 448.636719 L 1071.359375 536.644531 C 1076.101562 542.867188 1075.210938 551.757812 1068.988281 556.5 C 1066.324219 558.277344 1063.359375 559.460938 1060.394531 559.460938 Z M 1060.394531 559.460938 " fill-opacity="1" fill-rule="evenodd"/><g clip-path="url(#99ea4bd00a)"><path fill="#9fc865" d="M 820.96875 1125.730469 L 679.03125 1125.730469 C 671.03125 1125.730469 664.808594 1119.507812 664.808594 1111.507812 C 664.808594 1103.507812 671.328125 1097.285156 679.03125 1097.285156 L 820.96875 1097.285156 C 828.96875 1097.285156 835.191406 1103.507812 835.191406 1111.507812 C 835.191406 1119.210938 828.671875 1125.730469 820.96875 1125.730469 Z M 1244.410156 1401.605469 L 255.589844 1401.605469 C 221.808594 1401.605469 194.25 1374.046875 194.25 1340.265625 L 194.25 1158.328125 C 194.25 1124.546875 221.808594 1096.988281 255.589844 1096.988281 L 374.710938 1096.988281 C 382.414062 1096.988281 388.933594 1103.210938 388.933594 1111.210938 C 388.933594 1119.210938 382.414062 1125.433594 374.710938 1125.433594 L 255.589844 1125.433594 C 237.511719 1125.433594 222.695312 1140.25 222.695312 1158.328125 L 222.695312 1340.265625 C 222.695312 1358.34375 237.511719 1373.160156 255.589844 1373.160156 L 1244.410156 1373.160156 C 1262.488281 1373.160156 1277.304688 1358.34375 1277.304688 1340.265625 L 1277.304688 1158.328125 C 1277.304688 1140.25 1262.488281 1125.433594 1244.410156 1125.433594 L 1125.289062 1125.433594 C 1117.289062 1125.433594 1111.066406 1119.210938 1111.066406 1111.210938 C 1111.066406 1103.210938 1117.289062 1096.988281 1125.289062 1096.988281 L 1244.410156 1096.988281 C 1278.191406 1096.988281 1305.75 1124.546875 1305.75 1158.328125 L 1305.75 1340.265625 C 1305.75 1374.046875 1278.191406 1401.605469 1244.410156 1401.605469 Z M 1244.410156 1401.605469 " fill-opacity="1" fill-rule="evenodd"/></g><path fill="#339ca7" d="M 498.570312 1161.289062 Z M 604.0625 1306.488281 C 609.988281 1306.488281 627.175781 1291.375 635.175781 1274.78125 C 644.066406 1257 649.398438 1232.40625 652.066406 1197.441406 C 656.511719 1137.582031 664.808594 1091.0625 693.253906 1030.316406 C 716.070312 981.71875 713.996094 923.9375 687.921875 889.5625 C 676.957031 875.042969 656.808594 858.746094 623.324219 864.078125 C 613.542969 865.5625 596.0625 871.191406 578.875 876.523438 C 552.796875 884.820312 536.203125 889.5625 526.425781 889.5625 C 516.648438 889.5625 500.054688 884.527344 473.976562 876.523438 C 457.085938 871.191406 439.605469 865.859375 429.527344 864.078125 C 396.042969 858.746094 375.894531 875.042969 364.929688 889.5625 C 339.152344 923.9375 337.078125 981.71875 359.597656 1030.316406 C 388.042969 1091.0625 396.339844 1137.585938 400.785156 1197.441406 C 403.453125 1232.40625 408.785156 1257 417.675781 1274.78125 C 425.972656 1291.375 442.863281 1306.488281 448.789062 1306.488281 C 449.382812 1305.894531 450.863281 1304.117188 452.050781 1298.78125 C 455.011719 1286.335938 458.273438 1268.558594 461.53125 1249.59375 C 468.050781 1212.257812 474.570312 1174.03125 484.347656 1155.660156 C 491.757812 1135.804688 507.757812 1123.359375 525.832031 1123.359375 C 543.910156 1123.359375 559.910156 1135.804688 567.316406 1155.660156 C 577.097656 1174.03125 583.617188 1212.554688 590.136719 1249.59375 C 593.394531 1268.558594 596.652344 1286.335938 599.617188 1298.78125 C 601.988281 1304.117188 603.765625 1306.191406 604.0625 1306.488281 Z M 449.976562 1334.933594 C 424.789062 1334.933594 401.082031 1303.523438 393.082031 1287.523438 C 382.710938 1266.484375 376.191406 1238.332031 373.226562 1199.515625 C 369.078125 1142.917969 361.375 1099.0625 334.707031 1042.464844 C 307.148438 983.792969 310.40625 915.640625 343.003906 872.671875 C 365.226562 843.335938 397.824219 830.300781 434.863281 836.226562 C 446.714844 838.003906 464.496094 843.632812 483.164062 849.558594 C 499.164062 854.597656 521.09375 861.414062 527.019531 861.414062 C 532.945312 861.414062 554.871094 854.597656 570.875 849.558594 C 589.542969 843.632812 607.320312 838.300781 619.175781 836.226562 C 656.214844 830.300781 688.808594 843.039062 710.738281 872.671875 C 743.035156 915.640625 746.59375 984.089844 719.035156 1042.464844 C 692.367188 1099.0625 684.660156 1142.917969 680.511719 1199.515625 C 677.550781 1238.332031 671.328125 1266.1875 660.660156 1287.523438 C 652.363281 1304.117188 626.878906 1337.601562 600.507812 1334.933594 C 592.800781 1334.042969 578.875 1329.304688 572.949219 1305.894531 C 569.6875 1292.558594 566.429688 1274.1875 563.167969 1254.628906 C 557.539062 1222.332031 550.429688 1182.03125 543.019531 1168.402344 C 542.722656 1167.808594 542.128906 1166.917969 542.128906 1166.328125 C 538.871094 1157.4375 533.242188 1151.808594 527.019531 1151.808594 C 520.796875 1151.808594 515.164062 1157.4375 511.90625 1166.328125 C 511.609375 1167.214844 511.3125 1167.808594 511.015625 1168.402344 C 503.3125 1182.03125 496.496094 1222.332031 490.867188 1254.335938 C 487.609375 1273.890625 484.347656 1292.261719 481.089844 1305.597656 C 475.457031 1329.007812 461.234375 1333.75 453.53125 1334.636719 C 452.050781 1334.933594 451.160156 1334.933594 449.976562 1334.933594 Z M 449.976562 1334.933594 " fill-opacity="1" fill-rule="evenodd"/><path fill="#339ca7" d="M 944.535156 1161.289062 Z M 863.640625 863.488281 C 837.859375 863.488281 821.265625 877.414062 811.78125 889.859375 C 786.003906 924.234375 783.929688 982.015625 806.449219 1030.613281 C 834.894531 1091.359375 843.191406 1137.878906 847.636719 1197.738281 C 850.304688 1232.703125 855.636719 1257.296875 864.527344 1275.078125 C 872.824219 1291.671875 890.011719 1306.785156 895.640625 1306.785156 C 896.234375 1306.191406 897.714844 1304.414062 898.902344 1299.078125 C 901.863281 1286.632812 905.125 1268.855469 908.382812 1249.890625 C 914.902344 1212.554688 921.421875 1174.328125 931.199219 1155.957031 C 938.609375 1136.101562 954.609375 1123.65625 972.683594 1123.65625 C 990.761719 1123.65625 1006.761719 1136.101562 1014.171875 1155.957031 C 1023.949219 1174.328125 1030.46875 1212.847656 1036.988281 1249.890625 C 1040.246094 1268.855469 1043.507812 1286.632812 1046.46875 1299.078125 C 1047.65625 1304.414062 1049.136719 1306.191406 1049.730469 1306.785156 C 1055.65625 1306.785156 1072.546875 1291.671875 1080.84375 1275.078125 C 1089.730469 1257.296875 1095.066406 1232.703125 1097.734375 1197.738281 C 1102.175781 1137.878906 1110.476562 1091.359375 1138.921875 1030.613281 C 1161.738281 982.015625 1159.664062 924.234375 1133.585938 889.859375 C 1122.625 875.339844 1102.472656 859.042969 1068.988281 864.375 C 1059.210938 865.859375 1041.726562 871.488281 1024.542969 876.820312 C 998.464844 885.117188 981.871094 889.859375 972.09375 889.859375 C 962.3125 889.859375 945.71875 884.820312 919.644531 876.820312 C 902.753906 871.488281 885.269531 866.152344 875.195312 864.375 C 871.9375 863.785156 867.789062 863.488281 863.640625 863.488281 Z M 896.234375 1334.933594 C 871.046875 1334.933594 847.339844 1303.523438 839.339844 1287.523438 C 828.96875 1266.484375 822.449219 1238.332031 819.488281 1199.515625 C 815.339844 1142.917969 807.632812 1099.0625 780.964844 1042.464844 C 753.40625 983.792969 756.667969 915.640625 789.261719 872.671875 C 811.488281 843.335938 844.082031 830.300781 881.121094 836.226562 C 892.976562 838.003906 910.753906 843.632812 929.421875 849.558594 C 945.421875 854.597656 967.351562 861.414062 973.277344 861.414062 C 979.203125 861.414062 1001.132812 854.597656 1017.132812 849.558594 C 1035.800781 843.632812 1053.582031 838.300781 1065.433594 836.226562 C 1102.472656 830.300781 1135.070312 843.039062 1157.292969 872.671875 C 1189.59375 915.640625 1192.851562 984.089844 1165.589844 1042.464844 C 1138.921875 1099.0625 1131.214844 1142.917969 1127.066406 1199.515625 C 1124.105469 1238.332031 1117.882812 1266.1875 1107.214844 1287.523438 C 1098.917969 1304.117188 1073.433594 1337.601562 1047.0625 1334.933594 C 1039.355469 1334.042969 1025.429688 1329.304688 1019.503906 1305.894531 C 1016.242188 1292.558594 1012.984375 1274.1875 1009.726562 1254.628906 C 1004.09375 1222.332031 997.28125 1182.328125 989.574219 1168.699219 C 989.277344 1168.105469 988.984375 1167.214844 988.6875 1166.625 C 985.425781 1157.734375 979.796875 1152.105469 973.574219 1152.105469 C 967.351562 1152.105469 961.722656 1157.734375 958.460938 1166.625 C 958.164062 1167.511719 957.867188 1168.105469 957.574219 1168.699219 C 949.867188 1182.328125 943.054688 1222.628906 937.421875 1254.628906 C 934.164062 1274.1875 930.902344 1292.558594 927.644531 1305.894531 C 921.71875 1329.304688 907.789062 1334.042969 900.085938 1334.933594 C 898.308594 1334.933594 897.125 1334.933594 896.234375 1334.933594 Z M 896.234375 1334.933594 " fill-opacity="1" fill-rule="evenodd"/><path fill="#339ca7" d="M 353.078125 897.269531 C 352.1875 897.269531 351.300781 897.269531 350.113281 896.972656 C 342.410156 895.488281 337.371094 887.785156 339.152344 880.082031 C 351.894531 816.964844 388.042969 762.144531 440.789062 725.402344 C 447.308594 720.957031 456.199219 722.4375 460.640625 728.957031 C 465.085938 735.476562 463.605469 744.367188 457.085938 748.8125 C 410.269531 781.40625 378.265625 830.003906 367.003906 885.710938 C 365.820312 892.527344 359.597656 897.269531 353.078125 897.269531 Z M 331.742188 957.125 C 326.707031 957.125 321.964844 954.457031 319.296875 949.714844 C 282.554688 884.230469 280.183594 792.667969 313.074219 716.214844 C 339.742188 654.582031 383.894531 613.097656 437.824219 599.464844 C 445.53125 597.6875 453.234375 602.132812 455.011719 609.835938 C 457.085938 617.539062 452.34375 625.246094 444.640625 627.023438 C 399.601562 638.28125 362.265625 673.839844 339.152344 727.179688 C 309.519531 795.628906 311.59375 877.414062 343.890625 935.492188 C 347.746094 942.308594 345.375 950.902344 338.558594 954.753906 C 336.484375 956.53125 334.113281 957.125 331.742188 957.125 Z M 331.742188 957.125 " fill-opacity="1" fill-rule="evenodd"/><path fill="#339ca7" d="M 700.664062 897.269531 C 694.144531 897.269531 688.21875 892.527344 686.734375 886.007812 C 675.476562 830.300781 643.472656 781.40625 596.652344 749.105469 C 590.136719 744.664062 588.652344 735.773438 593.097656 729.253906 C 597.542969 722.734375 606.433594 721.253906 612.953125 725.699219 C 665.695312 762.441406 701.847656 817.261719 714.589844 880.378906 C 716.070312 888.082031 711.332031 895.488281 703.625 897.269531 C 702.738281 897.269531 701.847656 897.269531 700.664062 897.269531 Z M 722.292969 957.125 C 719.921875 957.125 717.554688 956.53125 715.480469 955.347656 C 708.664062 951.496094 706.292969 942.902344 710.144531 936.085938 C 742.738281 878.007812 744.519531 796.222656 714.886719 727.773438 C 692.070312 674.433594 654.4375 638.875 609.394531 627.617188 C 601.691406 625.835938 597.246094 617.835938 599.023438 610.429688 C 600.800781 602.726562 608.804688 598.28125 616.210938 600.058594 C 670.140625 613.6875 714.292969 655.171875 740.960938 716.808594 C 773.855469 793.257812 771.484375 884.820312 734.738281 950.308594 C 732.074219 954.457031 727.332031 957.125 722.292969 957.125 Z M 722.292969 957.125 " fill-opacity="1" fill-rule="evenodd"/><path fill="#9fc865" d="M 527.019531 647.171875 C 514.574219 647.171875 504.203125 657.542969 504.203125 669.988281 C 504.203125 682.730469 514.574219 692.804688 527.019531 692.804688 C 539.761719 692.804688 549.835938 682.433594 549.835938 669.988281 C 549.835938 657.542969 539.464844 647.171875 527.019531 647.171875 Z M 527.019531 721.550781 C 498.867188 721.550781 475.753906 698.4375 475.753906 670.285156 C 475.753906 642.136719 498.867188 619.023438 527.019531 619.023438 C 555.464844 619.023438 578.28125 642.136719 578.28125 670.285156 C 578.28125 698.4375 555.167969 721.550781 527.019531 721.550781 Z M 527.019531 721.550781 " fill-opacity="1" fill-rule="evenodd"/><path fill="#339ca7" d="M 664.511719 652.507812 C 656.808594 652.507812 650.585938 646.285156 650.289062 638.578125 C 650.289062 630.578125 656.511719 624.355469 664.214844 624.058594 C 807.339844 621.097656 1013.875 554.722656 1154.921875 490.417969 C 1161.144531 487.753906 1165.589844 482.417969 1167.367188 475.898438 C 1169.144531 469.378906 1167.664062 462.566406 1163.8125 456.933594 L 1145.144531 430.859375 C 1138.921875 421.96875 1127.363281 419.003906 1117.585938 423.449219 C 960.238281 496.050781 663.917969 565.683594 528.796875 581.390625 C 521.09375 582.277344 513.980469 576.648438 513.089844 568.945312 C 512.203125 561.238281 517.832031 554.128906 525.535156 553.238281 C 655.621094 537.832031 953.425781 468.195312 1105.734375 397.671875 C 1128.253906 387.300781 1154.035156 394.113281 1168.554688 414.265625 L 1187.222656 440.339844 C 1196.109375 452.785156 1199.074219 468.492188 1195.222656 483.011719 C 1191.371094 497.828125 1181 509.679688 1167.070312 516.199219 C 1023.058594 581.6875 812.078125 649.246094 665.105469 652.507812 C 664.511719 652.507812 664.511719 652.507812 664.511719 652.507812 Z M 664.511719 652.507812 " fill-opacity="1" fill-rule="evenodd"/><g clip-path="url(#95219c8263)"><path fill="#339ca7" d="M 383.894531 656.953125 C 382.710938 656.953125 381.230469 656.65625 380.042969 656.359375 C 372.636719 654.285156 368.191406 646.285156 370.265625 638.578125 C 410.5625 500.789062 612.0625 256.027344 720.21875 124.757812 L 726.441406 117.054688 C 736.222656 105.203125 750.445312 98.386719 765.558594 98.386719 C 780.964844 98.386719 795.1875 105.203125 804.96875 117.054688 L 825.414062 141.945312 C 841.117188 161.207031 841.117188 187.875 825.117188 206.839844 C 756.667969 289.21875 641.398438 448.046875 557.539062 576.648438 C 553.09375 583.167969 544.5 584.945312 537.6875 580.796875 C 531.167969 576.351562 529.390625 567.757812 533.539062 561.238281 C 631.027344 412.191406 743.035156 261.066406 803.191406 188.765625 C 810.300781 180.46875 810.300781 168.613281 803.191406 160.316406 L 782.742188 135.425781 C 778.59375 130.09375 772.074219 127.128906 765.558594 127.128906 C 759.039062 127.128906 752.519531 130.09375 748.371094 135.425781 L 742.148438 143.132812 C 642.878906 263.734375 436.046875 514.71875 397.527344 646.875 C 395.75 652.804688 390.117188 656.953125 383.894531 656.953125 Z M 383.894531 656.953125 " fill-opacity="1" fill-rule="evenodd"/></g><path fill="#9fc865" d="M 527.019531 581.6875 C 478.125 581.6875 438.417969 621.394531 438.417969 670.285156 C 438.417969 719.179688 478.125 758.886719 527.019531 758.886719 C 575.910156 758.886719 615.617188 719.179688 615.617188 670.285156 C 615.617188 621.394531 575.613281 581.6875 527.019531 581.6875 Z M 527.019531 787.035156 C 462.421875 787.035156 409.972656 734.585938 409.972656 669.988281 C 409.972656 605.390625 462.421875 552.941406 527.019531 552.941406 C 591.617188 552.941406 644.066406 605.390625 644.066406 669.988281 C 644.066406 734.585938 591.320312 787.035156 527.019531 787.035156 Z M 527.019531 787.035156 " fill-opacity="1" fill-rule="evenodd"/></svg>